<?xml version="1.0" encoding="utf-8" ?>
<svg baseProfile="full" height="200mm" version="1.1" viewBox="0,0,200,200" width="200mm" xmlns="http://www.w3.org/2000/svg" xmlns:ev="http://www.w3.org/2001/xml-events" xmlns:xlink="http://www.w3.org/1999/xlink"><defs /><rect fill="#1a1a1a" height="200" width="200" x="0" y="0" /><text alignment-baseline="middle" fill="#e1ed5e" style="dominant-baseline: central; font-size:9.0px; font-family:Arial;" text-anchor="middle" x="100.0" y="100.0">2024</text><line stroke="#e1ed5e" stroke-width="0.3" x1="100.0" x2="100.0" y1="15.0" y2="10.0" /><path d="M 100.0 14.0 a86.0,86.0 0 0,1 42.35913384403234,11.155469271406648" fill="none" id="id49" stroke="none" /><text fill="#e1ed5e" style="font-size:6.75px; font-family:Arial;" text-anchor="middle"><textPath startOffset="22.145653131862478" xlink:href="#id49">January</textPath></text><path d="M 101.08105385017728 79.02784411241856 l 2.5281546005709643 -49.045523849145724 a70.11064014367467,70.11064014367467 0 0,0 1.2014147538718971,0.07227412821692031 l -3.369713706575324 48.99489774310411" fill="#31ff3e" stroke="none" /><path d="M 101.80034050326958 79.07731436759882 l 4.210238641321446 -48.929354958008226 a70.11016072080848,70.11016072080848 0 0,0 1.198217490183099,0.1134724421023669 l -5.049555694889558 48.84987076040067" fill="#31ff3e" stroke="none" /><path d="M 102.15924093988457 79.11130261209362 l 3.018711113706575 -29.203291671145067 a50.3588974796055,50.3588974796055 0 0,0 0.8591326191385132,0.09626760195362785 l -3.519579634445885 29.147168308684467" fill="#ff6609" stroke="none" /><path d="M 102.87502721639298 79.19773525538626 l 4.667499743062925 -33.771703028407074 a55.09271886034336,55.09271886034336 0 0,0 0.9357233181570779,0.13751910436693415 l -5.246548166827685 33.68660285074126" fill="#ffcb13" stroke="none" /><path d="M 103.94208987418118 79.37332000966035 l 9.270726944763284 -48.50836081132509 a70.38630829173263,70.38630829173263 0 0,0 1.184847969125192,0.237002777427734 l -10.102071399419433 48.3420686372345" fill="#31ff44" stroke="none" /><path d="M 104.64783097203109 79.52079915486377 l 7.54579291394021 -33.248155871050876 a55.09367770607573,55.09367770607573 0 0,0 0.920504763775224,0.21723661784642545 l -8.11542983145532 33.11372310955822" fill="#ffcb13" stroke="none" /><path d="M 105.69591212413111 79.78721728523813 l 14.456463196518353 -51.30088790822982 a74.29887830269085,74.29887830269085 0 0,0 1.224657753131147,0.3564800235831469 l -15.334980962031105 51.04516419034415" fill="#39ff8d" stroke="none" /><path d="M 106.04205211174951 79.88797359093562 l 9.815254066322286 -32.67178854840941 a55.11429288932181,55.11429288932181 0 0,0 0.9037677628140225,0.2799895631455581 l -10.374662462007938 32.49848239745721" fill="#ffcc13" stroke="none" /><path d="M 106.38641147887787 79.99465700312896 l 7.6404824776067555 -23.933702538841537 a46.12367587970291,46.12367587970291 0 0,0 0.75220524975731,0.24726480628994077 l -8.050210465011808 23.799016811149574" fill="#ff0400" stroke="none" /><path d="M 106.72888874123014 80.10723608172694 l 20.186666223690402 -59.67829175481916 a84.0,84.0 0 0,0 1.3619769118199267,0.4737662697256382 l -21.208148907555344 59.32296705252493" fill="#4dd2ff" stroke="none" /><line stroke="#e1ed5e" stroke-width="0.3" x1="143.13028292997686" x2="145.6673583964461" y1="26.7553504044142" y2="22.446841604673864" /><path d="M 143.63769802327073 25.89364864446614 a86.0,86.0 0 0,1 29.32050498858742,28.57503671076993" fill="none" id="id50" stroke="none" /><text fill="#e1ed5e" style="font-size:6.75px; font-family:Arial;" text-anchor="middle"><textPath startOffset="20.669276256404974" xlink:href="#id50">February</textPath></text><path d="M 113.03279911837588 83.53348406188908 l 18.09812352307583 -22.866387852356162 a50.161854681602335,50.161854681602335 0 0,0 0.6706143837814892,0.5401994772729276 l -18.487988677212577 22.552340081289824" fill="#ff6109" stroke="none" /><path d="M 115.41159269507618 85.73525988315684 l 21.857093055297753 -20.230599024531166 a50.782707293315475,50.782707293315475 0 0,0 0.5866667403253472,0.6448495165038385 l -22.20115749646498 19.852411932469657" fill="#ff6f0a" stroke="none" /><path d="M 116.1254893667686 86.54754324733833 l 19.155399706739406 -15.980115720760802 a45.94580999634726,45.94580999634726 0 0,0 0.5000505246344203,0.6099803329760041 l -19.426897050612457 15.648933106086302" fill="#ff0000" stroke="none" /><path d="M 116.35404254752997 86.82634096563983 l 21.16935527011178 -17.052534105569418 a48.183276512845495,48.183276512845495 0 0,0 0.5133436398858878,0.6485929193821777 l -21.458965340639228 16.68662124227256" fill="#ff3405" stroke="none" /><path d="M 116.57777611688842 87.10902102172516 l 26.927406085028924 -20.93891384067813 a55.1104575063923,55.1104575063923 0 0,0 0.5743245072558789,0.751809216062307 l -27.28288256963911 20.473583711374943" fill="#ffcc13" stroke="none" /><path d="M 117.42321728460499 88.27688183743584 l 28.31458432943174 -19.05131597659124 a55.12723730670888,55.12723730670888 0 0,0 0.5215445144124172,0.7896848682588451 l -28.63745328276488 18.562451229993336" fill="#ffcc13" stroke="none" /><line stroke="#e1ed5e" stroke-width="0.3" x1="172.87174338648825" x2="177.1583165268699" y1="56.24261187166439" y2="53.66864786411523" /><path d="M 173.72905801456457 55.72781907015455 a86.0,86.0 0 0,1 12.242430191666344,42.057860355516425" fill="none" id="id51" stroke="none" /><text fill="#e1ed5e" style="font-size:6.75px; font-family:Arial;" text-anchor="middle"><textPath startOffset="22.145653131862474" xlink:href="#id51">March</textPath></text><path d="M 118.00360718960297 89.18935116829356 l 21.42093318292353 -12.862654902944527 a45.986081517107024,45.986081517107024 0 0,0 0.40057444179021195,0.6802629760974559 l -21.638581334843508 12.493040758553516" fill="#ff0100" stroke="none" /><path d="M 118.36410011445183 89.81374322990088 l 46.60508093395205 -25.85105277284409 a74.29456349689517,74.29456349689517 0 0,0 0.6090549811566102,1.1205925660359866 l -47.041981264724 25.047205373333497" fill="#39ff8d" stroke="none" /><path d="M 118.8641267826498 90.77261029715802 l 27.17776198266502 -13.294005280742002 a51.25493881651041,51.25493881651041 0 0,0 0.37982531484974574,0.7936888243117726 l -27.40196655547468 12.825503954365127" fill="#ff7a0b" stroke="none" /><path d="M 119.0197475246899 91.09779779509293 l 22.61345042931158 -10.58423662096727 a45.96786344819189,45.96786344819189 0 0,0 0.3283758873643061,0.7175605763032477 l -22.791810781530938 10.194487062449337" fill="#ff0100" stroke="none" /><path d="M 119.16976305983485 91.42560881287824 l 44.84576190796748 -20.05893888637087 a70.12741994399124,70.12741994399124 0 0,0 0.4820963514990337,1.1031307979170424 l -45.183492141483484 19.28614601867798" fill="#31ff3f" stroke="none" /><path d="M 119.31412917781788 91.75594674310238 l 36.30702949510004 -15.497311942032589 a60.47615822476562,60.47615822476562 0 0,0 0.39935619845225656,0.9583094957660706 l -36.56771153808878 14.87176993682524" fill="#c8ff1d" stroke="none" /><path d="M 119.94978838288452 93.4421083053983 l 30.39060474456811 -9.989995413651076 a52.99044959211007,52.99044959211007 0 0,0 0.2766487143867578,0.8665981575498194 l -30.557618174732124 9.46682822240987" fill="#ff9f0e" stroke="none" /><path d="M 120.16314734710363 94.1308016681162 l 51.185958896472435 -14.899486642605082 a74.31038445147936,74.31038445147936 0 0,0 0.34600864029443734,1.2278625988754321 l -51.43418602884145 14.018616119826637" fill="#39ff8d" stroke="none" /><path d="M 120.26092885502905 94.47779374421319 l 42.87839640344257 -11.686697611517662 a65.44249969560454,65.44249969560454 0 0,0 0.28610999402332066,1.0864062493554731 l -43.07269587827062 10.94891085778939" fill="#6fff27" stroke="none" /><path d="M 120.35273937422433 94.82641323984039 l 37.57872008469272 -9.552363695087106 a59.77380372580057,59.77380372580057 0 0,0 0.24425418796384168,0.9966404388384773 l -37.73716179917285 8.905867431640534" fill="#d6ff1c" stroke="none" /><line stroke="#e1ed5e" stroke-width="0.3" x1="184.99686870605535" x2="189.99668451229388" y1="99.2704041080226" y2="99.22748670261217" /><path d="M 185.99683186730306 99.26182062694052 a86.0,86.0 0 0,1 -10.086455211305974,41.156179273409016" fill="none" id="id52" stroke="none" /><text fill="#e1ed5e" style="font-size:6.75px; font-family:Arial;" text-anchor="middle"><textPath startOffset="21.40746469413373" xlink:href="#id52">April</textPath></text><line stroke="#e1ed5e" stroke-width="0.3" x1="174.33088141563837" x2="178.70328620479359" y1="141.23008692659167" y2="143.65538615756765" /><path d="M 175.20536237346943 141.71514677278685 a86.0,86.0 0 0,1 -30.301960400862466,31.631185727798858" fill="none" id="id53" stroke="none" /><text fill="#e1ed5e" style="font-size:6.75px; font-family:Arial;" text-anchor="middle"><textPath startOffset="22.145653131862474" xlink:href="#id53">May</textPath></text><line stroke="#e1ed5e" stroke-width="0.3" x1="143.1302829299769" x2="145.66735839644613" y1="173.24464959558577" y2="177.55315839532614" /><path d="M 143.63769802327073 174.10635135553383 a86.0,86.0 0 0,1 -40.68552437913181,11.842963189579606" fill="none" id="id54" stroke="none" /><text fill="#e1ed5e" style="font-size:6.75px; font-family:Arial;" text-anchor="middle"><textPath startOffset="21.407464694133747" xlink:href="#id54">June</textPath></text><line stroke="#e1ed5e" stroke-width="0.3" x1="101.45913802915013" x2="101.54496967792366" y1="184.9874750549273" y2="189.98673829345242" /><path d="M 101.47630435890484 185.9873277026323 a86.0,86.0 0 0,1 -42.54439059252881,-10.42667462771756" fill="none" id="id55" stroke="none" /><text fill="#e1ed5e" style="font-size:6.75px; font-family:Arial;" text-anchor="middle"><textPath startOffset="22.145653131862474" xlink:href="#id55">July</textPath></text><line stroke="#e1ed5e" stroke-width="0.3" x1="58.13341422392154" x2="55.67067388415222" y1="173.97424548756322" y2="178.32567169271397" /><path d="M 57.64086615596768 174.84453072859336 a86.0,86.0 0 0,1 -31.369924170532247,-30.572349798747897" fill="none" id="id56" stroke="none" /><text fill="#e1ed5e" style="font-size:6.75px; font-family:Arial;" text-anchor="middle"><textPath startOffset="22.145653131862474" xlink:href="#id56">August</textPath></text><line stroke="#e1ed5e" stroke-width="0.3" x1="26.387840678322732" x2="22.057713659400548" y1="142.50000000000003" y2="145.00000000000006" /><path d="M 25.521815274538298 143.00000000000003 a86.0,86.0 0 0,1 -11.493303480769221,-40.785679425670985" fill="none" id="id57" stroke="none" /><text fill="#e1ed5e" style="font-size:6.75px; font-family:Arial;" text-anchor="middle"><textPath startOffset="21.40746469413373" xlink:href="#id57">September</textPath></text><line stroke="#e1ed5e" stroke-width="0.3" x1="15.003131293944662" x2="10.003315487706104" y1="100.72959589197737" y2="100.7725132973878" /><path d="M 14.003168132696942 100.73817937305945 a86.0,86.0 0 0,1 10.791469493833604,-42.45332614584628" fill="none" id="id58" stroke="none" /><text fill="#e1ed5e" style="font-size:6.75px; font-family:Arial;" text-anchor="middle"><textPath startOffset="22.145653131862435" xlink:href="#id58">October</textPath></text><line stroke="#e1ed5e" stroke-width="0.3" x1="26.387840678322718" x2="22.05771365940052" y1="57.49999999999999" y2="54.99999999999999" /><path d="M 25.521815274538284 56.99999999999999 a86.0,86.0 0 0,1 29.574782752854787,-30.34633250058573" fill="none" id="id59" stroke="none" /><text fill="#e1ed5e" style="font-size:6.75px; font-family:Arial;" text-anchor="middle"><textPath startOffset="21.40746469413373" xlink:href="#id59">November</textPath></text><line stroke="#e1ed5e" stroke-width="0.3" x1="56.869717070023135" x2="54.33264160355391" y1="26.7553504044142" y2="22.446841604673864" /><path d="M 56.362301976729285 25.89364864446614 a86.0,86.0 0 0,1 42.16139366436587,-11.88097634709845" fill="none" id="id60" stroke="none" /><text fill="#e1ed5e" style="font-size:6.75px; font-family:Arial;" text-anchor="middle"><textPath startOffset="22.145653131862474" xlink:href="#id60">December</textPath></text></svg>