<?xml version="1.0" encoding="utf-8" ?>
<svg baseProfile="full" height="200mm" version="1.1" viewBox="0,0,200,200" width="200mm" xmlns="http://www.w3.org/2000/svg" xmlns:ev="http://www.w3.org/2001/xml-events" xmlns:xlink="http://www.w3.org/1999/xlink"><defs /><rect fill="#1a1a1a" height="200" width="200" x="0" y="0" /><text alignment-baseline="middle" fill="#e1ed5e" style="dominant-baseline: central; font-size:9.0px; font-family:Arial;" text-anchor="middle" x="100.0" y="100.0">2026</text><line stroke="#e1ed5e" stroke-width="0.3" x1="100.0" x2="100.0" y1="15.0" y2="10.0" /><path d="M 100.0 14.0 a86.0,86.0 0 0,1 42.46469731375804,11.215312516191453" fill="none" id="id73" stroke="none" /><text fill="#e1ed5e" style="font-size:6.75px; font-family:Arial;" text-anchor="middle"><textPath startOffset="22.20632615414155" xlink:href="#id73">January</textPath></text><path d="M 100.0 79.0 l 0.0 -17.542282343921954 a38.542282343921954,38.542282343921954 0 0,0 0.6634420330446674,0.005710455034540489 l -0.30196155377213907 17.539683265495974" fill="red" stroke="none" /><path d="M 100.36148047927253 79.00311137660856 l 0.5954082717769124 -34.58477534694337 a55.58990021391565,55.58990021391565 0 0,0 0.9566052042611541,0.02470629016580766 l -1.1906401112329343 34.569402264635194" fill="red" stroke="none" /><path d="M 100.72285384407766 79.0124445844662 l 1.126727972298094 -32.71375804470055 a53.733155688548706,53.733155688548706 0 0,0 0.9241057991224145,0.039793939618396626 l -1.68967460380984 32.689516378557954" fill="red" stroke="none" /><path d="M 103.2404852339499 79.25152402106235 l 6.155892175972522 -39.41551086360254 a60.89332657376381,60.89332657376381 0 0,0 1.0342319585670983,0.17065713480494576 l -6.833453340678496 39.30370746585797" fill="red" stroke="none" /><path d="M 105.01212808612495 79.60689891045804 l 10.350680054505046 -42.1143396716787 a64.36766287883472,64.36766287883472 0 0,0 1.0736866744083178,0.27370663993772987 l -11.07407561759839 41.929930035572106" fill="red" stroke="none" /><path d="M 105.36241919743992 79.69619591428918 l 4.0904915299255356 -15.48788626549706 a37.01894946397438,37.01894946397438 0 0,0 0.6146945627051735,0.1680192442089534 l -4.35648398185442 15.415180480461814" fill="red" stroke="none" /><path d="M 105.71112130821622 79.79150937346287 l 10.846985185933635 -38.38146427406059 a60.88475758287686,60.88475758287686 0 0,0 1.0060764987045723,0.2937013184059555 l -11.506051902361634 38.18906462673593" fill="red" stroke="none" /><path d="M 106.0581310904928 79.89281104454417 l 14.769882855563765 -49.02185525381404 a72.19855205074623,72.19855205074623 0 0,0 1.1868569636678177,0.36876223593525514 l -15.6115251919423 48.76035288299626" fill="red" stroke="none" /><path d="M 106.40334571778207 80.00007090966166 l 13.203530538077016 -41.23932802352629 a64.30144794925377,64.30144794925377 0 0,0 1.0512281731268522,0.34657340086260036 l -13.911441533446286 41.005940898404454" fill="red" stroke="none" /><path d="M 106.74666289553966 80.11325718540242 l 5.032780439622173 -14.834831945030484 a36.665283840094965,36.665283840094965 0 0,0 0.595929580988212,0.2079081294227313 l -5.287392024673658 14.746002962435544" fill="red" stroke="none" /><path d="M 108.09893153111575 80.62456947434976 l 7.823085366110634 -18.715511598654775 a41.2847489273305,41.2847489273305 0 0,0 0.6533139344809897,0.2797149316818213 l -8.14408305838194 18.578077139010162" fill="red" stroke="none" /><path d="M 108.76106565485865 80.91482961587045 l 8.458117574488044 -18.42522603954956 a41.27384293892894,41.27384293892894 0 0,0 0.643128605381704,0.30195750363981616 l -8.774024391169347 18.27690355326974" fill="red" stroke="none" /><line stroke="#e1ed5e" stroke-width="0.3" x1="143.23703022742887" x2="145.7803849466894" y1="26.81831364943548" y2="22.513508569990506" /><path d="M 143.74570117128098 25.957352633546492 a86.0,86.0 0 0,1 28.547481713284135,27.462654790039103" fill="none" id="id74" stroke="none" /><text fill="#e1ed5e" style="font-size:6.75px; font-family:Arial;" text-anchor="middle"><textPath startOffset="19.985693538727396" xlink:href="#id74">February</textPath></text><path d="M 110.68208982089419 81.91981866633111 l 26.04024388868533 -44.07492722627024 a72.19270955695968,72.19270955695968 0 0,0 1.0644572105412957,0.6413235590581099 l -26.79506316544426 43.62015705775352" fill="red" stroke="none" /><path d="M 116.38621287248628 86.86637796730983 l 15.816252356488315 -12.676796160298181 a41.269558443485465,41.269558443485465 0 0,0 0.43951277817021145,0.5581365950547371 l -16.03211921525249 12.402667171290405" fill="red" stroke="none" /><path d="M 116.60985879189232 87.15038557335679 l 21.918778207663035 -16.95666725409243 a48.712116528384016,48.712116528384016 0 0,0 0.5073577089221054,0.6676232731393359 l -22.207411856809255 16.576859205072058" fill="red" stroke="none" /><path d="M 117.04232023915458 87.72973835380427 l 19.367087180882397 -13.944065344350022 a44.86463962014517,44.86463962014517 0 0,0 0.4458421002748102,0.6306120327633876 l -19.60424190096109 13.608626811254842" fill="red" stroke="none" /><path d="M 117.2510076193507 88.02491185347247 l 19.61320091472356 -13.614845867085018 a44.87554560854673,44.87554560854673 0 0,0 0.435026817888906,0.6383481757621005 l -19.8446521982812 13.275219668052511" fill="red" stroke="none" /><line stroke="#e1ed5e" stroke-width="0.3" x1="172.23445277983987" x2="176.4835382374775" y1="55.19839476539836" y2="52.563006222186495" /><path d="M 173.08426987136738 54.67131705675599 a86.0,86.0 0 0,1 12.851231095245387,41.99856678651699" fill="none" id="id75" stroke="none" /><text fill="#e1ed5e" style="font-size:6.75px; font-family:Arial;" text-anchor="middle"><textPath startOffset="22.20632615414155" xlink:href="#id75">March</textPath></text><path d="M 117.84615892207809 88.93136811851018 l 53.538476766234254 -33.20589564446945 a84.0,84.0 0 0,0 0.7515368068551043,1.2353289071716742 l -54.10212937137558 32.279398964090696" fill="red" stroke="none" /><path d="M 118.03404312379186 89.2402003453031 l 21.27980517896914 -12.696345397700627 a45.779574147119554,45.779574147119554 0 0,0 0.39793420797261864,0.6801985536939364 l -21.495199061412087 12.328167431652796" fill="red" stroke="none" /><path d="M 118.21658344932153 89.55222093294921 l 14.230572534440256 -8.161677421624871 a37.404943553472734,37.404943553472734 0 0,0 0.31552380611359826,0.5612816439836897 l -14.368953981846287 7.915512267706387" fill="red" stroke="none" /><line stroke="#e1ed5e" stroke-width="0.3" x1="184.98032266829074" x2="189.97916517819016" y1="98.17113171792111" y2="98.06355123074" /><path d="M 185.9800911702706 98.14961562048488 a86.0,86.0 0 0,1 -9.607161424134198,41.387399972396054" fill="none" id="id76" stroke="none" /><text fill="#e1ed5e" style="font-size:6.75px; font-family:Arial;" text-anchor="middle"><textPath startOffset="21.466115282336823" xlink:href="#id76">April</textPath></text><line stroke="#e1ed5e" stroke-width="0.3" x1="174.80103733775053" x2="179.2010983576182" y1="140.37084112569926" y2="142.7455964860345" /><path d="M 175.68104954172406 140.8457921977663 a86.0,86.0 0 0,1 -30.038265399797805,32.042727171017184" fill="none" id="id77" stroke="none" /><text fill="#e1ed5e" style="font-size:6.75px; font-family:Arial;" text-anchor="middle"><textPath startOffset="22.206326154141568" xlink:href="#id77">May</textPath></text><line stroke="#e1ed5e" stroke-width="0.3" x1="143.8653032363475" x2="146.44561519142675" y1="172.8068346515853" y2="177.08958963109032" /><path d="M 144.38136562736335 173.6633856474863 a86.0,86.0 0 0,1 -40.68145358897372,12.25698825130547" fill="none" id="id78" stroke="none" /><text fill="#e1ed5e" style="font-size:6.75px; font-family:Arial;" text-anchor="middle"><textPath startOffset="21.466115282336833" xlink:href="#id78">June</textPath></text><line stroke="#e1ed5e" stroke-width="0.3" x1="102.19456741930631" x2="102.32365962044197" y1="184.97166512339345" y2="189.96999836594603" /><path d="M 102.22038585953345 185.97133177190398 a86.0,86.0 0 0,1 -42.740103519485714,-10.115201625700543" fill="none" id="id79" stroke="none" /><text fill="#e1ed5e" style="font-size:6.75px; font-family:Arial;" text-anchor="middle"><textPath startOffset="22.20632615414155" xlink:href="#id79">July</textPath></text><line stroke="#e1ed5e" stroke-width="0.3" x1="58.666819895761336" x2="56.23545636021788" y1="174.27360380694188" y2="178.64263932499728" /><path d="M 58.180547188652646 175.14741091055294 a86.0,86.0 0 0,1 -31.652253787137756,-30.449443065178592" fill="none" id="id80" stroke="none" /><text fill="#e1ed5e" style="font-size:6.75px; font-family:Arial;" text-anchor="middle"><textPath startOffset="22.20632615414155" xlink:href="#id80">August</textPath></text><line stroke="#e1ed5e" stroke-width="0.3" x1="26.63291911575756" x2="22.317208475507996" y1="142.92168965132927" y2="145.44649492493687" /><path d="M 25.769776987707644 143.4266507060508 a86.0,86.0 0 0,1 -11.730757126820373,-40.83630448921669" fill="none" id="id81" stroke="none" /><text fill="#e1ed5e" style="font-size:6.75px; font-family:Arial;" text-anchor="middle"><textPath startOffset="21.46611528233685" xlink:href="#id81">September</textPath></text><line stroke="#e1ed5e" stroke-width="0.3" x1="15.007084014347285" x2="10.007500721073583" y1="101.09737516637583" y2="101.16192664675087" /><path d="M 14.007167355692545 101.11028546245083 a86.0,86.0 0 0,1 10.666146001902534,-42.60595125391555" fill="none" id="id82" stroke="none" /><text fill="#e1ed5e" style="font-size:6.75px; font-family:Arial;" text-anchor="middle"><textPath startOffset="22.20632615414155" xlink:href="#id82">October</textPath></text><line stroke="#e1ed5e" stroke-width="0.3" x1="26.266209847984243" x2="21.928928074336255" y1="57.711370442889674" y2="55.22380399835377" /><path d="M 25.398753493254645 57.213857153982495 a86.0,86.0 0 0,1 29.58750427330803,-30.492523968695096" fill="none" id="id83" stroke="none" /><text fill="#e1ed5e" style="font-size:6.75px; font-family:Arial;" text-anchor="middle"><textPath startOffset="21.46611528233685" xlink:href="#id83">November</textPath></text><line stroke="#e1ed5e" stroke-width="0.3" x1="56.762969772571076" x2="54.21961505331055" y1="26.818313649435495" y2="22.513508569990535" /><path d="M 56.25429882871897 25.957352633546506 a86.0,86.0 0 0,1 42.265352541879196,-11.944610805530505" fill="none" id="id84" stroke="none" /><text fill="#e1ed5e" style="font-size:6.75px; font-family:Arial;" text-anchor="middle"><textPath startOffset="22.20632615414155" xlink:href="#id84">December</textPath></text></svg>