<?xml version="1.0" encoding="utf-8" ?>
<svg baseProfile="full" height="200mm" version="1.1" viewBox="0,0,200,200" width="200mm" xmlns="http://www.w3.org/2000/svg" xmlns:ev="http://www.w3.org/2001/xml-events" xmlns:xlink="http://www.w3.org/1999/xlink"><defs /><rect fill="#1a1a1a" height="200" width="200" x="0" y="0" /><text alignment-baseline="middle" fill="#e1ed5e" style="dominant-baseline: central; font-size:9.0px; font-family:Arial;" text-anchor="middle" x="100.0" y="100.0">2021</text><line stroke="#e1ed5e" stroke-width="0.3" x1="100.0" x2="100.0" y1="15.0" y2="10.0" /><path d="M 100.0 14.0 a86.0,86.0 0 0,1 42.46469731375804,11.215312516191453" fill="none" id="id13" stroke="none" /><text fill="#e1ed5e" style="font-size:6.75px; font-family:Arial;" text-anchor="middle"><textPath startOffset="22.20632615414155" xlink:href="#id13">January</textPath></text><path d="M 100.0 79.0 l 0.0 -47.14284426955828 a68.14284426955828,68.14284426955828 0 0,0 1.1729670478834853,0.010096097700046353 l -0.8114865686109569 47.1358595484668" fill="red" stroke="none" /><path d="M 100.36148047927253 79.00311137660856 l 0.8250781217079755 -47.9253360014452 a68.9324377093252,68.9324377093252 0 0,0 1.1862069980590013,0.030636227108332307 l -1.6499117549618445 47.90403298219451" fill="red" stroke="none" /><path d="M 101.08401301168833 79.027996857942 l 3.2520390350649873 -62.916009426173986 a84.0,84.0 0 0,0 1.4433518046415523,0.08706692247878367 l -4.334552888546152 62.8507092343149" fill="red" stroke="none" /><path d="M 101.80526077348638 79.07773832637324 l 4.08686876066667 -47.36520002664539 a68.5411891924365,68.5411891924365 0 0,0 1.174583416652934,0.11154084852065092 l -4.901577304409848 47.287833633609566" fill="red" stroke="none" /><path d="M 102.88285421437855 79.19881850522331 l 6.698437307198316 -48.33245103531919 a69.79441449018518,69.79441449018518 0 0,0 1.1886022673576155,0.17516907706611204 l -7.529408554984587 48.20998747409211" fill="red" stroke="none" /><path d="M 103.2404852339499 79.25152402106235 l 7.3467562100464825 -47.04048429236476 a68.61073397113378,68.61073397113378 0 0,0 1.165306902518035,0.19228562365030805 l -8.155392318703392 46.90705240577483" fill="red" stroke="none" /><path d="M 103.95276090670814 79.375362276772 l 8.988682667137827 -46.900970737733935 a68.75455446585465,68.75455446585465 0 0,0 1.1604249335629027,0.23277032496173214 l -9.794674010167855 46.739296456694994" fill="red" stroke="none" /><path d="M 104.307194497241 79.44645832069477 l 10.726391150335195 -51.18536618631115 a73.29720048661069,73.29720048661069 0 0,0 1.2326399833821018,0.2694073573774826 l -11.605873857870824 50.99314533083779" fill="red" stroke="none" /><line stroke="#e1ed5e" stroke-width="0.3" x1="143.23703022742887" x2="145.7803849466894" y1="26.81831364943548" y2="22.513508569990506" /><path d="M 143.74570117128098 25.957352633546492 a86.0,86.0 0 0,1 28.547481713284135,27.462654790039103" fill="none" id="id14" stroke="none" /><text fill="#e1ed5e" style="font-size:6.75px; font-family:Arial;" text-anchor="middle"><textPath startOffset="19.985693538727396" xlink:href="#id14">February</textPath></text><line stroke="#e1ed5e" stroke-width="0.3" x1="172.23445277983987" x2="176.4835382374775" y1="55.19839476539836" y2="52.563006222186495" /><path d="M 173.08426987136738 54.67131705675599 a86.0,86.0 0 0,1 12.851231095245387,41.99856678651699" fill="none" id="id15" stroke="none" /><text fill="#e1ed5e" style="font-size:6.75px; font-family:Arial;" text-anchor="middle"><textPath startOffset="22.20632615414155" xlink:href="#id15">March</textPath></text><path d="M 118.89224826269711 90.83032412892265 l 21.313258254759088 -10.344754485287684 a44.69111484913566,44.69111484913566 0 0,0 0.32995196025883344,0.6949629765459484 l -21.48816840885968 9.976349093101195" fill="red" stroke="none" /><path d="M 119.7369772167798 92.82701384747503 l 9.094222136614391 -3.305102333424294 a30.676186113572534,30.676186113572534 0 0,0 0.17609141564267003,0.49783414474687837 l -9.149766633066871 3.148070562250801" fill="red" stroke="none" /><path d="M 119.97218684219823 93.5106431181261 l 23.515605480092088 -7.64068338932439 a45.725770842407215,45.725770842407215 0 0,0 0.23678222998016363,0.7506643756163611 l -23.64364319384046 7.23476884728161" fill="red" stroke="none" /><line stroke="#e1ed5e" stroke-width="0.3" x1="184.98032266829074" x2="189.97916517819016" y1="98.17113171792111" y2="98.06355123074" /><path d="M 185.9800911702706 98.14961562048488 a86.0,86.0 0 0,1 -9.607161424134198,41.387399972396054" fill="none" id="id16" stroke="none" /><text fill="#e1ed5e" style="font-size:6.75px; font-family:Arial;" text-anchor="middle"><textPath startOffset="21.466115282336823" xlink:href="#id16">April</textPath></text><path d="M 120.9904718944345 100.63252640178507 l 26.824538741503655 0.808330039221571 a47.83671507742217,47.83671507742217 0 0,0 -0.03188628488040955,0.8228433292415731 l -26.80665032377204 -1.2699506154771503" fill="red" stroke="none" /><path d="M 120.32669344350535 105.2749913415812 l 27.790112603953165 7.211827333100161 a49.71063935238725,49.71063935238725 0 0,0 -0.2220690811394094,0.8264016626456562 l -27.66185544647198 -7.689119928921365" fill="red" stroke="none" /><path d="M 119.54520255179757 107.68017299344265 l 44.515436843825675 17.492080470038854 a68.82883018187825,68.82883018187825 0 0,0 -0.44279023910922066,1.0989690605058768 l -44.207743990459065 -18.255748898387544" fill="red" stroke="none" /><path d="M 118.64920377521936 109.65438752849418 l 22.947318256883268 11.879451040479333 a46.83990658276136,46.83990658276136 0 0,0 -0.37683260629227866,0.7128252780294603 l -22.739433142366096 -12.272691333594928" fill="red" stroke="none" /><line stroke="#e1ed5e" stroke-width="0.3" x1="174.80103733775053" x2="179.2010983576182" y1="140.37084112569926" y2="142.7455964860345" /><path d="M 175.68104954172406 140.8457921977663 a86.0,86.0 0 0,1 -30.038265399797805,32.042727171017184" fill="none" id="id17" stroke="none" /><text fill="#e1ed5e" style="font-size:6.75px; font-family:Arial;" text-anchor="middle"><textPath startOffset="22.206326154141568" xlink:href="#id17">May</textPath></text><path d="M 115.56566222782051 114.09645910891815 l 18.559076793041786 16.80733291544749 a46.0384857996786,46.0384857996786 0 0,0 -0.5370139270032961,0.5828225562233867 l -18.267016458042768 -17.124306726472213" fill="red" stroke="none" /><line stroke="#e1ed5e" stroke-width="0.3" x1="143.8653032363475" x2="146.44561519142675" y1="172.8068346515853" y2="177.08958963109032" /><path d="M 144.38136562736335 173.6633856474863 a86.0,86.0 0 0,1 -40.68145358897372,12.25698825130547" fill="none" id="id18" stroke="none" /><text fill="#e1ed5e" style="font-size:6.75px; font-family:Arial;" text-anchor="middle"><textPath startOffset="21.466115282336833" xlink:href="#id18">June</textPath></text><path d="M 105.18746579009965 120.34920634021253 l 6.0996333023848734 23.92742462162382 a45.692654281122806,45.692654281122806 0 0,0 -0.7638217236548673,0.18772879598415848 l -5.686858293986795 -24.028874675922008" fill="red" stroke="none" /><path d="M 104.13013068566511 120.58985236759428 l 5.243813852996577 26.14187329497495 a47.662616583812685,47.662616583812685 0 0,0 -0.8057986886431077,0.15443323649549429 l -4.793047549781765 -26.22826372981891" fill="red" stroke="none" /><line stroke="#e1ed5e" stroke-width="0.3" x1="102.19456741930631" x2="102.32365962044197" y1="184.97166512339345" y2="189.96999836594603" /><path d="M 102.22038585953345 185.97133177190398 a86.0,86.0 0 0,1 -42.740103519485714,-10.115201625700543" fill="none" id="id19" stroke="none" /><text fill="#e1ed5e" style="font-size:6.75px; font-family:Arial;" text-anchor="middle"><textPath startOffset="22.20632615414155" xlink:href="#id19">July</textPath></text><path d="M 100.54218724476979 120.99299961872073 l 0.573790337104949 22.216642763671477 a43.22405118423622,43.22405118423622 0 0,0 -0.7439483078155015,0.012807744789555984 l -0.1912823393967795 -22.22322798574019" fill="red" stroke="none" /><path d="M 99.09653310690486 120.98055641714683 l -1.067075502852802 24.779920504072134 a45.80288512082663,45.80288512082663 0 0,0 -0.7873994299859376,-0.040699556533490125 l 1.4934630012522285 -24.75788114077644" fill="red" stroke="none" /><path d="M 95.51606077576429 120.51570834832081 l -3.615947504710097 16.54431978214766 a37.93486325338299,37.93486325338299 0 0,0 -0.6367273777311725,-0.14491707816524593 l 3.900195031834132 -16.47962597040473" fill="red" stroke="none" /><line stroke="#e1ed5e" stroke-width="0.3" x1="58.666819895761336" x2="56.23545636021788" y1="174.27360380694188" y2="178.64263932499728" /><path d="M 58.180547188652646 175.14741091055294 a86.0,86.0 0 0,1 -31.652253787137756,-30.449443065178592" fill="none" id="id20" stroke="none" /><text fill="#e1ed5e" style="font-size:6.75px; font-family:Arial;" text-anchor="middle"><textPath startOffset="22.20632615414155" xlink:href="#id20">August</textPath></text><path d="M 87.07902340077011 116.55440617244103 l -11.761090785529731 15.068355893951324 a40.11487917336257,40.11487917336257 0 0,0 -0.540676951455656,-0.4295464699938638 l 12.018725229702746 -14.86367550995233" fill="red" stroke="none" /><path d="M 86.24171649860922 115.8653595955263 l -6.299741198934433 7.264544263079284 a30.615630115795323,30.615630115795323 0 0,0 -0.39517146016522353,-0.34869286779798203 l 6.4238550120062445 -7.155028253509013" fill="red" stroke="none" /><line stroke="#e1ed5e" stroke-width="0.3" x1="26.63291911575756" x2="22.317208475507996" y1="142.92168965132927" y2="145.44649492493687" /><path d="M 25.769776987707644 143.4266507060508 a86.0,86.0 0 0,1 -11.730757126820373,-40.83630448921669" fill="none" id="id21" stroke="none" /><text fill="#e1ed5e" style="font-size:6.75px; font-family:Arial;" text-anchor="middle"><textPath startOffset="21.46611528233685" xlink:href="#id21">September</textPath></text><line stroke="#e1ed5e" stroke-width="0.3" x1="15.007084014347285" x2="10.007500721073583" y1="101.09737516637583" y2="101.16192664675087" /><path d="M 14.007167355692545 101.11028546245083 a86.0,86.0 0 0,1 10.666146001902534,-42.60595125391555" fill="none" id="id22" stroke="none" /><text fill="#e1ed5e" style="font-size:6.75px; font-family:Arial;" text-anchor="middle"><textPath startOffset="22.20632615414155" xlink:href="#id22">October</textPath></text><path d="M 79.26566170972629 96.67025291283419 l -9.444006387953847 -1.5166219592460168 a30.565009086403435,30.565009086403435 0 0,0 0.08789352387358915,-0.5187525532690493 l 9.416501002560034 1.6789603008308942" fill="red" stroke="none" /><path d="M 79.62865764111835 94.90015583598534 l -23.970433505851663 -6.000855185197032 a45.71015874923029,45.71015874923029 0 0,0 0.19765000405812733,-0.7616260921468835 l 23.86358716992323 6.412577702892779" fill="red" stroke="none" /><path d="M 79.71946130924805 94.55025226153421 l -46.47348049530452 -12.488265183183312 a69.12214829611162,69.12214829611162 0 0,0 0.31866373342559473,-1.1464029969016798 l 46.25162999131256 13.286379483503936" fill="red" stroke="none" /><path d="M 79.91906864156998 93.8553929516997 l -24.211391016591687 -7.408495215399968 a46.31950347686346,46.31950347686346 0 0,0 0.2398567617946913,-0.7604114816599902 l 24.08027877102879 7.8241568634863725" fill="red" stroke="none" /><path d="M 80.52162464483688 92.15188598940014 l -22.16669715391463 -8.931277035702466 a44.89832990402955,44.89832990402955 0 0,0 0.2949998010373758,-0.7143654173863244 l 22.009675665991054 9.311517023542102" fill="red" stroke="none" /><line stroke="#e1ed5e" stroke-width="0.3" x1="26.266209847984243" x2="21.928928074336255" y1="57.711370442889674" y2="55.22380399835377" /><path d="M 25.398753493254645 57.213857153982495 a86.0,86.0 0 0,1 29.58750427330803,-30.492523968695096" fill="none" id="id23" stroke="none" /><text fill="#e1ed5e" style="font-size:6.75px; font-family:Arial;" text-anchor="middle"><textPath startOffset="21.46611528233685" xlink:href="#id23">November</textPath></text><path d="M 81.96595687620814 89.24020034530311 l -17.09527506787575 -10.199694738979977 a40.90683808179265,40.90683808179265 0 0,0 0.36598802941107583,-0.6015880902789367 l 16.917171240178458 10.492450602465988" fill="red" stroke="none" /><path d="M 82.34701348167596 88.62581576622439 l -16.066728489410767 -10.35212538586128 a40.11298679843203,40.11298679843203 0 0,0 0.3789786450786782,-0.5772104766851656 l 15.88615320897417 10.627153926524112" fill="red" stroke="none" /><path d="M 82.7489923806493 88.02491185347247 l -20.36177497711071 -14.134481622809496 a45.78679993391707,45.78679993391707 0 0,0 0.45500606313205305,-0.6435738083382211 l 20.115456294174777 14.482881931479502" fill="red" stroke="none" /><path d="M 84.31358615837235 86.03803664274999 l -23.960400506661724 -21.326367981652954 a53.0767012600814,53.0767012600814 0 0,0 0.6133047188514824,-0.6772263887412026 l 23.589752147194197 21.73564715766371" fill="red" stroke="none" /><path d="M 85.31137513191541 84.99185889309783 l -18.787047480452237 -19.19571519464272 a47.85942357658861,47.85942357658861 0 0,0 0.5937229425119893,-0.5711610002904568 l 18.45384129432782 19.51625928169549" fill="red" stroke="none" /><path d="M 85.83668400450813 84.49514656593479 l -32.681261902548435 -35.776803680762285 a69.45662556508418,69.45662556508418 0 0,0 0.8896699578889714,-0.798754472452804 l 32.06058095706349 36.33405716198436" fill="red" stroke="none" /><line stroke="#e1ed5e" stroke-width="0.3" x1="56.762969772571076" x2="54.21961505331055" y1="26.818313649435495" y2="22.513508569990535" /><path d="M 56.25429882871897 25.957352633546506 a86.0,86.0 0 0,1 42.265352541879196,-11.944610805530505" fill="none" id="id24" stroke="none" /><text fill="#e1ed5e" style="font-size:6.75px; font-family:Arial;" text-anchor="middle"><textPath startOffset="22.20632615414155" xlink:href="#id24">December</textPath></text><path d="M 90.58718382345135 81.22770947309562 l -14.123465354670163 -28.166893936066554 a52.509461874652686,52.509461874652686 0 0,0 0.8114680539116846,-0.3981838498873969 l 13.636526033748053 28.405832946088783" fill="red" stroke="none" /><path d="M 91.23893434514133 80.91482961587045 l -7.980526456195026 -17.38483800621542 a40.129071985341604,40.129071985341604 0 0,0 0.6302516909571276,-0.28277556233663187 l 7.680092646771124 17.519633899068584" fill="red" stroke="none" /><path d="M 91.90106846888425 80.62456947434976 l -18.430685804537006 -44.09254121656937 a68.7895634020696,68.7895634020696 0 0,0 1.0964274511735952,-0.44726028698748715 l 17.668974483775028 44.40326238974043" fill="red" stroke="none" /><path d="M 92.91201910852362 80.23233633223022 l -15.98572131835286 -44.5825641104509 a68.36188666776806,68.36188666776806 0 0,0 1.1111020074235909,-0.3876416733302812 l 15.215937306865985 44.851126636953396" fill="red" stroke="none" /><path d="M 93.59665428221793 80.00007090966166 l -7.509118498567838 -23.4536512818994 a45.62642115855398,45.62642115855398 0 0,0 0.7500432368949301,-0.23304208472664745 l 7.104289888962178 23.579433501508575" fill="red" stroke="none" /><path d="M 94.28887869178378 79.79150937346287 l -12.939893140844447 -45.787104691498975 a68.58045597224516,68.58045597224516 0 0,0 1.138769035977212,-0.31126859478212365 l 12.149826215643513 46.00305982710739" fill="red" stroke="none" /><path d="M 94.98787191387505 79.60689891045804 l -8.029356476976371 -32.66945207809791 a54.641695327636185,54.641695327636185 0 0,0 0.9153168628796375,-0.2166259287418468 l 7.4658159271342 32.80282391898063" fill="red" stroke="none" /><path d="M 97.47563105711357 79.15227682838746 l -4.047926429848 -33.430156818531955 a54.67433879518796,54.67433879518796 0 0,0 0.9352782361343754,-0.10508940738539184 l 3.4718814902039066 33.49488217938795" fill="red" stroke="none" /></svg>