<?xml version="1.0" encoding="utf-8" ?>
<svg baseProfile="full" height="200mm" version="1.1" viewBox="0,0,200,200" width="200mm" xmlns="http://www.w3.org/2000/svg" xmlns:ev="http://www.w3.org/2001/xml-events" xmlns:xlink="http://www.w3.org/1999/xlink"><defs /><rect fill="#1a1a1a" height="200" width="200" x="0" y="0" /><text alignment-baseline="middle" fill="#e1ed5e" style="dominant-baseline: central; font-size:9.0px; font-family:Arial;" text-anchor="middle" x="100.0" y="100.0">2023</text><line stroke="#e1ed5e" stroke-width="0.3" x1="100.0" x2="100.0" y1="15.0" y2="10.0" /><path d="M 100.0 14.0 a86.0,86.0 0 0,1 42.46469731375804,11.215312516191453" fill="none" id="id37" stroke="none" /><text fill="#e1ed5e" style="font-size:6.75px; font-family:Arial;" text-anchor="middle"><textPath startOffset="22.20632615414155" xlink:href="#id37">January</textPath></text><path d="M 100.36148047927253 79.00311137660856 l 0.5258682017016936 -30.54548362869989 a51.550009942334455,51.550009942334455 0 0,0 0.8870857404094963,0.02291080751691593 l -1.0515805773060576 30.531906029040616" fill="#bcff1f" stroke="none" /><path d="M 109.73455568895987 81.39251694778311 l 7.1943850058139605 -13.751978143042551 a36.520182938954065,36.520182938954065 0 0,0 0.5545067253227506,0.29619828888340805 l -7.4300367776650225 13.62610112765739" fill="#ff6909" stroke="none" /><path d="M 110.05341064243156 81.56283822128135 l 8.65462061525689 -15.871891250861255 a39.07814674885663,39.07814674885663 0 0,0 0.5878021524605609,0.32711126144441477 l -8.926546856789487 15.72056459185666" fill="#ff910d" stroke="none" /><line stroke="#e1ed5e" stroke-width="0.3" x1="143.23703022742887" x2="145.7803849466894" y1="26.81831364943548" y2="22.513508569990506" /><path d="M 143.74570117128098 25.957352633546492 a86.0,86.0 0 0,1 28.547481713284135,27.462654790039103" fill="none" id="id38" stroke="none" /><text fill="#e1ed5e" style="font-size:6.75px; font-family:Arial;" text-anchor="middle"><textPath startOffset="19.985693538727396" xlink:href="#id38">February</textPath></text><path d="M 110.68208982089419 81.91981866633111 l 8.431304341063422 -14.270570077739306 a37.575164048518594,37.575164048518594 0 0,0 0.5540331503579338,0.3337987739714245 l -8.675699557638993 14.123324694309266" fill="#ff7a0b" stroke="none" /><path d="M 111.2981086023043 82.29822771554956 l 11.409475351871079 -17.876260679834477 a42.20699940345993,42.20699940345993 0 0,0 0.6090529791405512,0.3961449995438148 l -11.71549535679591 17.677216756131134" fill="#ffc011" stroke="none" /><path d="M 111.60114157652 82.49532879139004 l 17.943986559143102 -27.075230727745154 a53.481606681248756,53.481606681248756 0 0,0 0.7629922998713264,0.5151758067973561 l -18.40738355342097 26.76234300864913" fill="#a3ff21" stroke="none" /><path d="M 113.89432698308785 84.25364557470407 l 19.811937540637942 -22.452745695882598 a50.94392523364486,50.94392523364486 0 0,0 0.6525407684086597,0.5858575448146683 l -20.19548929664259 22.10838914229863" fill="#c4ff1e" stroke="none" /><path d="M 114.42810811169701 84.74124197986012 l 12.918204118188166 -13.661926370956703 a39.80234639093259,39.80234639093259 0 0,0 0.49377038944670143,0.47500672343395994 l -13.151457751247285 13.43753656076044" fill="#ff9c0e" stroke="none" /><path d="M 114.94478906791727 85.2469230424477 l 13.12057639783686 -12.952265331082899 a39.43666732948896,39.43666732948896 0 0,0 0.4727437374897356,0.4872039768308806 l -13.341584399029706 12.724497158701904" fill="#ff960d" stroke="none" /><path d="M 115.19652480421416 85.50635884689758 l 11.409804479737078 -10.88206770211771 a36.76715052694372,36.76715052694372 0 0,0 0.4328590994424477,0.46174390705729534 l -11.595430901149989 10.684054378182362" fill="#ff6d0a" stroke="none" /><path d="M 115.68641384162765 86.03803664274999 l 15.849502994996287 -14.107123672812712 a42.218333664744485,42.218333664744485 0 0,0 0.47849080563783,0.5469977063433509 l -16.089985664211966 13.832210410266413" fill="#ffc011" stroke="none" /><path d="M 116.60985879189232 87.15038557335679 l 24.196189916666928 -18.71850416782387 a51.5914694770332,51.5914694770332 0 0,0 0.5373474120866873,0.7070862071504346 l -24.51481326897773 18.2992331847924" fill="#bcff1f" stroke="none" /><path d="M 117.04232023915458 87.72973835380427 l 27.637431439734584 -19.898611822539145 a55.05557764963214,55.05557764963214 0 0,0 0.5471144888040776,0.7738546443379347 l -27.975858548342543 19.419930677869417" fill="#90ff24" stroke="none" /><path d="M 117.2510076193507 88.02491185347247 l 27.513747359380016 -19.099148127456793 a54.49304036587791,54.49304036587791 0 0,0 0.5282595147532798,0.7751556541000277 l -27.838431339802028 18.62271445008636" fill="#97ff23" stroke="none" /><path d="M 117.65298651832404 88.62581576622439 l 25.709734747073103 -16.565313711148445 a51.584310996221916,51.584310996221916 0 0,0 0.4745078738636366,0.7505575031398831 l -25.991070217182696 16.120308560294358" fill="#bcff1f" stroke="none" /><line stroke="#e1ed5e" stroke-width="0.3" x1="172.23445277983987" x2="176.4835382374775" y1="55.19839476539836" y2="52.563006222186495" /><path d="M 173.08426987136738 54.67131705675599 a86.0,86.0 0 0,1 12.851231095245387,41.99856678651699" fill="none" id="id39" stroke="none" /><text fill="#e1ed5e" style="font-size:6.75px; font-family:Arial;" text-anchor="middle"><textPath startOffset="22.20632615414155" xlink:href="#id39">March</textPath></text><path d="M 117.84615892207809 88.93136811851018 l 25.979663843414922 -16.11323404342552 a51.57088884470073,51.57088884470073 0 0,0 0.46139787058364173,0.7584167828380481 l -26.253177512284786 15.663649487380392" fill="#bcff1f" stroke="none" /><path d="M 118.03404312379186 89.2402003453031 l 25.66584034098043 -15.313221674293157 a50.88695565718831,50.88695565718831 0 0,0 0.44232959289891305,0.7560846575084366 l -25.925629608349674 14.869157604430825" fill="#c5ff1e" stroke="none" /><path d="M 118.21658344932153 89.55222093294921 l 18.406237110491784 -10.55655135998248 a42.21863193477829,42.21863193477829 0 0,0 0.3561289543968209,0.6335136719353407 l -18.58522370618104 10.238154178112346" fill="#ffc011" stroke="none" /><path d="M 118.56541770881063 90.18545643968196 l 27.010117054387162 -14.278804525565123 a51.55209783257109,51.55209783257109 0 0,0 0.4079748743133394,0.7880776013789845 l -27.251901361860618 13.811754201925792" fill="#bcff1f" stroke="none" /><path d="M 119.04729006885535 91.15688171328212 l 27.729841662041217 -12.874181524139745 a51.57267846490356,51.57267846490356 0 0,0 0.36689707955480394,0.8084090807481507 l -27.947341058559367 12.394950434549532" fill="#bcff1f" stroke="none" /><path d="M 119.34039704204932 91.81776055985345 l 21.43332214876429 -9.06768219068594 a44.272519387552194,44.272519387552194 0 0,0 0.2908879782091701,0.7044083122609687 l -21.586231813859655 8.697399307971667" fill="#ffde14" stroke="none" /><path d="M 119.61058180528143 92.48833698450437 l 14.505023124333663 -5.556023111594903 a36.532710280373834,36.532710280373834 0 0,0 0.21988414043041696,0.5891801768368208 l -14.598511853265705 5.305519797728749" fill="#ff6909" stroke="none" /><path d="M 119.7369772167798 92.82701384747503 l 23.372027973391216 -8.494068325064113 a45.867667528335645,45.867667528335645 0 0,0 0.26329552433241904,0.744371903044366 l -23.514776578533446 8.090498795593133" fill="#fff417" stroke="none" /><path d="M 119.85752413597 93.16781622104841 l 20.079492029260457 -6.908554097305627 a42.2347385166037,42.2347385166037 0 0,0 0.2306071150074018,0.6894859216445084 l -20.19543643803963 6.561895072738805" fill="#ffc011" stroke="none" /><path d="M 119.97218684219823 93.5106431181261 l 29.05535337185745 -9.440656591523675 a51.550606482402074,51.550606482402074 0 0,0 0.2669450363516375,0.8462887145440606 l -29.213553891977295 8.939117710553194" fill="#bcff1f" stroke="none" /><path d="M 120.18372546131832 94.20196356495316 l 31.70810922896591 -9.108564865704505 a53.990455358918275,53.990455358918275 0 0,0 0.24890430199473743,0.8954412059416624 l -31.86020030152701 8.561412356343892" fill="#9dff22" stroke="none" /><path d="M 120.37134235888165 94.90015583598534 l 29.0145366739189 -7.263616354842781 a50.90992244979121,50.90992244979121 0 0,0 0.20549959833369735,0.8519285049490942 l -29.135269072513417 6.763102618234281" fill="#c5ff1e" stroke="none" /><line stroke="#e1ed5e" stroke-width="0.3" x1="184.98032266829074" x2="189.97916517819016" y1="98.17113171792111" y2="98.06355123074" /><path d="M 185.9800911702706 98.14961562048488 a86.0,86.0 0 0,1 -9.607161424134198,41.387399972396054" fill="none" id="id40" stroke="none" /><text fill="#e1ed5e" style="font-size:6.75px; font-family:Arial;" text-anchor="middle"><textPath startOffset="21.466115282336823" xlink:href="#id40">April</textPath></text><path d="M 120.99513854157772 99.54816195383933 l 15.065113756221145 -0.32421751117854897 a36.06860210777491,36.06860210777491 0 0,0 0.008015805205282635,0.6208329468764094 l -15.068462568544144 0.06484830624167673" fill="#ff6209" stroke="none" /><path d="M 120.89721153311464 102.0752229133903 l 21.51873187158498 2.136943743726341 a42.624577450785445,42.624577450785445 0 0,0 -0.07878990457760247,0.7294966625675653 l -21.478759665506324 -2.5070367281786976" fill="#ffc612" stroke="none" /><path d="M 120.8583938346157 102.4346265915055 l 15.413157935967343 1.7990495561410338 a36.51779677868364,36.51779677868364 0 0,0 -0.0782497971748131,0.6237278741454658 l -15.379906629545681 -2.0640951845738944" fill="#ff6909" stroke="none" /><path d="M 120.64145759157962 103.86396538481128 l 30.292275717870258 5.670544547627202 a51.818452972758,51.818452972758 0 0,0 -0.1716672974481986,0.8753278512695782 l -30.190178487446396 -6.191136125964725" fill="#b9ff1f" stroke="none" /><path d="M 120.5718875245553 104.21870165774334 l 29.940064353409245 6.139844920399456 a51.56313382382183,51.56313382382183 0 0,0 -0.18578924224569818,0.8679454873483679 l -29.829941072439105 -6.654304227163993" fill="#bcff1f" stroke="none" /><path d="M 120.49622156327973 104.57218783832717 l 15.153393475462321 3.3803382318047337 a36.525850069596345,36.525850069596345 0 0,0 -0.1421715387425849,0.6124712679281893 l -15.092961370789185 -3.640678157081488" fill="#ff6909" stroke="none" /><line stroke="#e1ed5e" stroke-width="0.3" x1="174.80103733775053" x2="179.2010983576182" y1="140.37084112569926" y2="142.7455964860345" /><path d="M 175.68104954172406 140.8457921977663 a86.0,86.0 0 0,1 -30.038265399797805,32.042727171017184" fill="none" id="id41" stroke="none" /><text fill="#e1ed5e" style="font-size:6.75px; font-family:Arial;" text-anchor="middle"><textPath startOffset="22.206326154141568" xlink:href="#id41">May</textPath></text><path d="M 116.93607887273984 112.41649034213515 l 17.347176773394793 12.717882013224383 a42.50974348777093,42.50974348777093 0 0,0 -0.43772633737676886,0.5864059611319052 l -17.125689169322932 -13.014600853865602" fill="#ffc412" stroke="none" /><line stroke="#e1ed5e" stroke-width="0.3" x1="143.8653032363475" x2="146.44561519142675" y1="172.8068346515853" y2="177.08958963109032" /><path d="M 144.38136562736335 173.6633856474863 a86.0,86.0 0 0,1 -40.68145358897372,12.25698825130547" fill="none" id="id42" stroke="none" /><text fill="#e1ed5e" style="font-size:6.75px; font-family:Arial;" text-anchor="middle"><textPath startOffset="21.466115282336833" xlink:href="#id42">June</textPath></text><path d="M 110.8373102113329 117.98757091392108 l 10.94798296709163 18.17126354646815 a42.21445615430503,42.21445615430503 0 0,0 -0.625642622013494,0.3696406889284058 l -10.633572474049753 -18.357022807690306" fill="#ffc011" stroke="none" /><path d="M 110.5260780823613 118.17145234162733 l 10.631180387447506 18.35289328410615 a42.20968383376417,42.20968383376417 0 0,0 -0.6318412457623854,0.35877594938745494 l -10.31369037476392 -18.533172399288233" fill="#ffc011" stroke="none" /><path d="M 108.2653958097858 119.30500536409082 l 8.350625440185262 19.504071266064084 a42.216544044541656,42.216544044541656 0 0,0 -0.6704963009636727,0.28026750818167534 l -8.013657679724128 -19.644923817265735" fill="#ffc011" stroke="none" /><path d="M 106.2309692047433 120.05430185196036 l 4.602293718635714 14.812428759019037 a36.51093656790614,36.51093656790614 0 0,0 -0.6017785167989084,0.1813109306470647 l -4.34664022739656 -14.889455058771826" fill="#ff6909" stroke="none" /><path d="M 105.53697534728816 120.25689768951611 l 4.405845664874079 16.118685612870507 a37.70998210379797,37.70998210379797 0 0,0 -0.6276190069849897,0.16575988408512315 l -4.127736215077592 -16.192136846259213" fill="#ff7c0b" stroke="none" /><path d="M 104.48393922423573 120.51570834832081 l 3.312355183542599 15.155270732553555 a36.51302445814277,36.51302445814277 0 0,0 -0.615172372491851,0.12891535186461003 l -3.05099134962137 -15.210042065144707" fill="#ff6909" stroke="none" /><path d="M 103.06178313531738 120.77559828337769 l 3.092833232732606 20.98628738905521 a42.21296480413601,42.21296480413601 0 0,0 -0.7197740846475106,0.09975412953574876 l -2.7311305568982647 -21.036416084083562" fill="#ffc011" stroke="none" /><path d="M 102.70371172650421 120.8252237178851 l 2.008909347905216 15.473538169385034 a36.603400278385365,36.603400278385365 0 0,0 -0.6255217420469514,0.07574197171197994 l -1.7422601828068842 -15.505825669822364" fill="#ff6b09" stroke="none" /><line stroke="#e1ed5e" stroke-width="0.3" x1="102.19456741930631" x2="102.32365962044197" y1="184.97166512339345" y2="189.96999836594603" /><path d="M 102.22038585953345 185.97133177190398 a86.0,86.0 0 0,1 -42.740103519485714,-10.115201625700543" fill="none" id="id43" stroke="none" /><text fill="#e1ed5e" style="font-size:6.75px; font-family:Arial;" text-anchor="middle"><textPath startOffset="22.20632615414155" xlink:href="#id43">July</textPath></text><path d="M 100.54218724476979 120.99299961872073 l 0.8090222876819526 31.32461108349183 a52.335056671306425,52.335056671306425 0 0,0 -0.9007618625124663,0.015507432344460526 l -0.2697007352768184 -31.33389599311545" fill="#b2ff20" stroke="none" /><path d="M 99.09653310690486 120.98055641714683 l -0.9126291145204406 21.19332404038693 a42.21296480413601,42.21296480413601 0 0,0 -0.7256849505683118,-0.037509622875502295 l 1.2773021335022414 -21.174474610749225" fill="#ffc011" stroke="none" /><path d="M 98.37488393609728 120.93702456842531 l -2.364873254085632 30.46761429648064 a51.559256313382384,51.559256313382384 0 0,0 -0.8842551968707122,-0.07629725913782866 l 2.888972768697886 -30.422392785064147" fill="#bcff1f" stroke="none" /><path d="M 97.65516085044442 120.86867818915974 l -3.333983863668029 29.671901525495347 a50.85862000397694,50.85862000397694 0 0,0 -0.8691316200417792,-0.10523973533482035 l 3.8442429067611976 -29.610116261435177" fill="#c6ff1e" stroke="none" /><path d="M 96.58105272829116 120.7198165907248 l -2.5541341597317015 15.478797165331825 a36.688108967985684,36.688108967985684 0 0,0 -0.6222146544616004,-0.10817999327018546 l 2.8201977856653517 -15.432538593540633" fill="#ff6c09" stroke="none" /><path d="M 95.86986931433489 120.58985236759428 l -3.5563612876522854 17.729452032289906 a39.082620799363696,39.082620799363696 0 0,0 -0.6584649975491581,-0.13798774237168115 l 3.86101774663083 -17.665608309191686" fill="#ff910d" stroke="none" /><path d="M 92.7421414339146 119.70592522655815 l -6.752738164786952 18.334464930416697 a40.53847683436071,40.53847683436071 0 0,0 -0.6527269629865128,-0.24680548577546327 l 7.067335348533748 -18.215511194534603" fill="#ffa70f" stroke="none" /><path d="M 92.06813273071674 119.44442032107085 l -8.011291841405589 19.639124129359278 a42.21028037383178,42.21028037383178 0 0,0 -0.6703968193946203,-0.28022592487774417 l 8.34816012029767 -19.49831316146156" fill="#ffc011" stroke="none" /><path d="M 91.07499286063937 119.00905698771935 l -9.292244955494597 19.79122382141851 a42.86408828793001,42.86408828793001 0 0,0 -0.6651839700359802,-0.319328728780564 l 9.63154159353082 -19.628340816138383" fill="#ffc912" stroke="none" /><path d="M 90.7491055286396 118.85261126421891 l -7.962580687141878 16.2271268815574 a39.0754623185524,39.0754623185524 0 0,0 -0.6012896644633212,-0.30149912033058346 l 8.24072425928796 -16.087659920317513" fill="#ff910d" stroke="none" /><path d="M 90.10565033884886 118.52300852407294 l -4.259126426448136 7.973422994333982 a30.039669914495924,30.039669914495924 0 0,0 -0.45399552237413865,-0.24755455698830645 l 4.395744760690915 -7.89892778558591" fill="#ff0000" stroke="none" /><line stroke="#e1ed5e" stroke-width="0.3" x1="58.666819895761336" x2="56.23545636021788" y1="174.27360380694188" y2="178.64263932499728" /><path d="M 58.180547188652646 175.14741091055294 a86.0,86.0 0 0,1 -31.652253787137756,-30.449443065178592" fill="none" id="id44" stroke="none" /><text fill="#e1ed5e" style="font-size:6.75px; font-family:Arial;" text-anchor="middle"><textPath startOffset="22.20632615414155" xlink:href="#id44">August</textPath></text><path d="M 89.7882731507175 118.34994917583269 l -14.85520091512602 26.694033811578002 a51.549115132233055,51.549115132233055 0 0,0 -0.7716441859970531,-0.43815970748531297 l 15.31249386804428 -26.434370938298056" fill="#bcff1f" stroke="none" /><path d="M 88.24862548938628 117.40417183066458 l -11.871548780528801 17.582153873644984 a42.214754424338835,42.214754424338835 0 0,0 -0.5987320939345098,-0.41181339373886466 l 12.172437759086202 -17.37519969054102" fill="#ffc011" stroke="none" /><path d="M 87.65650970185807 116.9893568818739 l -9.348520483592624 12.867134576771324 a36.90465301252734,36.90465301252734 0 0,0 -0.510716515568012,-0.3778158687097322 l 9.568621969579201 -12.704308759321826" fill="#ff6f0a" stroke="none" /><path d="M 86.24171649860922 115.8653595955263 l -9.99129729202922 11.521460823788654 a36.250248558361506,36.250248558361506 0 0,0 -0.46790033718003954,-0.41286764572202483 l 10.188139982115848 -11.347770036294342" fill="#ff6509" stroke="none" /><line stroke="#e1ed5e" stroke-width="0.3" x1="26.63291911575756" x2="22.317208475507996" y1="142.92168965132927" y2="145.44649492493687" /><path d="M 25.769776987707644 143.4266507060508 a86.0,86.0 0 0,1 -11.730757126820373,-40.83630448921669" fill="none" id="id45" stroke="none" /><text fill="#e1ed5e" style="font-size:6.75px; font-family:Arial;" text-anchor="middle"><textPath startOffset="21.46611528233685" xlink:href="#id45">September</textPath></text><path d="M 79.67330655649465 105.27499134158121 l -14.676700677414395 3.8087586262622852 a36.16285543845695,36.16285543845695 0 0,0 -0.1511756928704729,-0.6038717452458798 l 14.740087684579926 -3.5555590416190137" fill="#ff6409" stroke="none" /><path d="M 79.58551787078972 104.9243191809786 l -14.526391787508254 3.50401196840961 a35.94303042354345,35.94303042354345 0 0,0 -0.13990299836006093,-0.6026984553334952 l 14.58455535179887 -3.253444855727541" fill="#ff6008" stroke="none" /><line stroke="#e1ed5e" stroke-width="0.3" x1="15.007084014347285" x2="10.007500721073583" y1="101.09737516637583" y2="101.16192664675087" /><path d="M 14.007167355692545 101.11028546245083 a86.0,86.0 0 0,1 10.666146001902534,-42.60595125391555" fill="none" id="id46" stroke="none" /><text fill="#e1ed5e" style="font-size:6.75px; font-family:Arial;" text-anchor="middle"><textPath startOffset="22.20632615414155" xlink:href="#id46">October</textPath></text><path d="M 79.03285615573316 98.82574320788736 l -15.348189919123728 -0.8595694479433783 a36.372241002187316,36.372241002187316 0 0,0 0.0403894840007647,-0.6248074406830488 l 15.33111984411855 1.1236359528794388" fill="#ff6709" stroke="none" /><path d="M 79.3925641242962 95.95851677861259 l -20.815248838686358 -4.082239024688054 a42.2117717240008,42.2117717240008 0 0,0 0.1459737420605934,-0.711819807806763 l 20.74189580071077 4.439934488658219" fill="#ffc011" stroke="none" /><path d="M 79.46518482838121 95.60439243477599 l -17.70393547307419 -3.7896397921923892 a39.10499105189899,39.10499105189899 0 0,0 0.14656106152474024,-0.6570045010792128 l 17.63608002454741 4.093822462821562" fill="#ff910d" stroke="none" /><path d="M 79.62865764111835 94.90015583598534 l -20.593845586930108 -5.155546521230334 a42.22936965599523,42.22936965599523 0 0,0 0.18259912702710018,-0.7036289233071942 l 20.502050128032703 5.509271870086391" fill="#ffc011" stroke="none" /><path d="M 81.10775173730289 90.83032412892265 l -19.079276314838975 -9.260453135545438 a42.207894213561346,42.207894213561346 0 0,0 0.32287026570143895,-0.6508867538434289 l 18.91704603618412 9.58749947788783" fill="#ffc011" stroke="none" /><path d="M 81.26839172434947 90.50648371742162 l -13.310812908545742 -6.746159604773442 a35.92274806124478,35.92274806124478 0 0,0 0.28428675536879455,-0.5491515247156773 l 13.192716720016833 6.974283851749454" fill="#ff6008" stroke="none" /><line stroke="#e1ed5e" stroke-width="0.3" x1="26.266209847984243" x2="21.928928074336255" y1="57.711370442889674" y2="55.22380399835377" /><path d="M 25.398753493254645 57.213857153982495 a86.0,86.0 0 0,1 29.58750427330803,-30.492523968695096" fill="none" id="id47" stroke="none" /><text fill="#e1ed5e" style="font-size:6.75px; font-family:Arial;" text-anchor="middle"><textPath startOffset="21.46611528233685" xlink:href="#id47">November</textPath></text><path d="M 81.78341655067845 89.55222093294921 l -28.493845489353657 -16.342109554826322 a53.847584012726195,53.847584012726195 0 0,0 0.4680645483175983,-0.8000740384273337 l 28.208321266565736 16.83016300560755" fill="#9fff22" stroke="none" /><path d="M 81.96595687620814 89.24020034530311 l -13.325100011162409 -7.950264148462375 a36.51660369854842,36.51660369854842 0 0,0 0.32670918739049276,-0.5370240016732138 l 13.186275025485699 8.178455923342662" fill="#ff6909" stroke="none" /><path d="M 82.15384107792192 88.93136811851018 l -18.28314977486993 -11.339664483309104 a42.51421753827799,42.51421753827799 0 0,0 0.391074933123391,-0.6185866273528758 l 18.085247245500575 11.652698758376195" fill="#ffc412" stroke="none" /><path d="M 82.34701348167596 88.62581576622439 l -17.835518890356827 -11.491793615393487 a42.21714058460927,42.21714058460927 0 0,0 0.3988582255978179,-0.6074884416754398 l 17.63506402940109 11.797100121046594" fill="#ffc011" stroke="none" /><path d="M 82.95767976084542 87.72973835380427 l -12.211573072537984 -8.792182907549476 a36.04742493537482,36.04742493537482 0 0,0 0.3668896395856153,-0.5004370560759137 l 12.058420820438736 9.00108240729689" fill="#ff6209" stroke="none" /><path d="M 83.39014120810768 87.1503855733568 l -24.165992747031364 -18.695143223492273 a51.5532909127063,51.5532909127063 0 0,0 0.5490325306942228,-0.6972155588552293 l 23.840606135743172 19.10835117630055" fill="#bcff1f" stroke="none" /><path d="M 83.84228863543731 86.58626213691792 l -16.56368516514661 -13.750767409992742 a42.527639689799166,42.527639689799166 0 0,0 0.4724403320511369,-0.5592203377969353 l 16.32453421960835 14.033846697418793" fill="#ffc412" stroke="none" /><path d="M 84.31358615837235 86.03803664274999 l -11.586459469647536 -10.312728211096069 a36.511234837939945,36.511234837939945 0 0,0 0.42188968201843496,-0.46586112419869957 l 11.407226147013057 10.510642122564324" fill="#ff6909" stroke="none" /><path d="M 84.5562425177563 85.77008943001954 l -13.558200295109554 -12.492554218823573 a39.43607078942136,39.43607078942136 0 0,0 0.46428025677291995,-0.49526180692059946 l 13.341152716366178 12.724085442622222" fill="#ff960d" stroke="none" /><path d="M 84.80347519578584 85.50635884689758 l -13.106964871401653 -12.50072946939386 a39.112447802744086,39.112447802744086 0 0,0 0.46885718314272057,-0.48319854093851 l 12.889843424555815 12.724492205882493" fill="#ff910d" stroke="none" /><path d="M 85.31137513191541 84.99185889309783 l -44.06587460425377 -45.02442332070654 a84.0,84.0 0 0,0 1.0420670255502897,-1.0024676529507457 l 43.28432433509105 45.776274060419595" fill="#4dd2ff" stroke="none" /><path d="M 86.65592168130627 83.78471172551755 l -19.580576586975088 -23.79367734177565 a51.81457546231856,51.81457546231856 0 0,0 0.6935667174895701,-0.560816051211067 l 19.168106470921018 24.127199490250852" fill="#b9ff1f" stroke="none" /><path d="M 87.51073957382395 83.11751280151077 l -17.962247841010143 -24.280654649203502 a51.202525352952875,51.202525352952875 0 0,0 0.7130675406659669,-0.5180738936340186 l 17.541634983990395 24.586247777654187" fill="#c1ff1e" stroke="none" /><line stroke="#e1ed5e" stroke-width="0.3" x1="56.762969772571076" x2="54.21961505331055" y1="26.818313649435495" y2="22.513508569990535" /><path d="M 56.25429882871897 25.957352633546506 a86.0,86.0 0 0,1 42.265352541879196,-11.944610805530505" fill="none" id="id48" stroke="none" /><text fill="#e1ed5e" style="font-size:6.75px; font-family:Arial;" text-anchor="middle"><textPath startOffset="22.20632615414155" xlink:href="#id48">December</textPath></text><path d="M 90.58718382345135 81.22770947309562 l -9.64771544681248 -19.240757908317494 a42.52406044939352,42.52406044939352 0 0,0 0.6571561647244635,-0.3224636760324045 l 9.31508801507759 19.403976744484726" fill="#ffc412" stroke="none" /><path d="M 91.23893434514133 80.91482961587045 l -12.751614961532296 -27.778212582928674 a51.56522171405847,51.56522171405847 0 0,0 0.8098634374534214,-0.36336211743277513 l 12.2715694056121 27.99359503087798" fill="#bcff1f" stroke="none" /><path d="M 93.94186890950719 79.89281104454417 l -6.118277010332798 -20.30681576396452 a42.20849075362895,42.20849075362895 0 0,0 0.6974647231733222,-0.20360907843629816 l 5.767822069436054 20.409123171319514" fill="#ffc011" stroke="none" /><path d="M 94.63758080256005 79.69619591428918 l -5.49494496802123 -20.805588295993143 a42.518989858818856,42.518989858818856 0 0,0 0.7092392480779475,-0.18080087620566737 l 5.135996831258283 20.897092168367674" fill="#ffc412" stroke="none" /><path d="M 95.33964822691252 79.52364482259891 l -5.350872321007385 -23.51032014076569 a45.11155299264267,45.11155299264267 0 0,0 0.7586415792421793,-0.1658096652840455 l 4.945388017611685 23.598943304145603" fill="#ffea16" stroke="none" /><path d="M 96.75951476605007 79.25152402106235 l -3.3760309120736958 -21.61636027513359 a42.8784052495526,42.8784052495526 0 0,0 0.7302213231900512,-0.10761564128727079 l 3.0034406084549956 21.671270400581832" fill="#ffc912" stroke="none" /></svg>