<?xml version="1.0" encoding="utf-8" ?>
<svg baseProfile="full" height="200mm" version="1.1" viewBox="0,0,200,200" width="200mm" xmlns="http://www.w3.org/2000/svg" xmlns:ev="http://www.w3.org/2001/xml-events" xmlns:xlink="http://www.w3.org/1999/xlink"><defs /><rect fill="#1a1a1a" height="200" width="200" x="0" y="0" /><text alignment-baseline="middle" fill="#e1ed5e" style="dominant-baseline: central; font-size:9.0px; font-family:Arial;" text-anchor="middle" x="100.0" y="100.0">2020</text><line stroke="#e1ed5e" stroke-width="0.3" x1="100.0" x2="100.0" y1="15.0" y2="10.0" /><path d="M 100.0 14.0 a86.0,86.0 0 0,1 42.35913384403234,11.155469271406648" fill="none" id="id1" stroke="none" /><text fill="#e1ed5e" style="font-size:6.75px; font-family:Arial;" text-anchor="middle"><textPath startOffset="22.145653131862478" xlink:href="#id1">January</textPath></text><path d="M 100.36049292484886 79.00309439819443 l 0.6235374912667713 -36.317932865962185 a57.323285185395214,57.323285185395214 0 0,0 0.9837404178353499,0.025337663595943364 l -1.2468912231728626 36.3018774850162" fill="red" stroke="none" /><path d="M 101.08105385017728 79.02784411241856 l 1.6656018478435946 -32.31223087905505 a53.355130874359,53.355130874359 0 0,0 0.9142926279928437,0.05500157411117133 l -2.2200388279689007 32.27887732711919" fill="red" stroke="none" /><path d="M 102.15924093988457 79.11130261209362 l 2.8455191809144798 -27.527816828437565 a48.67449509474315,48.67449509474315 0 0,0 0.8303963857216476,0.09304764706122101 l -3.317651468236924 27.474913420869374" fill="red" stroke="none" /><line stroke="#e1ed5e" stroke-width="0.3" x1="143.13028292997686" x2="145.6673583964461" y1="26.7553504044142" y2="22.446841604673864" /><path d="M 143.63769802327073 25.89364864446614 a86.0,86.0 0 0,1 29.32050498858742,28.57503671076993" fill="none" id="id2" stroke="none" /><text fill="#e1ed5e" style="font-size:6.75px; font-family:Arial;" text-anchor="middle"><textPath startOffset="20.669276256404974" xlink:href="#id2">February</textPath></text><path d="M 117.21940702142032 87.97951657250589 l 21.39497965545149 -14.935357417361015 a47.092337105776934,47.092337105776934 0 0,0 0.45704293426237297,0.6668392999823778 l -21.648212326529187 14.565883382308588" fill="red" stroke="none" /><path d="M 117.42321728460499 88.27688183743584 l 15.079306962679583 -10.146030692578655 a39.17491230486313,39.17491230486313 0 0,0 0.37062369916190957,0.5611715183621729 l -15.251255100762217 9.885679295877425" fill="red" stroke="none" /><path d="M 117.62189284568427 88.57770195909679 l 14.264940745729914 -9.246362247257457 a37.999522031124684,37.999522031124684 0 0,0 0.3501064399854693,0.5504254747911745 l -14.421564877341273 9.00012309778761" fill="red" stroke="none" /><line stroke="#e1ed5e" stroke-width="0.3" x1="172.87174338648825" x2="177.1583165268699" y1="56.24261187166439" y2="53.66864786411523" /><path d="M 173.72905801456457 55.72781907015455 a86.0,86.0 0 0,1 12.242430191666344,42.057860355516425" fill="none" id="id3" stroke="none" /><text fill="#e1ed5e" style="font-size:6.75px; font-family:Arial;" text-anchor="middle"><textPath startOffset="22.145653131862474" xlink:href="#id3">March</textPath></text><path d="M 120.16314734710363 94.1308016681162 l 17.90882256695006 -5.212997243262469 a39.65211156927713,39.65211156927713 0 0,0 0.18463063150813472,0.6551889769072773 l -17.995671690532777 4.904800342452178" fill="red" stroke="none" /><path d="M 120.77682067341334 96.94652285012252 l 25.513583668829686 -3.7496181908114856 a46.787644099514736,46.787644099514736 0 0,0 0.10996318065591464,0.7956387971290471 l -25.574191366040814 3.311091085482353" fill="red" stroke="none" /><line stroke="#e1ed5e" stroke-width="0.3" x1="184.99686870605535" x2="189.99668451229388" y1="99.2704041080226" y2="99.22748670261217" /><path d="M 185.99683186730306 99.26182062694052 a86.0,86.0 0 0,1 -10.086455211305974,41.156179273409016" fill="none" id="id4" stroke="none" /><text fill="#e1ed5e" style="font-size:6.75px; font-family:Arial;" text-anchor="middle"><textPath startOffset="21.40746469413373" xlink:href="#id4">April</textPath></text><path d="M 120.592083275326 104.11899336999214 l 30.357387358889813 6.0723276799962616 a51.958748855710105,51.958748855710105 0 0,0 -0.18245509920580932,0.8731136991891987 l -30.24867454885964 -6.592557830470869" fill="red" stroke="none" /><path d="M 120.51834098615036 104.47187691870673 l 30.36037607870591 6.616902659004567 a52.07307252975154,52.07307252975154 0 0,0 -0.19785074253305457,0.8717668775125705 l -30.242314474615192 -7.137103870456155" fill="red" stroke="none" /><path d="M 120.43855184770803 104.8234425847677 l 40.14161452823617 9.473311728714135 a62.244306904624956,62.244306904624956 0 0,0 -0.25434942551260337,1.0378324530457275 l -39.97307757620727 -10.161000006367962" fill="red" stroke="none" /><path d="M 120.35273937422433 105.17358676015961 l 30.093576036465794 7.6496693484559275 a52.05061609377911,52.05061609377911 0 0,0 -0.22756162323826298,0.8640885490332441 l -29.957824932422803 -8.165138401861975" fill="red" stroke="none" /><path d="M 120.26092885502905 105.52220625578681 l 30.154297131966466 8.218687773520664 a52.25425513816541,52.25425513816541 0 0,0 -0.243309517282355,0.863419641680662 l -30.008769122609532 -8.735115339104334" fill="red" stroke="none" /><path d="M 120.05942366710727 106.21446072829308 l 30.586156274369753 9.475669398627154 a53.02032582895195,53.02032582895195 0 0,0 -0.2768046900876049,0.8670867492111745 l -30.41898686850489 -9.999325181529711" fill="red" stroke="none" /><path d="M 119.94978838288452 106.5578916946017 l 29.464317760867132 9.68550648371126 a52.015400319186,52.015400319186 0 0,0 -0.2861208114102592,0.8458653385980114 l -29.293711527884508 -10.189873496783433" fill="red" stroke="none" /><path d="M 119.83427380445688 106.89939002012753 l 29.381925271666017 10.220558816018437 a52.10879867788948,52.10879867788948 0 0,0 -0.3011388069887173,0.8423388388632159 l -29.20214629463336 -10.723432611262574" fill="red" stroke="none" /><path d="M 119.71291397450082 107.23885506374661 l 34.08649786836701 12.51703416445638 a57.312056967409006,57.312056967409006 0 0,0 -0.34706357589205844,0.9206273686869723 l -33.86660360866051 -13.100329813337511" fill="red" stroke="none" /><path d="M 118.8641267826498 109.22738970284198 l 27.940192609670227 13.666948306296185 a52.10369494244121,52.10369494244121 0 0,0 -0.3999084796577189,0.8000848473856877 l -27.701464216800776 -14.144565009845618" fill="red" stroke="none" /><path d="M 118.70294669586154 109.54985784667822 l 25.263273545863672 12.899607480468788 a49.36605124798483,49.36605124798483 0 0,0 -0.3918534480765813,0.7514306545006664 l -25.038112028812144 -13.331384378073958" fill="red" stroke="none" /><line stroke="#e1ed5e" stroke-width="0.3" x1="174.33088141563837" x2="178.70328620479359" y1="141.23008692659167" y2="143.65538615756765" /><path d="M 175.20536237346943 141.71514677278685 a86.0,86.0 0 0,1 -30.301960400862466,31.631185727798858" fill="none" id="id5" stroke="none" /><text fill="#e1ed5e" style="font-size:6.75px; font-family:Arial;" text-anchor="middle"><textPath startOffset="22.145653131862474" xlink:href="#id5">May</textPath></text><line stroke="#e1ed5e" stroke-width="0.3" x1="143.1302829299769" x2="145.66735839644613" y1="173.24464959558577" y2="177.55315839532614" /><path d="M 143.63769802327073 174.10635135553383 a86.0,86.0 0 0,1 -40.68552437913181,11.842963189579606" fill="none" id="id6" stroke="none" /><text fill="#e1ed5e" style="font-size:6.75px; font-family:Arial;" text-anchor="middle"><textPath startOffset="21.407464694133747" xlink:href="#id6">June</textPath></text><path d="M 107.06938296918513 119.77432235084164 l 6.443075463850434 18.022428790226243 a40.13951830458769,40.13951830458769 0 0,0 -0.6508225855050143,0.22638987923510098 l -6.132747106300398 -18.130377102029932" fill="red" stroke="none" /><line stroke="#e1ed5e" stroke-width="0.3" x1="101.45913802915013" x2="101.54496967792366" y1="184.9874750549273" y2="189.98673829345242" /><path d="M 101.47630435890484 185.9873277026323 a86.0,86.0 0 0,1 -42.54439059252881,-10.42667462771756" fill="none" id="id7" stroke="none" /><text fill="#e1ed5e" style="font-size:6.75px; font-family:Arial;" text-anchor="middle"><textPath startOffset="22.145653131862474" xlink:href="#id7">July</textPath></text><line stroke="#e1ed5e" stroke-width="0.3" x1="58.13341422392154" x2="55.67067388415222" y1="173.97424548756322" y2="178.32567169271397" /><path d="M 57.64086615596768 174.84453072859336 a86.0,86.0 0 0,1 -31.369924170532247,-30.572349798747897" fill="none" id="id8" stroke="none" /><text fill="#e1ed5e" style="font-size:6.75px; font-family:Arial;" text-anchor="middle"><textPath startOffset="22.145653131862474" xlink:href="#id8">August</textPath></text><path d="M 83.20337586046588 112.60449989151573 l -13.765070180050643 10.329565283465769 a38.209795931593746,38.209795931593746 0 0,0 -0.3891903896134226,-0.5280115096891493 l 13.940362589247895 -10.09174746450774" fill="red" stroke="none" /><line stroke="#e1ed5e" stroke-width="0.3" x1="26.387840678322732" x2="22.057713659400548" y1="142.50000000000003" y2="145.00000000000006" /><path d="M 25.521815274538298 143.00000000000003 a86.0,86.0 0 0,1 -11.493303480769221,-40.785679425670985" fill="none" id="id9" stroke="none" /><text fill="#e1ed5e" style="font-size:6.75px; font-family:Arial;" text-anchor="middle"><textPath startOffset="21.40746469413373" xlink:href="#id9">September</textPath></text><path d="M 79.73907114497094 105.5222062557868 l -10.596696075637974 2.8881766368294937 a31.983238684694463,31.983238684694463 0 0,0 -0.1398284642470457,-0.5309514542277357 l 10.644714020689753 -2.7058446782289556" fill="red" stroke="none" /><line stroke="#e1ed5e" stroke-width="0.3" x1="15.003131293944662" x2="10.003315487706104" y1="100.72959589197737" y2="100.7725132973878" /><path d="M 14.003168132696942 100.73817937305945 a86.0,86.0 0 0,1 10.791469493833604,-42.45332614584628" fill="none" id="id10" stroke="none" /><text fill="#e1ed5e" style="font-size:6.75px; font-family:Arial;" text-anchor="middle"><textPath startOffset="22.145653131862435" xlink:href="#id10">October</textPath></text><path d="M 79.2786578344484 96.59031103205396 l -12.843844585347298 -2.113449738862818 a34.01656688728846,34.01656688728846 0 0,0 0.09975792762101326,-0.5753772168803586 l 12.805671840234051 2.3336199886637696" fill="red" stroke="none" /><path d="M 81.63589988554816 89.8137432299009 l -23.667029890127573 -13.127702525250909 a48.0640883351291,48.0640883351291 0 0,0 0.4064084966183117,-0.7180848722145392 l 23.438188028487893 13.532044167564553" fill="red" stroke="none" /><line stroke="#e1ed5e" stroke-width="0.3" x1="26.387840678322718" x2="22.05771365940052" y1="57.49999999999999" y2="54.99999999999999" /><path d="M 25.521815274538284 56.99999999999999 a86.0,86.0 0 0,1 29.574782752854787,-30.34633250058573" fill="none" id="id11" stroke="none" /><text fill="#e1ed5e" style="font-size:6.75px; font-family:Arial;" text-anchor="middle"><textPath startOffset="21.40746469413373" xlink:href="#id11">November</textPath></text><path d="M 83.2033758604659 87.39550010848427 l -20.53942782055895 -15.413169550343433 a46.67944490801125,46.67944490801125 0 0,0 0.48646210553889696,-0.6367945117937865 l 20.271813737665745 15.763484975378104" fill="red" stroke="none" /><path d="M 83.64595745247003 86.82634096563983 l -28.284879588762617 -22.784296815136386 a57.32022294412624,57.32022294412624 0 0,0 0.6238437750395676,-0.7609879699693378 l 27.88958899448442 23.266487066804217" fill="red" stroke="none" /><path d="M 84.10781606972428 86.27271002978789 l -19.829342176630288 -17.128113490971817 a47.202577791459746,47.202577791459746 0 0,0 0.5349376793810131,-0.6086608819802045 l 19.532393433290682 17.465986650763323" fill="red" stroke="none" /><path d="M 84.83555147118756 85.47280134310135 l -19.179300742214366 -18.37333625770637 a47.55983927283921,47.55983927283921 0 0,0 0.5698420617234651,-0.5847081556739553 l 18.8610718793401 18.699867105448057" fill="red" stroke="none" /><path d="M 85.34317274990677 84.96080404539775 l -10.811397464356796 -11.09344623056245 a36.49034745906885,36.49034745906885 0 0,0 0.45235435447289735,-0.43334523891556154 l 10.619370624018599 11.277403599783579" fill="red" stroke="none" /><path d="M 86.13680546590413 84.22622945171909 l -20.425354440018815 -23.240303922142118 a51.94037540809631,51.94037540809631 0 0,0 0.6747809638166562,-0.5828597250906449 l 20.02339399643931 23.587507779697475" fill="red" stroke="none" /><path d="M 86.40962598614128 83.9905735841838 l -22.01176197325611 -25.929800256707505 a55.012824147959726,55.012824147959726 0 0,0 0.7251886511615601,-0.6049781650271194 l 21.56339898793264 26.303840605646506" fill="red" stroke="none" /><path d="M 86.68645165197937 83.75963576809568 l -20.50145586594841 -25.008442666362082 a53.337778173834856,53.337778173834856 0 0,0 0.7130733396793778,-0.5744014066324743 l 20.06913175591379 25.356692366787957" fill="red" stroke="none" /><path d="M 86.96720088162412 83.53348406188908 l -16.196319237494603 -20.463520264568665 a47.09744084122522,47.09744084122522 0 0,0 0.6382601569782179,-0.4963149585483095 l 15.84264913588114 20.73853627473778" fill="red" stroke="none" /><path d="M 87.54013794807813 83.09580414077388 l -30.61311160031246 -41.53256530414062 a72.5957031408226,72.5957031408226 0 0,0 1.0094916134463991,-0.7307940783618483 l 29.895638976492094 42.05196015387555" fill="red" stroke="none" /><path d="M 88.4268655584334 82.4767994020092 l -15.279023869314736 -23.1343895256132 a48.724511702136276,48.724511702136276 0 0,0 0.7018983262455664,-0.45496201497737915 l 14.879639910812145 23.393265382294487" fill="red" stroke="none" /><line stroke="#e1ed5e" stroke-width="0.3" x1="56.869717070023135" x2="54.33264160355391" y1="26.7553504044142" y2="22.446841604673864" /><path d="M 56.362301976729285 25.89364864446614 a86.0,86.0 0 0,1 42.16139366436587,-11.88097634709845" fill="none" id="id12" stroke="none" /><text fill="#e1ed5e" style="font-size:6.75px; font-family:Arial;" text-anchor="middle"><textPath startOffset="22.145653131862474" xlink:href="#id12">December</textPath></text><path d="M 89.65649057296885 81.72400993836675 l -25.828649444415703 -45.6367487148933 a73.43884023687815,73.43884023687815 0 0,0 1.102477199988157,-0.6115255183901833 l 25.041428056271446 46.073407148716626" fill="red" stroke="none" /><path d="M 90.61103034731259 81.2157712731953 l -28.166908958062205 -56.35268618041411 a84.0,84.0 0 0,0 1.2953590029517876,-0.6336249996111434 l 27.195389705848363 56.827904930122465" fill="red" stroke="none" /></svg>