<?xml version="1.0" encoding="utf-8" ?>
<svg baseProfile="full" height="200mm" version="1.1" viewBox="0,0,200,200" width="200mm" xmlns="http://www.w3.org/2000/svg" xmlns:ev="http://www.w3.org/2001/xml-events" xmlns:xlink="http://www.w3.org/1999/xlink"><defs /><rect fill="#1a1a1a" height="200" width="200" x="0" y="0" /><text alignment-baseline="middle" fill="#e1ed5e" style="dominant-baseline: central; font-size:9.0px; font-family:Arial;" text-anchor="middle" x="100.0" y="100.0">2024</text><line stroke="#e1ed5e" stroke-width="0.3" x1="100.0" x2="100.0" y1="15.0" y2="10.0" /><path d="M 100.0 14.0 a86.0,86.0 0 0,1 42.35913384403234,11.155469271406648" fill="none" id="id49" stroke="none" /><text fill="#e1ed5e" style="font-size:6.75px; font-family:Arial;" text-anchor="middle"><textPath startOffset="22.145653131862478" xlink:href="#id49">January</textPath></text><path d="M 101.08105385017728 79.02784411241856 l 2.2894022530998757 -44.41379209140898 a65.47275897237995,65.47275897237995 0 0,0 1.1219400998895679,0.06749313038631875 l -3.051486705121906 44.36794698319797" fill="#36ff2f" stroke="none" /><path d="M 101.80034050326958 79.07731436759882 l 3.8126346503305615 -44.30859388832035 a65.47232482496278,65.47232482496278 0 0,0 1.1189545698036856,0.10596616113308885 l -4.5726887835192604 44.236615971682085" fill="#36ff2f" stroke="none" /><path d="M 102.15924093988457 79.11130261209362 l 2.7336318845440317 -26.445408732026507 a47.58631953249903,47.58631953249903 0 0,0 0.8118318982593888,0.09096745751925961 l -3.1871996844042174 26.394585514000276" fill="#ffbd11" stroke="none" /><path d="M 102.87502721639298 79.19773525538626 l 4.226713202467148 -30.582391198225622 a51.87309112961023,51.87309112961023 0 0,0 0.8810394904979436,0.12948246484206816 l -4.751077798572774 30.50532766008467" fill="#faff18" stroke="none" /><path d="M 103.94208987418118 79.37332000966035 l 8.395223595274361 -43.92735733429768 a65.72239373725122,65.72239373725122 0 0,0 1.1063379602588825,0.22129857685343626 l -9.148058041064202 43.77676936078139" fill="#32ff2f" stroke="none" /><path d="M 104.64783097203109 79.52079915486377 l 6.833187849626875 -30.108286473227945 a51.873959424444564,51.873959424444564 0 0,0 0.8667097342971172,0.20454113736586343 l -7.349029737663877 29.986549192215854" fill="#faff18" stroke="none" /><path d="M 105.69591212413111 79.78721728523813 l 13.091232397927692 -46.456165432525644 a69.2654708087546,69.2654708087546 0 0,0 1.1416928194345073,0.3323301405279541 l -13.886785229743804 46.224591597695174" fill="#35ff63" stroke="none" /><path d="M 106.04205211174951 79.88797359093562 l 8.88832699120182 -29.58634978202618 a51.89262776338276,51.89262776338276 0 0,0 0.850938688344122,0.2636229808322482 l -9.394906312417573 29.429410213387285" fill="#faff18" stroke="none" /><path d="M 106.38641147887787 79.99465700312896 l 6.918935177086308 -21.67346589685269 a43.75106124924196,43.75106124924196 0 0,0 0.7135116038879205,0.23454543633920855 l -7.28996951862197 21.55149953911146" fill="#ff7a0b" stroke="none" /><path d="M 106.72888874123014 80.10723608172694 l 18.280289949299217 -54.04242904044652 a78.05044379513754,78.05044379513754 0 0,0 1.2655107429318595,0.44021032865777254 l -19.20530646427609 53.720660279220155" fill="#43ffe1" stroke="none" /><line stroke="#e1ed5e" stroke-width="0.3" x1="143.13028292997686" x2="145.6673583964461" y1="26.7553504044142" y2="22.446841604673864" /><path d="M 143.63769802327073 25.89364864446614 a86.0,86.0 0 0,1 29.32050498858742,28.57503671076993" fill="none" id="id50" stroke="none" /><text fill="#e1ed5e" style="font-size:6.75px; font-family:Arial;" text-anchor="middle"><textPath startOffset="20.669276256404974" xlink:href="#id50">February</textPath></text><path d="M 113.03279911837588 83.53348406188908 l 16.38898379128086 -20.706945634423192 a47.40788494404322,47.40788494404322 0 0,0 0.6337965322441249,0.5105416222733888 l -16.742031093880247 20.422555718356396" fill="#ffba11" stroke="none" /><path d="M 115.41159269507618 85.73525988315684 l 19.79296601391041 -18.320073850650473 a47.97010584927504,47.97010584927504 0 0,0 0.5541741890425059,0.6091345107867997 l -20.104537903794792 17.977601764306" fill="#ffc412" stroke="none" /><path d="M 116.1254893667686 86.54754324733833 l 17.346413560995728 -14.470995139159655 a43.589992557472854,43.589992557472854 0 0,0 0.4744110213511892,0.5787043078953813 l -17.592271401585545 14.171088549565777" fill="#ff780b" stroke="none" /><path d="M 116.35404254752997 86.82634096563983 l 19.170176397092234 -15.442137119911967 a45.61615855339324,45.61615855339324 0 0,0 0.4859936177891064,0.6140370599176252 l -19.4324364455229 15.110780116079663" fill="#ff9b0e" stroke="none" /><path d="M 116.57777611688842 87.10902102172516 l 24.384451863536306 -18.96149725712437 a51.88915458404542,51.88915458404542 0 0,0 0.5407542322607167,0.7078646484733351 l -24.70635807315133 18.540111695410154" fill="#faff18" stroke="none" /><path d="M 117.42321728460499 88.27688183743584 l 25.640628601094086 -17.252159227713083 a51.90434974364628,51.90434974364628 0 0,0 0.4910536098939943,0.7435177526007486 l -25.933006649908805 16.809461596773275" fill="#faff18" stroke="none" /><line stroke="#e1ed5e" stroke-width="0.3" x1="172.87174338648825" x2="177.1583165268699" y1="56.24261187166439" y2="53.66864786411523" /><path d="M 173.72905801456457 55.72781907015455 a86.0,86.0 0 0,1 12.242430191666344,42.057860355516425" fill="none" id="id51" stroke="none" /><text fill="#e1ed5e" style="font-size:6.75px; font-family:Arial;" text-anchor="middle"><textPath startOffset="22.145653131862474" xlink:href="#id51">March</textPath></text><path d="M 118.00360718960297 89.18935116829356 l 19.3979959459012 -11.647939215820431 a43.62646094051491,43.62646094051491 0 0,0 0.38002031619128557,0.6453575772694166 l -19.595089972222254 11.313230470257457" fill="#ff780b" stroke="none" /><path d="M 118.36410011445183 89.81374322990088 l 42.203818260162976 -23.409746559718666 a69.2615634820001,69.2615634820001 0 0,0 0.5677952498256463,1.0446793075674026 l -42.59945885960396 22.68181241867666" fill="#35ff63" stroke="none" /><path d="M 118.8641267826498 90.77261029715802 l 24.611164801105662 -12.038553985416401 a48.39774105518496,48.39774105518496 0 0,0 0.35865201790818646,0.7494447771160292 l -24.81419607697376 11.614296706235269" fill="#ffcb12" stroke="none" /><path d="M 119.0197475246899 91.09779779509293 l 20.47789496399316 -9.584688832681422 a43.609963338662546,43.609963338662546 0 0,0 0.31153199942385956,0.6807536413155847 l -20.63941142827207 9.231746209151153" fill="#ff780b" stroke="none" /><path d="M 119.16976305983485 91.42560881287824 l 40.61064474889871 -18.164624849634922 a65.48795413198081,65.48795413198081 0 0,0 0.45020198631832276,1.030150248693936 l -40.916480617234 17.464812531165137" fill="#35ff2f" stroke="none" /><path d="M 119.31412917781788 91.75594674310238 l 32.87828802505724 -14.033786094041968 a56.748132476983294,56.748132476983294 0 0,0 0.3747380640655918,0.8992349351552216 l -33.11435193365931 13.467318649445469" fill="#afff20" stroke="none" /><path d="M 119.71291397450082 92.76114493625339 l 17.522937362070927 -6.434665317325506 a39.667036495947954,39.667036495947954 0 0,0 0.2292373716194734,0.6412177273493684 l -17.630814903734343 6.132912633595221" fill="#ff3004" stroke="none" /><path d="M 119.83427380445688 93.10060997987247 l 30.76627841575207 -10.702108700869436 a53.57451485748939,53.57451485748939 0 0,0 0.2946970237251407,0.8712193864138941 l -30.945460861049575 10.17238763998138" fill="#dfff1b" stroke="none" /><path d="M 119.94978838288452 93.4421083053983 l 59.84936514865356 -19.673675083805065 a84.0,84.0 0 0,0 0.4385411368909713,1.373723865234452 l -60.17827100132179 18.643382184879226" fill="#4dd2ff" stroke="none" /><path d="M 120.05942366710727 93.78553927170692 l 15.445999515651579 -4.785210133262664 a37.170254699818074,37.170254699818074 0 0,0 0.18359217161274272,0.6111186291810649 l -15.525868007267949 4.519353900490876" fill="#ff0000" stroke="none" /><path d="M 120.16314734710363 94.1308016681162 l 46.352090017832076 -13.492417861592758 a69.27589034676663,69.27589034676663 0 0,0 0.32256671528489267,1.1446754768996077 l -46.57687522519155 12.694734460790137" fill="#35ff63" stroke="none" /><path d="M 120.26092885502905 94.47779374421319 l 38.829072127622666 -10.58303627359772 a61.245465571420695,61.245465571420695 0 0,0 0.26776085678419764,1.016731586521991 l -39.005022465211596 9.914924182702931" fill="#6eff28" stroke="none" /><path d="M 120.35273937422433 94.82641323984039 l 34.02988346166616 -8.650263303131418 a56.112106510833016,56.112106510833016 0 0,0 0.22929136438456676,0.9355870125589701 l -34.17336235256702 8.064820465964353" fill="#b8ff1f" stroke="none" /><line stroke="#e1ed5e" stroke-width="0.3" x1="184.99686870605535" x2="189.99668451229388" y1="99.2704041080226" y2="99.22748670261217" /><path d="M 185.99683186730306 99.26182062694052 a86.0,86.0 0 0,1 -10.086455211305974,41.156179273409016" fill="none" id="id52" stroke="none" /><text fill="#e1ed5e" style="font-size:6.75px; font-family:Arial;" text-anchor="middle"><textPath startOffset="21.40746469413373" xlink:href="#id52">April</textPath></text><line stroke="#e1ed5e" stroke-width="0.3" x1="174.33088141563837" x2="178.70328620479359" y1="141.23008692659167" y2="143.65538615756765" /><path d="M 175.20536237346943 141.71514677278685 a86.0,86.0 0 0,1 -30.301960400862466,31.631185727798858" fill="none" id="id53" stroke="none" /><text fill="#e1ed5e" style="font-size:6.75px; font-family:Arial;" text-anchor="middle"><textPath startOffset="22.145653131862474" xlink:href="#id53">May</textPath></text><line stroke="#e1ed5e" stroke-width="0.3" x1="143.1302829299769" x2="145.66735839644613" y1="173.24464959558577" y2="177.55315839532614" /><path d="M 143.63769802327073 174.10635135553383 a86.0,86.0 0 0,1 -40.68552437913181,11.842963189579606" fill="none" id="id54" stroke="none" /><text fill="#e1ed5e" style="font-size:6.75px; font-family:Arial;" text-anchor="middle"><textPath startOffset="21.407464694133747" xlink:href="#id54">June</textPath></text><line stroke="#e1ed5e" stroke-width="0.3" x1="101.45913802915013" x2="101.54496967792366" y1="184.9874750549273" y2="189.98673829345242" /><path d="M 101.47630435890484 185.9873277026323 a86.0,86.0 0 0,1 -42.54439059252881,-10.42667462771756" fill="none" id="id55" stroke="none" /><text fill="#e1ed5e" style="font-size:6.75px; font-family:Arial;" text-anchor="middle"><textPath startOffset="22.145653131862474" xlink:href="#id55">July</textPath></text><line stroke="#e1ed5e" stroke-width="0.3" x1="58.13341422392154" x2="55.67067388415222" y1="173.97424548756322" y2="178.32567169271397" /><path d="M 57.64086615596768 174.84453072859336 a86.0,86.0 0 0,1 -31.369924170532247,-30.572349798747897" fill="none" id="id56" stroke="none" /><text fill="#e1ed5e" style="font-size:6.75px; font-family:Arial;" text-anchor="middle"><textPath startOffset="22.145653131862474" xlink:href="#id56">August</textPath></text><line stroke="#e1ed5e" stroke-width="0.3" x1="26.387840678322732" x2="22.057713659400548" y1="142.50000000000003" y2="145.00000000000006" /><path d="M 25.521815274538298 143.00000000000003 a86.0,86.0 0 0,1 -11.493303480769221,-40.785679425670985" fill="none" id="id57" stroke="none" /><text fill="#e1ed5e" style="font-size:6.75px; font-family:Arial;" text-anchor="middle"><textPath startOffset="21.40746469413373" xlink:href="#id57">September</textPath></text><line stroke="#e1ed5e" stroke-width="0.3" x1="15.003131293944662" x2="10.003315487706104" y1="100.72959589197737" y2="100.7725132973878" /><path d="M 14.003168132696942 100.73817937305945 a86.0,86.0 0 0,1 10.791469493833604,-42.45332614584628" fill="none" id="id58" stroke="none" /><text fill="#e1ed5e" style="font-size:6.75px; font-family:Arial;" text-anchor="middle"><textPath startOffset="22.145653131862435" xlink:href="#id58">October</textPath></text><line stroke="#e1ed5e" stroke-width="0.3" x1="26.387840678322718" x2="22.05771365940052" y1="57.49999999999999" y2="54.99999999999999" /><path d="M 25.521815274538284 56.99999999999999 a86.0,86.0 0 0,1 29.574782752854787,-30.34633250058573" fill="none" id="id59" stroke="none" /><text fill="#e1ed5e" style="font-size:6.75px; font-family:Arial;" text-anchor="middle"><textPath startOffset="21.40746469413373" xlink:href="#id59">November</textPath></text><line stroke="#e1ed5e" stroke-width="0.3" x1="56.869717070023135" x2="54.33264160355391" y1="26.7553504044142" y2="22.446841604673864" /><path d="M 56.362301976729285 25.89364864446614 a86.0,86.0 0 0,1 42.16139366436587,-11.88097634709845" fill="none" id="id60" stroke="none" /><text fill="#e1ed5e" style="font-size:6.75px; font-family:Arial;" text-anchor="middle"><textPath startOffset="22.145653131862474" xlink:href="#id60">December</textPath></text></svg>