<?xml version="1.0" encoding="utf-8" ?>
<svg baseProfile="full" height="200mm" version="1.1" viewBox="0,0,200,200" width="200mm" xmlns="http://www.w3.org/2000/svg" xmlns:ev="http://www.w3.org/2001/xml-events" xmlns:xlink="http://www.w3.org/1999/xlink"><defs /><rect fill="#1a1a1a" height="200" width="200" x="0" y="0" /><text alignment-baseline="middle" fill="#e1ed5e" style="dominant-baseline: central; font-size:9.0px; font-family:Arial;" text-anchor="middle" x="100.0" y="100.0">2026</text><line stroke="#e1ed5e" stroke-width="0.3" x1="100.0" x2="100.0" y1="15.0" y2="10.0" /><path d="M 100.0 14.0 a86.0,86.0 0 0,1 42.46469731375804,11.215312516191453" fill="none" id="id73" stroke="none" /><text fill="#e1ed5e" style="font-size:6.75px; font-family:Arial;" text-anchor="middle"><textPath startOffset="22.20632615414155" xlink:href="#id73">January</textPath></text><path d="M 100.0 79.0 l 0.0 -15.2668722054527 a36.2668722054527,36.2668722054527 0 0,0 0.6242745879305991,0.005373328468839968 l -0.2627941086580707 15.26461025359242" fill="red" stroke="none" /><path d="M 100.36148047927253 79.00311137660856 l 0.5181778412338163 -30.0987827652322 a51.10324288550628,51.10324288550628 0 0,0 0.8793976587613971,0.02271224704999576 l -1.0362021351900812 30.085403726039846" fill="red" stroke="none" /><path d="M 100.72285384407766 79.0124445844662 l 0.9805800423309148 -28.470455191458484 a49.48733676615389,49.48733676615389 0 0,0 0.8510859692253794,0.036649552141737915 l -1.4705068439456257 28.449357912792554" fill="red" stroke="none" /><path d="M 103.2404852339499 79.25152402106235 l 5.357411157715245 -34.30292338646272 a55.71876160191119,55.71876160191119 0 0,0 0.9463454730244011,0.15615511164993423 l -5.9470858368785215 34.20562201187316" fill="red" stroke="none" /><path d="M 105.01212808612495 79.60689891045804 l 9.008092934179018 -36.65168700282127 a58.74244160707656,58.74244160707656 0 0,0 0.9798550072332319,0.24978685872557962 l -9.637656830097274 36.491197147926826" fill="red" stroke="none" /><path d="M 105.36241919743992 79.69619591428918 l 3.5599137113704677 -13.478951923827365 a34.94113089377088,34.94113089377088 0 0,0 0.5801926712175483,0.15858857394888387 l -3.791404271811727 13.415676809052188" fill="red" stroke="none" /><path d="M 105.71112130821622 79.79150937346287 l 9.440022307329023 -33.40300302105536 a55.71130409517198,55.71130409517198 0 0,0 0.9205889287814082,0.26874515252186665 l -10.013601453833859 33.23555953961479" fill="red" stroke="none" /><path d="M 106.0581310904928 79.89281104454417 l 12.854080764668943 -42.66322846488035 a65.55758583396556,65.55758583396556 0 0,0 1.0776875028408341,0.334842753046606 l -13.586553640220496 42.43564557695122" fill="red" stroke="none" /><path d="M 106.40334571778207 80.00007090966166 l 11.490900068397092 -35.890173150249296 a58.68481541863731,58.68481541863731 0 0,0 0.9594050098452964,0.31630074760808136 l -12.106987900484807 35.68705867838198" fill="red" stroke="none" /><path d="M 106.74666289553966 80.11325718540242 l 4.379978289223891 -12.910605305165374 a34.633339251989476,34.633339251989476 0 0,0 0.5629039021945623,0.1963861185678288 l -4.6015641954817275 12.833298333425338" fill="red" stroke="none" /><path d="M 108.09893153111575 80.62456947434976 l 6.808352653048004 -16.287921847029725 a38.65361333957482,38.65361333957482 0 0,0 0.6116773110873165,0.26188830247135575 l -7.087713721925636 16.168314016595577" fill="red" stroke="none" /><path d="M 108.76106565485865 80.91482961587045 l 7.36101480849458 -16.03528923930732 a38.6441219673613,38.6441219673613 0 0,0 0.6021523196626888,0.2827185880627332 l -7.635945339456867 15.906205668604583" fill="red" stroke="none" /><line stroke="#e1ed5e" stroke-width="0.3" x1="143.23703022742887" x2="145.7803849466894" y1="26.81831364943548" y2="22.513508569990506" /><path d="M 143.74570117128098 25.957352633546492 a86.0,86.0 0 0,1 28.547481713284135,27.462654790039103" fill="none" id="id74" stroke="none" /><text fill="#e1ed5e" style="font-size:6.75px; font-family:Arial;" text-anchor="middle"><textPath startOffset="19.985693538727396" xlink:href="#id74">February</textPath></text><path d="M 110.68208982089419 81.91981866633111 l 22.662562821258174 -38.357966667959644 a65.55250117027973,65.55250117027973 0 0,0 0.9665495722205387,0.5823353024658962 l -23.31947445969635 37.96218475603513" fill="red" stroke="none" /><path d="M 116.38621287248628 86.86637796730983 l 13.764725636134786 -11.0324884276476 a38.6403932139917,38.6403932139917 0 0,0 0.41151267935971075,0.5225793130199545 l -13.95259239608846 10.793916720674606" fill="red" stroke="none" /><path d="M 116.60985879189232 87.15038557335679 l 19.075692617157994 -14.757217272147523 a45.11757679456345,45.11757679456345 0 0,0 0.46991902684558307,0.6183583560396171 l -19.32688758422769 14.426674140226872" fill="red" stroke="none" /><path d="M 117.04232023915458 87.72973835380427 l 16.854981534648367 -12.135380075582521 a41.76915626866394,41.76915626866394 0 0,0 0.41508075212903334,0.5871022873337979 l -17.061374906581285 11.84345128791693" fill="red" stroke="none" /><path d="M 117.2510076193507 88.02491185347247 l 17.06917184631336 -11.848863669768761 a41.778647640877466,41.778647640877466 0 0,0 0.40500526272044485,0.5942952480177184 l -17.27060157470254 11.553290398480636" fill="red" stroke="none" /><line stroke="#e1ed5e" stroke-width="0.3" x1="172.23445277983987" x2="176.4835382374775" y1="55.19839476539836" y2="52.563006222186495" /><path d="M 173.08426987136738 54.67131705675599 a86.0,86.0 0 0,1 12.851231095245387,41.99856678651699" fill="none" id="id75" stroke="none" /><text fill="#e1ed5e" style="font-size:6.75px; font-family:Arial;" text-anchor="middle"><textPath startOffset="22.20632615414155" xlink:href="#id75">March</textPath></text><path d="M 117.84615892207809 88.93136811851018 l 46.59399882181792 -28.898757603645652 a75.82826750173524,75.82826750173524 0 0,0 0.6784254050905807,1.1151529860195235 l -47.08454002519472 28.092436844419048" fill="red" stroke="none" /><path d="M 118.03404312379186 89.2402003453031 l 18.519600805354457 -11.04950193269135 a42.565414601862756,42.565414601862756 0 0,0 0.36999545893950053,0.6324421751177763 l -18.707055938764285 10.729080345219678" fill="red" stroke="none" /><path d="M 118.21658344932153 89.55222093294921 l 12.384724406684708 -7.103025919614621 a35.27705767461381,35.27705767461381 0 0,0 0.29757434308304614,0.5293515521072449 l -12.505156391060186 6.888790857572581" fill="red" stroke="none" /><path d="M 118.73160827565052 90.50648371742162 l 12.23536763704337 -6.201104580891626 a34.717066714015914,34.717066714015914 0 0,0 0.2655690070111992,0.5353709128941107 l -12.340296657007977 5.989574079498565" fill="red" stroke="none" /><path d="M 118.89224826269711 90.83032412892265 l 11.592242792043795 -5.626493339692062 a33.885554712595436,33.885554712595436 0 0,0 0.2501751240626089,0.5269326138869271 l -11.68737610994816 5.426118310164594" fill="red" stroke="none" /><path d="M 119.34039704204932 91.81776055985345 l 27.73140270291358 -11.732177805503987 a51.11103936982453,51.11103936982453 0 0,0 0.33581976160674004,0.8132141897152741 l -27.929244151406518 11.25308904533541" fill="red" stroke="none" /><path d="M 119.47837535516314 92.15188598940014 l 18.918086338312698 -7.6223656099785675 a41.39594195412503,41.39594195412503 0 0,0 0.260610025478955,0.6632240887496054 l -19.046489913673355 7.295592516333178" fill="red" stroke="none" /><path d="M 119.61058180528143 92.48833698450437 l 21.103431053779545 -8.083485952673037 a43.59861826282061,43.59861826282061 0 0,0 0.26241263314713176,0.7031353934813193 l -21.239448275428302 7.719027422162384" fill="red" stroke="none" /><path d="M 119.7369772167798 92.82701384747503 l 59.21093165033941 -21.518958457574904 a84.0,84.0 0 0,0 0.4821876767607618,1.3632094942935418 l -59.57257240790998 20.496551336854747" fill="red" stroke="none" /><path d="M 119.85752413597 93.16781622104841 l 32.56453176009644 -11.204159397569157 a55.43808816645412,55.43808816645412 0 0,0 0.30269910558499236,0.9050317974297452 l -32.75256815945321 10.641954497217098" fill="red" stroke="none" /><path d="M 119.97218684219823 93.5106431181261 l 33.01853729868928 -10.728373109145009 a55.71774466917402,55.71774466917402 0 0,0 0.2885237709321875,0.9146992000853816 l -33.198316553389674 10.15842374263321" fill="red" stroke="none" /><path d="M 120.08093135843002 93.85539295169968 l 50.72371107093152 -15.521056618300317 a74.04524543590901,74.04524543590901 0 0,0 0.36244831322514703,1.2219955294869855 l -50.98336528126838 14.645631702066801" fill="red" stroke="none" /><path d="M 120.18372546131832 94.20196356495316 l 18.47913228907545 -5.308369978844925 a40.2264693063873,40.2264693063873 0 0,0 0.18545020963163936,0.6671630744180558 l -18.56776926927345 4.989495601007917" fill="red" stroke="none" /><path d="M 120.28053869075195 94.5502522615342 l 38.605731098153164 -10.374058547069989 a60.97528692030798,60.97528692030798 0 0,0 0.26365617702974853,1.0159748022190567 l -38.778583607053214 9.707987319302083" fill="red" stroke="none" /><path d="M 120.37134235888165 94.90015583598534 l 21.148696289187793 -5.294450088111604 a42.80134299688463,42.80134299688463 0 0,0 0.1727690471867665,0.7162392397103101 l -21.23669813663538 4.9296256167418875" fill="red" stroke="none" /><path d="M 120.45610955862082 95.25157060432595 l 45.57725948534218 -10.57974382148617 a67.78907523688076,67.78907523688076 0 0,0 0.2540657486230331,1.1389269337900707 l -45.75261962096725 9.793638718146134" fill="red" stroke="none" /><path d="M 120.6074358757038 95.95851677861258 l 28.11680400364383 -5.514203334425495 a49.65241884715339,49.65241884715339 0 0,0 0.15726641408299366,0.8401234725430774 l -28.207556141636683 5.029401784419854" fill="red" stroke="none" /><path d="M 120.67395015179393 96.31383870115 l 12.262341178151571 -2.186373051706073 a33.45573114235444,33.45573114235444 0 0,0 0.0962061583412708,0.567814192448549 l -12.298159198013066 1.9749730709416862" fill="red" stroke="none" /><path d="M 120.73433829027371 96.67025291283417 l 11.166909284030641 -1.79330457237636 a32.30998692515052,32.30998692515052 0 0,0 0.083458398749652,0.5498865716975722 l -11.196123576219593 1.6008188882867058" fill="red" stroke="none" /><path d="M 120.83666639777658 97.38593545837742 l 11.967015712948792 -1.5013222771372743 a33.06082226275605,33.06082226275605 0 0,0 0.06597939954491404,0.5652712023605557 l -11.991085465497294 1.2951073364518657" fill="red" stroke="none" /><path d="M 120.87857604477298 97.74499172005257 l 11.629128585510104 -1.2560138772233858 a32.696760342851604,32.696760342851604 0 0,0 0.05562010763457036,0.5600868934293605 l -11.649025818826903 1.0556514530895904" fill="red" stroke="none" /><path d="M 120.94382443527127 98.46500227214037 l 48.3055850310434 -3.5403736072533376 a69.43515036076899,69.43515036076899 0 0,0 0.07710412713965133,1.1927667197559524 l -48.359369749187465 2.70834782324435" fill="red" stroke="none" /><path d="M 120.98425023603335 99.18683210126433 l 12.92331196034576 -0.5007957069371267 a33.93301157366305,33.93301157366305 0 0,0 0.01759395228829408,0.5838576223494034 l -12.9300176070897 0.27826793716272435" fill="red" stroke="none" /><line stroke="#e1ed5e" stroke-width="0.3" x1="184.98032266829074" x2="189.97916517819016" y1="98.17113171792111" y2="98.06355123074" /><path d="M 185.9800911702706 98.14961562048488 a86.0,86.0 0 0,1 -9.607161424134198,41.387399972396054" fill="none" id="id76" stroke="none" /><text fill="#e1ed5e" style="font-size:6.75px; font-family:Arial;" text-anchor="middle"><textPath startOffset="21.466115282336823" xlink:href="#id76">April</textPath></text><path d="M 120.99513854157772 99.54816195383933 l 13.302467725040888 -0.2862834657696972 a34.305547933043854,34.305547933043854 0 0,0 0.007623988001256364,0.5904862726268661 l -13.30542472015986 0.057260935082368264" fill="red" stroke="none" /><line stroke="#e1ed5e" stroke-width="0.3" x1="174.80103733775053" x2="179.2010983576182" y1="140.37084112569926" y2="142.7455964860345" /><path d="M 175.68104954172406 140.8457921977663 a86.0,86.0 0 0,1 -30.038265399797805,32.042727171017184" fill="none" id="id77" stroke="none" /><text fill="#e1ed5e" style="font-size:6.75px; font-family:Arial;" text-anchor="middle"><textPath startOffset="22.206326154141568" xlink:href="#id77">May</textPath></text><line stroke="#e1ed5e" stroke-width="0.3" x1="143.8653032363475" x2="146.44561519142675" y1="172.8068346515853" y2="177.08958963109032" /><path d="M 144.38136562736335 173.6633856474863 a86.0,86.0 0 0,1 -40.68145358897372,12.25698825130547" fill="none" id="id78" stroke="none" /><text fill="#e1ed5e" style="font-size:6.75px; font-family:Arial;" text-anchor="middle"><textPath startOffset="21.466115282336833" xlink:href="#id78">June</textPath></text><line stroke="#e1ed5e" stroke-width="0.3" x1="102.19456741930631" x2="102.32365962044197" y1="184.97166512339345" y2="189.96999836594603" /><path d="M 102.22038585953345 185.97133177190398 a86.0,86.0 0 0,1 -42.740103519485714,-10.115201625700543" fill="none" id="id79" stroke="none" /><text fill="#e1ed5e" style="font-size:6.75px; font-family:Arial;" text-anchor="middle"><textPath startOffset="22.20632615414155" xlink:href="#id79">July</textPath></text><line stroke="#e1ed5e" stroke-width="0.3" x1="58.666819895761336" x2="56.23545636021788" y1="174.27360380694188" y2="178.64263932499728" /><path d="M 58.180547188652646 175.14741091055294 a86.0,86.0 0 0,1 -31.652253787137756,-30.449443065178592" fill="none" id="id80" stroke="none" /><text fill="#e1ed5e" style="font-size:6.75px; font-family:Arial;" text-anchor="middle"><textPath startOffset="22.20632615414155" xlink:href="#id80">August</textPath></text><line stroke="#e1ed5e" stroke-width="0.3" x1="26.63291911575756" x2="22.317208475507996" y1="142.92168965132927" y2="145.44649492493687" /><path d="M 25.769776987707644 143.4266507060508 a86.0,86.0 0 0,1 -11.730757126820373,-40.83630448921669" fill="none" id="id81" stroke="none" /><text fill="#e1ed5e" style="font-size:6.75px; font-family:Arial;" text-anchor="middle"><textPath startOffset="21.46611528233685" xlink:href="#id81">September</textPath></text><line stroke="#e1ed5e" stroke-width="0.3" x1="15.007084014347285" x2="10.007500721073583" y1="101.09737516637583" y2="101.16192664675087" /><path d="M 14.007167355692545 101.11028546245083 a86.0,86.0 0 0,1 10.666146001902534,-42.60595125391555" fill="none" id="id82" stroke="none" /><text fill="#e1ed5e" style="font-size:6.75px; font-family:Arial;" text-anchor="middle"><textPath startOffset="22.20632615414155" xlink:href="#id82">October</textPath></text><line stroke="#e1ed5e" stroke-width="0.3" x1="26.266209847984243" x2="21.928928074336255" y1="57.711370442889674" y2="55.22380399835377" /><path d="M 25.398753493254645 57.213857153982495 a86.0,86.0 0 0,1 29.58750427330803,-30.492523968695096" fill="none" id="id83" stroke="none" /><text fill="#e1ed5e" style="font-size:6.75px; font-family:Arial;" text-anchor="middle"><textPath startOffset="21.46611528233685" xlink:href="#id83">November</textPath></text><line stroke="#e1ed5e" stroke-width="0.3" x1="56.762969772571076" x2="54.21961505331055" y1="26.818313649435495" y2="22.513508569990535" /><path d="M 56.25429882871897 25.957352633546506 a86.0,86.0 0 0,1 42.265352541879196,-11.944610805530505" fill="none" id="id84" stroke="none" /><text fill="#e1ed5e" style="font-size:6.75px; font-family:Arial;" text-anchor="middle"><textPath startOffset="22.20632615414155" xlink:href="#id84">December</textPath></text></svg>