<?xml version="1.0" encoding="utf-8" ?>
<svg baseProfile="full" height="200mm" version="1.1" viewBox="0,0,200,200" width="200mm" xmlns="http://www.w3.org/2000/svg" xmlns:ev="http://www.w3.org/2001/xml-events" xmlns:xlink="http://www.w3.org/1999/xlink"><defs /><rect fill="#1a1a1a" height="200" width="200" x="0" y="0" /><text alignment-baseline="middle" fill="#e1ed5e" style="dominant-baseline: central; font-size:9.0px; font-family:Arial;" text-anchor="middle" x="100.0" y="100.0">2024</text><line stroke="#e1ed5e" stroke-width="0.3" x1="100.0" x2="100.0" y1="15.0" y2="10.0" /><path d="M 100.0 14.0 a86.0,86.0 0 0,1 42.35913384403234,11.155469271406648" fill="none" id="id49" stroke="none" /><text fill="#e1ed5e" style="font-size:6.75px; font-family:Arial;" text-anchor="middle"><textPath startOffset="22.145653131862478" xlink:href="#id49">January</textPath></text><path d="M 101.08105385017728 79.02784411241856 l 1.863544898845194 -36.152273187574906 a57.20027149372031,57.20027149372031 0 0,0 0.9801828931700841,0.058965368844271907 l -2.4838721441477403 36.11495584090594" fill="#90ff24" stroke="none" /><path d="M 101.80034050326958 79.07731436759882 l 3.103437084576848 -36.0666431614543 a57.19991810313395,57.19991810313395 0 0,0 0.9775750276931561,0.092577371503466 l -3.722111675655017 36.00805403444566" fill="#91ff24" stroke="none" /><path d="M 102.15924093988457 79.11130261209362 l 2.2251422819493336 -21.526233091504775 a42.64093272677298,42.64093272677298 0 0,0 0.7274626342027812,0.08151370550427232 l -2.5943408177529115 21.48486362549353" fill="#ff930d" stroke="none" /><path d="M 102.87502721639298 79.19773525538626 l 3.44049186492858 -24.893685255517752 a46.13031137637219,46.13031137637219 0 0,0 0.7835011399262999,0.1151476862256088 l -3.867318110462562 24.83095649599326" fill="#ffcb12" stroke="none" /><path d="M 103.94208987418118 79.37332000966035 l 6.8336073682355325 -35.75632135822365 a57.40347108087035,57.40347108087035 0 0,0 0.9663013699909403,0.1932873368464028 l -7.44640522375743 35.63374462471439" fill="#8eff24" stroke="none" /><path d="M 104.64783097203109 79.52079915486377 l 5.562129740538698 -24.507769918625108 a46.13101815754489,46.13101815754489 0 0,0 0.7707567136535254,0.18189648576050566 l -5.982018607932107 24.408677289218375" fill="#ffcb12" stroke="none" /><path d="M 105.69591212413111 79.78721728523813 l 10.65610000240128 -37.814739631041505 a60.287491656055586,60.287491656055586 0 0,0 0.9937100769224383,0.2892545209062884 l -11.303670091705321 37.626241415832695" fill="#68ff28" stroke="none" /><path d="M 106.04205211174951 79.88797359093562 l 7.234987386465021 -24.08291995742139 a46.14621395275785,46.14621395275785 0 0,0 0.7567086205781925,0.23443026496593986 l -7.647336639914844 23.955173104648804" fill="#ffcb13" stroke="none" /><path d="M 106.38641147887787 79.99465700312896 l 5.631926996333423 -17.641931101311403 a39.51908028697559,39.51908028697559 0 0,0 0.6444945917791652,0.21185817360701167 l -5.93394432576033 17.54265200630237" fill="#ff5f08" stroke="none" /><path d="M 106.72888874123014 80.10723608172694 l 14.879928172649292 -43.98986365247275 a67.43835017080544,67.43835017080544 0 0,0 1.0934461417126715,0.38035732853421245 l -15.632880086406983 43.72794789136994" fill="#33ff56" stroke="none" /><line stroke="#e1ed5e" stroke-width="0.3" x1="143.13028292997686" x2="145.6673583964461" y1="26.7553504044142" y2="22.446841604673864" /><path d="M 143.63769802327073 25.89364864446614 a86.0,86.0 0 0,1 29.32050498858742,28.57503671076993" fill="none" id="id50" stroke="none" /><text fill="#e1ed5e" style="font-size:6.75px; font-family:Arial;" text-anchor="middle"><textPath startOffset="20.669276256404974" xlink:href="#id50">February</textPath></text><path d="M 113.03279911837588 83.53348406188908 l 13.340428533318832 -16.855195654431224 a42.49568919578399,42.49568919578399 0 0,0 0.5681253335685084,0.4576415532405512 l -13.6278046372426 16.623705807397265" fill="#ff910d" stroke="none" /><path d="M 115.41159269507618 85.73525988315684 l 16.111227635203125 -14.91231177248148 a42.953330005104526,42.953330005104526 0 0,0 0.4962179340826632,0.5454304341444084 l -16.364843270127665 14.6335437627794" fill="#ff980e" stroke="none" /><path d="M 116.1254893667686 86.54754324733833 l 14.119764432433467 -11.779209676360049 a39.38797237944052,39.38797237944052 0 0,0 0.4286783986220102,0.5229179441862243 l -14.319889650294105 11.53508945047533" fill="#ff5c08" stroke="none" /><path d="M 116.35404254752997 86.82634096563983 l 15.604284649581524 -12.569707144349758 a41.037246245926184,41.037246245926184 0 0,0 0.43720997996392075,0.5524005271612178 l -15.817761060187005 12.299986673273862" fill="#ff780b" stroke="none" /><path d="M 116.57777611688842 87.10902102172516 l 41.463456942055295 -32.24223490761943 a73.52408945830271,73.52408945830271 0 0,0 0.7662191235606957,1.0030054287052503 l -42.010828042970296 31.525708565673295" fill="#3dffab" stroke="none" /><path d="M 117.01052211995028 87.68569379921539 l 42.87186298868667 -31.035922620011593 a73.92660133615297,73.92660133615297 0 0,0 0.7353405160055806,1.0343485249775881 l -43.398318603222215 30.2953968683245" fill="#3dffb1" stroke="none" /><path d="M 117.42321728460499 88.27688183743584 l 20.871152095729386 -14.043042579930225 a46.15575549858924,46.15575549858924 0 0,0 0.436667648605718,0.6611704754494416 l -21.10914418325583 13.682692226141725" fill="#ffcc13" stroke="none" /><path d="M 117.81537515405839 88.88188828441811 l 12.582277964257225 -7.852272030951232 a35.83144951843521,35.83144951843521 0 0,0 0.32117269901755013,0.5246114667797869 l -12.715218627730177 7.63512344804689" fill="#ff1e03" stroke="none" /><line stroke="#e1ed5e" stroke-width="0.3" x1="172.87174338648825" x2="177.1583165268699" y1="56.24261187166439" y2="53.66864786411523" /><path d="M 173.72905801456457 55.72781907015455 a86.0,86.0 0 0,1 12.242430191666344,42.057860355516425" fill="none" id="id51" stroke="none" /><text fill="#e1ed5e" style="font-size:6.75px; font-family:Arial;" text-anchor="middle"><textPath startOffset="22.145653131862474" xlink:href="#id51">March</textPath></text><path d="M 118.00360718960297 89.18935116829356 l 15.78972692276236 -9.481277341415323 a39.41765718869374,39.41765718869374 0 0,0 0.3433583707097351,0.5830975787748954 l -15.950159003601863 9.20882859434687" fill="#ff5d08" stroke="none" /><path d="M 118.36410011445183 89.81374322990088 l 34.353382034120536 -19.055241919830234 a60.28431114077846,60.28431114077846 0 0,0 0.4942011670533668,0.9092744843407 l -34.67542855078924 18.462712602014932" fill="#68ff28" stroke="none" /><path d="M 118.53625476483649 90.13048839642627 l 15.290827134321265 -8.141504189762623 a38.32320654277429,38.32320654277429 0 0,0 0.3041985381755754,0.5833408070323846 l -15.428333741471786 7.87781713962574" fill="#ff4a06" stroke="none" /><path d="M 118.8641267826498 90.77261029715802 l 32.640305260788274 -15.966008929606518 a57.3359734788779,57.3359734788779 0 0,0 0.42488889230351357,0.8878543693932327 l -32.9095734110517 15.403342058148183" fill="#8fff24" stroke="none" /><path d="M 119.0197475246899 91.09779779509293 l 16.668751263595585 -7.801817245954613 a39.40422834641252,39.40422834641252 0 0,0 0.28148792392194416,0.6151019142515467 l -16.80022365237258 7.514526349488382" fill="#ff5d08" stroke="none" /><path d="M 119.16976305983485 91.42560881287824 l 57.50928917950454 -25.72317356136528 a84.0,84.0 0 0,0 0.5774644719321187,1.3213517208966026 l -57.94238753345363 24.732159770692828" fill="#4dd2ff" stroke="none" /><path d="M 119.31412917781788 91.75594674310238 l 26.76251665643202 -11.42332696302086 a50.09853427047281,50.09853427047281 0 0,0 0.33082723475799386,0.7938649299931134 l -26.954669735726494 10.962229523586469" fill="#f6ff19" stroke="none" /><path d="M 119.71291397450082 92.76114493625339 l 14.263452606310747 -5.237737366442135 a36.19473504120085,36.19473504120085 0 0,0 0.2091708042811745,0.5850879671210669 l -14.351263580635864 4.992114442940151" fill="#ff2503" stroke="none" /><path d="M 119.83427380445688 93.10060997987247 l 25.0433671586085 -8.71138309110502 a47.51524908426963,47.51524908426963 0 0,0 0.2613668555644513,0.772684666629581 l -25.189219435745315 8.280196750001277" fill="#ffe115" stroke="none" /><path d="M 119.94978838288452 93.4421083053983 l 48.716637266728085 -16.014126304943098 a72.28121476611713,72.28121476611713 0 0,0 0.3773605488023032,1.1820765444327614 l -48.984362531307646 15.175480726818947" fill="#3bff9b" stroke="none" /><path d="M 120.05942366710727 93.78553927170692 l 12.572851086340787 -3.8951014054736928 a34.162385779114054,34.162385779114054 0 0,0 0.16873563668883135,0.5616660562454813 l -12.637863043033246 3.678697745637488" fill="#ff0000" stroke="none" /><path d="M 120.16314734710363 94.1308016681162 l 37.730023540680016 -10.982659969437034 a60.295973030127946,60.295973030127946 0 0,0 0.28075386498648774,0.9962964220005726 l -37.91299589774109 10.333355623533448" fill="#68ff28" stroke="none" /><path d="M 120.26092885502905 94.47779374421319 l 31.60638074516937 -8.614459619428137 a53.759307354450755,53.759307354450755 0 0,0 0.23503190094239076,0.8924544102464915 l -31.749602126916493 8.070624704808848" fill="#c0ff1e" stroke="none" /><path d="M 120.35273937422433 94.82641323984039 l 27.699900988311736 -7.041206511608633 a49.58081706147313,49.58081706147313 0 0,0 0.20260250235182284,0.8266873478688764 l -27.81669101717985 6.564663339131661" fill="#feff18" stroke="none" /><path d="M 120.43855184770803 95.1765574152323 l 47.74230999806764 -11.267055163973575 a70.05379390036629,70.05379390036629 0 0,0 0.26616818380604906,1.1727861291752597 l -47.928689043431355 10.44583470085929" fill="#37ff7c" stroke="none" /><line stroke="#e1ed5e" stroke-width="0.3" x1="184.99686870605535" x2="189.99668451229388" y1="99.2704041080226" y2="99.22748670261217" /><path d="M 185.99683186730306 99.26182062694052 a86.0,86.0 0 0,1 -10.086455211305974,41.156179273409016" fill="none" id="id52" stroke="none" /><text fill="#e1ed5e" style="font-size:6.75px; font-family:Arial;" text-anchor="middle"><textPath startOffset="21.40746469413373" xlink:href="#id52">April</textPath></text><line stroke="#e1ed5e" stroke-width="0.3" x1="174.33088141563837" x2="178.70328620479359" y1="141.23008692659167" y2="143.65538615756765" /><path d="M 175.20536237346943 141.71514677278685 a86.0,86.0 0 0,1 -30.301960400862466,31.631185727798858" fill="none" id="id53" stroke="none" /><text fill="#e1ed5e" style="font-size:6.75px; font-family:Arial;" text-anchor="middle"><textPath startOffset="22.145653131862474" xlink:href="#id53">May</textPath></text><line stroke="#e1ed5e" stroke-width="0.3" x1="143.1302829299769" x2="145.66735839644613" y1="173.24464959558577" y2="177.55315839532614" /><path d="M 143.63769802327073 174.10635135553383 a86.0,86.0 0 0,1 -40.68552437913181,11.842963189579606" fill="none" id="id54" stroke="none" /><text fill="#e1ed5e" style="font-size:6.75px; font-family:Arial;" text-anchor="middle"><textPath startOffset="21.407464694133747" xlink:href="#id54">June</textPath></text><line stroke="#e1ed5e" stroke-width="0.3" x1="101.45913802915013" x2="101.54496967792366" y1="184.9874750549273" y2="189.98673829345242" /><path d="M 101.47630435890484 185.9873277026323 a86.0,86.0 0 0,1 -42.54439059252881,-10.42667462771756" fill="none" id="id55" stroke="none" /><text fill="#e1ed5e" style="font-size:6.75px; font-family:Arial;" text-anchor="middle"><textPath startOffset="22.145653131862474" xlink:href="#id55">July</textPath></text><line stroke="#e1ed5e" stroke-width="0.3" x1="58.13341422392154" x2="55.67067388415222" y1="173.97424548756322" y2="178.32567169271397" /><path d="M 57.64086615596768 174.84453072859336 a86.0,86.0 0 0,1 -31.369924170532247,-30.572349798747897" fill="none" id="id56" stroke="none" /><text fill="#e1ed5e" style="font-size:6.75px; font-family:Arial;" text-anchor="middle"><textPath startOffset="22.145653131862474" xlink:href="#id56">August</textPath></text><line stroke="#e1ed5e" stroke-width="0.3" x1="26.387840678322732" x2="22.057713659400548" y1="142.50000000000003" y2="145.00000000000006" /><path d="M 25.521815274538298 143.00000000000003 a86.0,86.0 0 0,1 -11.493303480769221,-40.785679425670985" fill="none" id="id57" stroke="none" /><text fill="#e1ed5e" style="font-size:6.75px; font-family:Arial;" text-anchor="middle"><textPath startOffset="21.40746469413373" xlink:href="#id57">September</textPath></text><line stroke="#e1ed5e" stroke-width="0.3" x1="15.003131293944662" x2="10.003315487706104" y1="100.72959589197737" y2="100.7725132973878" /><path d="M 14.003168132696942 100.73817937305945 a86.0,86.0 0 0,1 10.791469493833604,-42.45332614584628" fill="none" id="id58" stroke="none" /><text fill="#e1ed5e" style="font-size:6.75px; font-family:Arial;" text-anchor="middle"><textPath startOffset="22.145653131862435" xlink:href="#id58">October</textPath></text><line stroke="#e1ed5e" stroke-width="0.3" x1="26.387840678322718" x2="22.05771365940052" y1="57.49999999999999" y2="54.99999999999999" /><path d="M 25.521815274538284 56.99999999999999 a86.0,86.0 0 0,1 29.574782752854787,-30.34633250058573" fill="none" id="id59" stroke="none" /><text fill="#e1ed5e" style="font-size:6.75px; font-family:Arial;" text-anchor="middle"><textPath startOffset="21.40746469413373" xlink:href="#id59">November</textPath></text><line stroke="#e1ed5e" stroke-width="0.3" x1="56.869717070023135" x2="54.33264160355391" y1="26.7553504044142" y2="22.446841604673864" /><path d="M 56.362301976729285 25.89364864446614 a86.0,86.0 0 0,1 42.16139366436587,-11.88097634709845" fill="none" id="id60" stroke="none" /><text fill="#e1ed5e" style="font-size:6.75px; font-family:Arial;" text-anchor="middle"><textPath startOffset="22.145653131862474" xlink:href="#id60">December</textPath></text></svg>