<?xml version="1.0" encoding="utf-8" ?>
<svg baseProfile="full" height="200mm" version="1.1" viewBox="0,0,200,200" width="200mm" xmlns="http://www.w3.org/2000/svg" xmlns:ev="http://www.w3.org/2001/xml-events" xmlns:xlink="http://www.w3.org/1999/xlink"><defs /><rect fill="#1a1a1a" height="200" width="200" x="0" y="0" /><text alignment-baseline="middle" fill="#e1ed5e" style="dominant-baseline: central; font-size:9.0px; font-family:Arial;" text-anchor="middle" x="100.0" y="100.0">2025</text><line stroke="#e1ed5e" stroke-width="0.3" x1="100.0" x2="100.0" y1="15.0" y2="10.0" /><path d="M 100.0 14.0 a86.0,86.0 0 0,1 42.46469731375804,11.215312516191453" fill="none" id="id61" stroke="none" /><text fill="#e1ed5e" style="font-size:6.75px; font-family:Arial;" text-anchor="middle"><textPath startOffset="22.20632615414155" xlink:href="#id61">January</textPath></text><path d="M 100.0 79.0 l 0.0 -20.738684201370774 a41.73868420137077,41.73868420137077 0 0,0 0.7184628366341055,0.006184036461722412 l -0.35698235736157713 20.73561154151761" fill="#fff016" stroke="none" /><path d="M 100.36148047927253 79.00311137660856 l 0.10909098461200994 -6.336638864494723 a27.33757784504053,27.33757784504053 0 0,0 0.47043202340402535,0.012149871254866058 l -0.21814964321090308 6.333822201097497" fill="#ff2803" stroke="none" /><path d="M 100.72285384407766 79.0124445844662 l 0.2181747920765078 -6.334552380807879 a27.33830845771144,27.33830845771144 0 0,0 0.4701657488795601,0.020246326166678454 l -0.32718137334539943 6.329858328117006" fill="#ff2803" stroke="none" /><path d="M 101.08401301168833 79.027996857942 l 0.8264076512062244 -15.9882064798506 a37.009550151341195,37.009550151341195 0 0,0 0.6359262023798852,0.03836080516668429 l -1.1014959024257214 15.971612405303611" fill="#ffb210" stroke="none" /><path d="M 101.44485096284872 79.0497635885617 l 0.5960519184489673 -8.642710512077016 a29.6632397453293,29.6632397453293 0 0,0 0.5090915533101718,0.03951530259601455 l -0.7447336611214803 8.631169947292538" fill="#ff4b07" stroke="none" /><path d="M 102.52436894288641 79.15227682838746 l 1.0072855350562342 -8.318756277206724 a29.37951849145879,29.37951849145879 0 0,0 0.5015297458437791,0.0651129550106069 l -1.1503300094078595 8.300184999031979" fill="#ff4706" stroke="none" /><path d="M 103.59715602781102 79.31037775812273 l 1.504436284880528 -8.653007592804519 a29.78281668580176,29.78281668580176 0 0,0 0.5043292819413827,0.09216295268314381 l -1.6531606879248115 8.625829158770637" fill="#ff4c07" stroke="none" /><path d="M 103.95276090670814 79.375362276772 l 1.853093038927462 -9.669032227690133 a30.84500574052813,30.84500574052813 0 0,0 0.5205955302201197,0.1044265658536833 l -2.019254978614707 9.635701705759242" fill="#ff5c08" stroke="none" /><path d="M 105.01212808612495 79.60689891045804 l 1.6485343760757147 -6.7074758671797685 a27.907090422015795,27.907090422015795 0 0,0 0.4655050341664479,0.11866759811097599 l -1.7637482989271878 6.678105272899924" fill="#ff3104" stroke="none" /><path d="M 105.36241919743992 79.69619591428918 l 1.9601383744877914 -7.4216998095717495 a28.676182026928295,28.676182026928295 0 0,0 0.4761640572283325,0.13015362404197153 l -2.087600320939835 7.386859644703484" fill="#ff3c05" stroke="none" /><path d="M 105.71112130821622 79.79150937346287 l 2.2471201538364096 -7.951311855375239 a29.262742232891487,29.262742232891487 0 0,0 0.4835456100500547,0.14116022326729227 l -2.3836559816098917 7.911453303189243" fill="#ff4506" stroke="none" /><path d="M 106.40334571778207 80.00007090966166 l 4.329678767032259 -13.52312871131095 a35.199335490380264,35.199335490380264 0 0,0 0.5754541199761745,0.18971817584313494 l -4.561815709250851 13.446596811208577" fill="#ff990e" stroke="none" /><path d="M 109.08828744355905 81.06846463323043 l 4.260467398798405 -8.874850156338658 a30.84451866541419,30.84451866541419 0 0,0 0.47666345534095017,0.23389668740914613 l -4.412602121149788 8.80019830879468" fill="#ff5c08" stroke="none" /><line stroke="#e1ed5e" stroke-width="0.3" x1="143.23703022742887" x2="145.7803849466894" y1="26.81831364943548" y2="22.513508569990506" /><path d="M 143.74570117128098 25.957352633546492 a86.0,86.0 0 0,1 28.547481713284135,27.462654790039103" fill="none" id="id62" stroke="none" /><text fill="#e1ed5e" style="font-size:6.75px; font-family:Arial;" text-anchor="middle"><textPath startOffset="19.985693538727396" xlink:href="#id62">February</textPath></text><path d="M 111.2981086023043 82.29822771554956 l 3.9851091064384963 -6.243832168198172 a28.407194795254497,28.407194795254497 0 0,0 0.4099198441872041,0.2666232693216437 l -4.09199597640998 6.1743099747170005" fill="#ff3805" stroke="none" /><path d="M 111.90073688211348 82.69761687909136 l 7.06689491563371 -10.274500185721351 a33.47021883589048,33.47021883589048 0 0,0 0.47188045469656736,0.3305824144081766 l -7.242706509913928 10.15133292854924" fill="#ff810b" stroke="none" /><path d="M 112.19680574252982 82.90503203632743 l 5.028853802829243 -7.048410581271395 a29.658490762968377,29.658490762968377 0 0,0 0.41303640635752364,0.30008851483324295 l -5.149435525540555 6.960802831621478" fill="#ff4b06" stroke="none" /><path d="M 112.48926042617603 83.11751280151076 l 11.712565126040701 -15.832581278185184 a40.69402985074626,40.69402985074626 0 0,0 0.5595503637368647,0.4214417332710072 l -11.983361643535948 15.62862295540833" fill="#ffe315" stroke="none" /><path d="M 112.77801427241765 83.33499621200491 l 5.989050503043008 -7.810881032990245 a30.84269213373691,30.84269213373691 0 0,0 0.4185315794931117,0.3266705364322838 l -6.122614637695549 7.7066321073347375" fill="#ff5c08" stroke="none" /><path d="M 113.06298171725822 83.55741782278167 l 15.570927562962211 -19.5993733721046 a46.03176425564485,46.03176425564485 0 0,0 0.616160594778205,0.4982256832134788 l -15.905991556304908 19.328441591626994" fill="#d8ff1c" stroke="none" /><path d="M 113.34407831869373 83.78471172551755 l 4.782831258123226 -5.811940380327869 a28.526893504505445,28.526893504505445 0 0,0 0.37647683470207594,0.3152885221688327 l -4.882165629784419 5.728750700765217" fill="#ff3a05" stroke="none" /><path d="M 113.6212207817346 84.01681056812373 l 5.615758148662934 -6.589550799590825 a29.657881919075948,29.657881919075948 0 0,0 0.38570245100484035,0.33447736473633166 l -5.728354398314538 6.491908441434822" fill="#ff4b06" stroke="none" /><path d="M 113.89432698308785 84.25364557470407 l 4.473854372489929 -5.070191358108547 a27.761820269282957,27.761820269282957 0 0,0 0.3556011722272404,0.3192622434952592 l -4.56046653231316 4.992430105843989" fill="#ff2f04" stroke="none" /><path d="M 114.16331599549186 84.49514656593476 l 8.412676926058541 -9.209518644376642 a33.47350659290958,33.47350659290958 0 0,0 0.42207241178779403,0.3922703076435873 l -8.569957221641182 9.063343750658413" fill="#ff810b" stroke="none" /><path d="M 114.42810811169701 84.74124197986012 l 6.762616190567003 -7.151951124575065 a30.84293567129388,30.84293567129388 0 0,0 0.38262388374077727,0.368083873006122 l -6.884723317920199 7.034484164806642" fill="#ff5c08" stroke="none" /><path d="M 114.68862486808459 84.99185889309783 l 10.51578395515467 -10.744529924756625 a36.03418223567478,36.03418223567478 0 0,0 0.4395555932869767,0.4376680018790948 l -10.699175348608971 10.561926072227411" fill="#ffa50f" stroke="none" /><path d="M 115.9244219780498 86.31012108654704 l 9.408869996609976 -8.08860071301536 a33.40775145252757,33.40775145252757 0 0,0 0.37112732576833457,0.4392976941252716 l -9.54670793586543 7.925444069260982" fill="#ff800b" stroke="none" /><path d="M 116.15771136456269 86.58626213691792 l 7.570958377967866 -6.285224977907293 a30.83989145183175,30.83989145183175 0 0,0 0.3355696048068297,0.4113686572964706 l -7.678026474851104 6.153972151002722" fill="#ff5c08" stroke="none" /><path d="M 116.38621287248628 86.86637796730983 l 10.559471763391032 -8.463463283703796 a34.532651428173814,34.532651428173814 0 0,0 0.3677660275324806,0.4670255077414207 l -10.703591871517476 8.280445382009336" fill="#ff900d" stroke="none" /><path d="M 116.60985879189232 87.15038557335679 l 12.66239522137371 -9.795802502056363 a37.00918484500574,37.00918484500574 0 0,0 0.38546662658551756,0.5072288966964563 l -12.829137788183342 9.576388829478873" fill="#ffb210" stroke="none" /><path d="M 117.2510076193507 88.02491185347247 l 5.283895067071183 -3.667908019135232 a27.43219218592353,27.43219218592353 0 0,0 0.26592967533939904,0.39021898456215176 l -5.346249208079315 3.5764110113026732" fill="#ff2a04" stroke="none" /><path d="M 117.45458315368197 88.32363383020206 l 4.495472636451147 -3.0072780396613377 a26.40860383397697,26.40860383397697 0 0,0 0.24950265981717307,0.38000966829513244 l -4.546571931626245 2.929450307388531" fill="#ff1b02" stroke="none" /><line stroke="#e1ed5e" stroke-width="0.3" x1="172.23445277983987" x2="176.4835382374775" y1="55.19839476539836" y2="52.563006222186495" /><path d="M 173.08426987136738 54.67131705675599 a86.0,86.0 0 0,1 12.851231095245387,41.99856678651699" fill="none" id="id63" stroke="none" /><text fill="#e1ed5e" style="font-size:6.75px; font-family:Arial;" text-anchor="middle"><textPath startOffset="22.20632615414155" xlink:href="#id63">March</textPath></text><path d="M 117.84615892207809 88.93136811851018 l 13.597738700656546 -8.433655934334196 a37.00078279929026,37.00078279929026 0 0,0 0.3310410732871175,0.5441444830945681 l -13.740895572229888 8.198343678032545" fill="#ffb210" stroke="none" /><path d="M 118.03404312379186 89.2402003453031 l 10.70949734126581 -6.389695588700599 a33.4708276797829,33.4708276797829 0 0,0 0.29094170382929285,0.49731368198320797 l -10.81789871956543 6.204402494363496" fill="#ff810b" stroke="none" /><path d="M 118.73160827565052 90.50648371742162 l 5.6522409111585254 -2.8646574460395966 a27.336725463591133,27.336725463591133 0 0,0 0.2091129154460723,0.4215588772962185 l -5.700713839558006 2.766938980244428" fill="#ff2803" stroke="none" /><path d="M 118.89224826269711 90.83032412892265 l 11.220894302079722 -5.4462529976832155 a33.472775980238666,33.472775980238666 0 0,0 0.24712760214792776,0.520513755519623 l -11.312980098069406 5.252296826523052" fill="#ff810b" stroke="none" /><path d="M 119.61058180528143 92.48833698450437 l 11.646632859365964 -4.461141549670611 a33.47180183001079,33.47180183001079 0 0,0 0.20146105551886984,0.5398154686554227 l -11.721698503386458 4.260002943985855" fill="#ff810b" stroke="none" /><path d="M 119.85752413597 93.16781622104841 l 10.229518501685689 -3.519570209012268 a31.818060049403336,31.818060049403336 0 0,0 0.17373070819985306,0.5194327046556395 l -10.288586503657314 3.3429644014343145" fill="#ff6a09" stroke="none" /><path d="M 120.08093135843002 93.85539295169968 l 15.523953255683168 -4.750207591955694 a37.23445708520336,37.23445708520336 0 0,0 0.1822610767907762,0.6144937441037592 l -15.603420229585646 4.4822844611054045" fill="#ffb510" stroke="none" /><path d="M 120.45610955862082 95.25157060432595 l 7.336694989675017 -1.7030500377519584 a28.531764255644852,28.531764255644852 0 0,0 0.10693380931685147,0.479363299554549 l -7.364923185993906 1.5765085686474454" fill="#ff3a05" stroke="none" /><path d="M 120.53481517161879 95.60439243477599 l 4.815485481512061 -1.030785241350298 a25.92457293949831,25.92457293949831 0 0,0 0.08965051142711361,0.4371677324496957 l -4.832515288854172 0.9477418527371905" fill="#ff1302" stroke="none" /><path d="M 120.6074358757038 95.95851677861258 l 16.135429429796883 -3.164443538911554 a37.442803465191524,37.442803465191524 0 0,0 0.11859433177488697,0.6335356624972985 l -16.187509485481627 2.8862297989516925" fill="#ffb811" stroke="none" /><path d="M 120.67395015179393 96.31383870115 l 5.777768357895906 -1.0301749766358943 a26.86888981665101,26.86888981665101 0 0,0 0.07726486852599003,0.4560216277538229 l -5.7946450879421185 0.9305675605662335" fill="#ff2103" stroke="none" /><path d="M 120.73433829027371 96.67025291283417 l 7.434198899678673 -1.1938650650466311 a28.529450648853633,28.529450648853633 0 0,0 0.07369307433879292,0.4855452849936465 l -7.453647867456766 1.0657206676609026" fill="#ff3a05" stroke="none" /><path d="M 120.83666639777658 97.38593545837742 l 10.635208126024223 -1.3342403206101525 a31.718574957380927,31.718574957380927 0 0,0 0.06330067998538283,0.542321569040959 l -10.656599159013194 1.1509750132443408" fill="#ff6809" stroke="none" /><path d="M 120.87857604477298 97.74499172005257 l 5.013773488723216 -0.5415168499329855 a26.042932192185923,26.042932192185923 0 0,0 0.044301352074652314,0.4461085696064032 l -5.022351966480097 0.45513274962214745" fill="#ff1502" stroke="none" /><path d="M 120.91429891909075 98.10471618934814 l 5.04369581025516 -0.45706695940467257 a26.064363497199317,26.064363497199317 0 0,0 0.036645894579577565,0.4471727345180363 l -5.050816188654233 0.3701803076788675" fill="#ff1502" stroke="none" /><line stroke="#e1ed5e" stroke-width="0.3" x1="184.98032266829074" x2="189.97916517819016" y1="98.17113171792111" y2="98.06355123074" /><path d="M 185.9800911702706 98.14961562048488 a86.0,86.0 0 0,1 -9.607161424134198,41.387399972396054" fill="none" id="id64" stroke="none" /><text fill="#e1ed5e" style="font-size:6.75px; font-family:Arial;" text-anchor="middle"><textPath startOffset="21.466115282336823" xlink:href="#id64">April</textPath></text><path d="M 120.89721153311464 102.0752229133903 l 17.309407335663717 1.718931670058164 a38.39454823783181,38.39454823783181 0 0,0 -0.07097085702378453,0.6571019931546931 l -17.27725417713888 -2.0166299850976483" fill="#ffc412" stroke="none" /><path d="M 120.8583938346157 102.4346265915055 l 4.910354586575065 0.5731447946081487 a25.943690637720486,25.943690637720486 0 0,0 -0.05559175825067134,0.44312101047669866 l -4.899761319077545 -0.6575835593722422" fill="#ff1402" stroke="none" /><path d="M 120.76222939487914 103.15116336523771 l 6.269312503556412 0.9515176578920865 a27.341109139616602,27.341109139616602 0 0,0 -0.0746259242713984,0.46469570167400537 l -6.252004824923725 -1.0592925892592968" fill="#ff2903" stroke="none" /><path d="M 120.5718875245553 104.21870165774334 l 7.882562128229124 1.616486473491154 a29.046602651080264,29.046602651080264 0 0,0 -0.10465900530395848,0.48893203000316865 l -7.853569084200722 -1.7519323229104915" fill="#ff4206" stroke="none" /><path d="M 120.13307415673323 105.97154293290107 l 24.43816511034425 7.248448548973354 a46.490467244198584,46.490467244198584 0 0,0 -0.23416413181508586,0.7652619314176927 l -24.309774206023032 -7.6680374529431035" fill="#d2ff1c" stroke="none" /><path d="M 119.79798401119884 107.00284435728193 l 6.0084582052565585 2.125281928445062 a27.373256097136693,27.373256097136693 0 0,0 -0.16094919168033983,0.44286305057702596 l -5.970984752570993 -2.228392776028219" fill="#ff2904" stroke="none" /><path d="M 119.26925614724726 108.34839909993367 l 5.923303506558232 2.5662693611475476 a27.455328253835717,27.455328253835717 0 0,0 -0.19161062510614277,0.4320313758866345 l -5.878251796720816 -2.6678490735268694" fill="#ff2a04" stroke="none" /><line stroke="#e1ed5e" stroke-width="0.3" x1="174.80103733775053" x2="179.2010983576182" y1="140.37084112569926" y2="142.7455964860345" /><path d="M 175.68104954172406 140.8457921977663 a86.0,86.0 0 0,1 -30.038265399797805,32.042727171017184" fill="none" id="id65" stroke="none" /><text fill="#e1ed5e" style="font-size:6.75px; font-family:Arial;" text-anchor="middle"><textPath startOffset="22.206326154141568" xlink:href="#id65">May</textPath></text><path d="M 118.48025628344425 109.97397251340804 l 28.02117696240807 15.123299402875626 a52.84180496120795,52.84180496120795 0 0,0 -0.4388979691617584,0.7967273005615031 l -27.756702583794805 -15.603397221834934" fill="#88ff25" stroke="none" /><path d="M 118.30583269289576 110.29060199501025 l 6.455624747570624 3.629021745193225 a28.405733569912677,28.405733569912677 0 0,0 -0.24327211811314936,0.4241654433981357 l -6.392200633305095 -3.739607034449676" fill="#ff3805" stroke="none" /><path d="M 118.12598468904814 110.60418214915192 l 45.11484415864565 26.39338128636609 a73.26815224576418,73.26815224576418 0 0,0 -0.6462220475318766,1.083105322286151 l -44.65384123541555 -27.166048702538344" fill="#3fffbf" stroke="none" /><path d="M 117.94076556474637 110.91462005526583 l 7.398597032116582 4.50108303662634 a29.660195525867167,29.660195525867167 0 0,0 -0.2691102877161798,0.43389147037950926 l -7.320022104732439 -4.627770838371123" fill="#ff4b06" stroke="none" /><path d="M 117.75023020441432 111.22182372390056 l 36.82109038107024 23.278559253582028 a64.56241519674354,64.56241519674354 0 0,0 -0.6019527097216193,0.9342439731044428 l -36.414932807971574 -23.908924826607926" fill="#34ff5a" stroke="none" /><path d="M 117.35343817320211 111.8261652097733 l 4.024965654988947 2.7429670319204185 a25.870751139407854,25.870751139407854 0 0,0 -0.25395110337674603,0.3658355049824896 l -3.977153644450065 -2.8118437990899277" fill="#ff1202" stroke="none" /><path d="M 117.14729908036423 112.12312394758627 l 3.982821088393407 2.815850676503631 a25.87769195978151,25.87769195978151 0 0,0 -0.2602805461231069,0.36150691378511207 l -3.9337607498946974 -2.8839911957398745" fill="#ff1302" stroke="none" /><path d="M 116.71984013943494 112.70617746262583 l 6.168651315403324 4.68784256696989 a28.74778206867759,28.74778206867759 0 0,0 -0.3028006387472446,0.39141064351768395 l -6.087043859438011 -4.793331204600827" fill="#ff3d05" stroke="none" /><path d="M 116.27256486870786 113.27417163493432 l 4.908529015963604 4.004080313009071 a27.334533625578402,27.334533625578402 0 0,0 -0.3005549121519284,0.3620377533333213 l -4.838878103918133 -4.087979323456163" fill="#ff2803" stroke="none" /><path d="M 116.0416608686014 113.55231037782055 l 8.780971759250601 7.4183375197244406 a32.49509445778102,32.49509445778102 0 0,0 -0.36465297196100815,0.42417378837081376 l -8.651976277718815 -7.568388407256783" fill="#ff730a" stroke="none" /><path d="M 115.80600337817218 113.82643327865902 l 6.516683819818022 5.700523521161632 a29.65812545663292,29.65812545663292 0 0,0 -0.3394318090248123,0.38135523573127844 l -6.417593161144871 -5.811852926633777" fill="#ff4b06" stroke="none" /><path d="M 115.56566222782051 114.09645910891815 l 6.50839240618533 5.894081862743274 a29.780624847789028,29.780624847789028 0 0,0 -0.34737481088560845,0.37700674985794774 l -6.405971187304 -6.005239867402556" fill="#ff4c07" stroke="none" /><path d="M 114.81725581225074 114.88116024355365 l 3.6300377951013787 3.6456935618535624 a26.144730890999547,26.144730890999547 0 0,0 -0.3216424986100846,0.3147948816622042 l -3.5667453441154997 -3.707638546438339" fill="#ff1702" stroke="none" /><path d="M 114.29624159901734 115.38237550388516 l 5.044859472981236 5.428134537336272 a28.410482552273596,28.410482552273596 0 0,0 -0.3610843139555059,0.3298419595719038 l -4.950675609558867 -5.514169263494759" fill="#ff3805" stroke="none" /><path d="M 114.0293411484842 115.62618273729858 l 9.09021714246408 10.124879898954845 a34.6068086142713,34.6068086142713 0 0,0 -0.44668762459030525,0.39414989322138577 l -8.914587164967188 -10.27985293394852" fill="#ff910d" stroke="none" /><path d="M 113.20401910651253 116.32954008644616 l 8.747476991140818 10.818090691162837 a34.912204710712174,34.912204710712174 0 0,0 -0.4705541883850038,0.3738367060356976 l -8.559965310038463 -10.96706131120366" fill="#ff950d" stroke="none" /><path d="M 112.92097659922987 116.55440617244103 l 9.081725280796773 11.635542243284974 a35.76020248408308,35.76020248408308 0 0,0 -0.4885035598066208,0.37456369879930385 l -8.880092992496659 -11.790145283911649" fill="#ffa10e" stroke="none" /><path d="M 112.63410532772338 116.77436683061366 l 3.17182284538329 4.211245557168989 a26.272101033295066,26.272101033295066 0 0,0 -0.3635746389979768,0.26896382608867014 l -3.098863235966749 -4.265219331997428" fill="#ff1902" stroke="none" /><path d="M 112.34349029814194 116.9893568818739 l 18.585592583229058 25.580873612799603 a52.61969870925095,52.61969870925095 0 0,0 -0.7373590165218036,0.5260860801921697 l -18.14250623885837 -25.89700395483599" fill="#8aff24" stroke="none" /><line stroke="#e1ed5e" stroke-width="0.3" x1="143.8653032363475" x2="146.44561519142675" y1="172.8068346515853" y2="177.08958963109032" /><path d="M 144.38136562736335 173.6633856474863 a86.0,86.0 0 0,1 -40.68145358897372,12.25698825130547" fill="none" id="id66" stroke="none" /><text fill="#e1ed5e" style="font-size:6.75px; font-family:Arial;" text-anchor="middle"><textPath startOffset="21.466115282336833" xlink:href="#id66">June</textPath></text><path d="M 110.8373102113329 117.98757091392108 l 1.886528255311005 3.1312253789724145 a24.65562049890408,24.65562049890408 0 0,0 -0.36541053614238955,0.21589098563437992 l -1.8323498481402334 -3.163234936900544" fill="#ff0000" stroke="none" /><path d="M 110.5260780823613 118.17145234162733 l 6.851612689544987 11.82812368264573 a34.66927599763421,34.66927599763421 0 0,0 -0.5189680790383614,0.2946836195128562 l -6.646995843585426 -11.944310467953215" fill="#ff920d" stroke="none" /><path d="M 109.57404056367764 118.69057910512821 l 6.236466669232033 12.174919548596717 a34.67926103746999,34.67926103746999 0 0,0 -0.5336413185099012,0.26757883531291327 l -6.0259714430393725 -12.280466224818934" fill="#ff920d" stroke="none" /><path d="M 109.2508944713604 118.85261126421891 l 27.752683414081186 56.55783379265672 a84.0,84.0 0 0,0 -1.303549327999069,0.6257828940017598 l -26.775021418081884 -57.02717096315804" fill="#4dd2ff" stroke="none" /><path d="M 108.2653958097858 119.30500536409082 l 2.0297566824400057 4.7407848993645425 a26.157029537626553,26.157029537626553 0 0,0 -0.4154340897888754,0.17365148322445223 l -1.947851133153669 -4.775021425608968" fill="#ff1702" stroke="none" /><path d="M 107.93186726928326 119.44442032107085 l 2.8093467194468236 6.886917870157659 a28.437880527432768,28.437880527432768 0 0,0 -0.4548421291049563,0.18099107004259976 l -2.690383514300001 -6.934255784606328" fill="#ff3905" stroke="none" /><path d="M 107.59598834532513 119.57807347666477 l 2.290627108553843 5.903914513837737 a27.332707093901124,27.332707093901124 0 0,0 -0.44009534360404085,0.1664064014894363 l -2.1886615441895274 -5.942469165433804" fill="#ff2803" stroke="none" /><path d="M 104.48393922423573 120.51570834832081 l 2.6625225406686575 12.182041991101856 a33.46960999199805,33.46960999199805 0 0,0 -0.5638968475141675,0.11817006706294539 l -2.452434231725112 -12.226068038891343" fill="#ff810b" stroke="none" /><path d="M 104.13013068566511 120.58985236759428 l 1.2456154960791235 6.209740350365383 a27.333437706572035,27.333437706572035 0 0,0 -0.46210740909142817,0.08856398477727538 l -1.1385404724159909 -6.230261533491126" fill="#ff2803" stroke="none" /><path d="M 103.7750983002368 120.6578951692458 l 2.8775005906425286 15.746108001269107 a37.006871238214515,37.006871238214515 0 0,0 -0.6276207263853101,0.10911990816953976 l -2.6060308927851685 -15.793306487959653" fill="#ffb210" stroke="none" /><path d="M 102.70371172650421 120.8252237178851 l 2.694336576540451 20.753012027019512 a41.92718227046585,41.92718227046585 0 0,0 -0.7165007593141218,0.08675826369518734 l -2.336708394174949 -20.79631581944005" fill="#fff316" stroke="none" /><line stroke="#e1ed5e" stroke-width="0.3" x1="102.19456741930631" x2="102.32365962044197" y1="184.97166512339345" y2="189.96999836594603" /><path d="M 102.22038585953345 185.97133177190398 a86.0,86.0 0 0,1 -42.740103519485714,-10.115201625700543" fill="none" id="id67" stroke="none" /><text fill="#e1ed5e" style="font-size:6.75px; font-family:Arial;" text-anchor="middle"><textPath startOffset="22.20632615414155" xlink:href="#id67">July</textPath></text><path d="M 100.54218724476979 120.99299961872073 l 0.26304214588710967 10.184753923269003 a31.188150158299408,31.188150158299408 0 0,0 -0.5367930792804655,0.009241379665761825 l -0.08768937671397627 -10.187772780213924" fill="#ff6108" stroke="none" /><path d="M 99.09653310690486 120.98055641714683 l -1.1611041052599875 26.963478543339086 a47.988466757123476,47.988466757123476 0 0,0 -0.8249718608506772,-0.0426416220415988 l 1.6250640345241536 -26.939497114535286" fill="#c0ff1e" stroke="none" /><path d="M 98.37488393609728 120.93702456842531 l -0.7613991694403255 9.809412060494532 a30.83891730160387,30.83891730160387 0 0,0 -0.5288957762319675,-0.045635353050657336 l 0.9301392634138347 -9.794852455165211" fill="#ff5c08" stroke="none" /><path d="M 96.93821686468263 120.77559828337769 l -0.9232503472492363 6.264675674833815 a27.332341787565667,27.332341787565667 0 0,0 -0.4648634404815586,-0.07260210900370695 l 1.0309496513393122 -6.2478552584830025" fill="#ff2803" stroke="none" /><path d="M 96.58105272829116 120.7198165907248 l -1.0319012422718408 6.253622176784009 a27.338186688932957,27.338186688932957 0 0,0 -0.46364396701678984,-0.08061044668746839 l 1.1393941807606804 -6.234933151575534" fill="#ff2803" stroke="none" /><path d="M 96.22490169976321 120.6578951692458 l -3.6502379823359123 19.97464107813158 a41.305430887520444,41.305430887520444 0 0,0 -0.6983221742447796,-0.13383510671479104 l 3.993527771152387 -19.90884877306832" fill="#ffeb16" stroke="none" /><path d="M 95.51606077576429 120.51570834832081 l -1.5925630899284804 7.286575095103424 a28.458581219775247,28.458581219775247 0 0,0 -0.4776703074684507,-0.10871620681881286 l 1.7177535467897938 -7.258082154706924" fill="#ff3905" stroke="none" /><path d="M 95.16358092515715 120.4354850818985 l -1.7174170183080877 7.256660209531969 a28.457119994433427,28.457119994433427 0 0,0 -0.47570373808162675,-0.11691640500601787 l 1.842074041132925 -7.2260225462119205" fill="#ff3905" stroke="none" /><path d="M 94.46302465271185 120.25689768951611 l -1.6696521237656297 6.108384113497754 a27.332463556344152,27.332463556344152 0 0,0 -0.45276724619850717,-0.12795654634548015 l 1.7745505380687507 -6.078738773813753" fill="#ff2803" stroke="none" /><path d="M 94.11515582081647 120.15858648285463 l -4.485957568381898 15.36668785904695 a37.008088925999374,37.008088925999374 0 0,0 -0.6099726535918661,-0.18377975684525377 l 4.74980519641401 -15.28719273309597" fill="#ffb210" stroke="none" /><path d="M 93.08242187328487 119.8279376855182 l -2.439110338339151 6.991251404869534 a28.40451588212782,28.40451588212782 0 0,0 -0.46026195926049346,-0.1650335632546661 l 2.559091858229371 -6.9482303005749095" fill="#ff3805" stroke="none" /><path d="M 92.7421414339146 119.70592522655815 l -2.1065962053599763 5.719652281370506 a27.09525797585499,27.09525797585499 0 0,0 -0.4362720760866205,-0.1649607688583459 l 2.2047385022068795 -5.682543262405527" fill="#ff2503" stroke="none" /><path d="M 92.06813273071674 119.44442032107085 l -5.580703189879806 13.680705290088564 a35.775180043836755,35.775180043836755 0 0,0 -0.5681925517255422,-0.23750453270305785 l 5.815367201102811 -13.582615714365534" fill="#ffa10e" stroke="none" /><path d="M 91.7346041902142 119.30500536409082 l -7.2682744247378785 16.9760868065295 a39.466600563615486,39.466600563615486 0 0,0 -0.6222178803882925,-0.2727620334642742 l 7.5594129797839145 -16.848460219770775" fill="#ffd313" stroke="none" /><path d="M 91.40352486487194 119.15986991738527 l -2.5941757149999947 5.781912756210101 a27.337212538705074,27.337212538705074 0 0,0 -0.42767377264156237,-0.1963240529458185 l 2.693317483408977 -5.736401632930208" fill="#ff2803" stroke="none" /><path d="M 90.42595943632237 118.69057910512821 l -1.6655115503536666 3.2514355015885124 a24.653185123334378,24.653185123334378 0 0,0 -0.3760304512715457,-0.19672135980860028 l 1.721232904151708 -3.222284722835195" fill="#ff0000" stroke="none" /><line stroke="#e1ed5e" stroke-width="0.3" x1="58.666819895761336" x2="56.23545636021788" y1="174.27360380694188" y2="178.64263932499728" /><path d="M 58.180547188652646 175.14741091055294 a86.0,86.0 0 0,1 -31.652253787137756,-30.449443065178592" fill="none" id="id68" stroke="none" /><text fill="#e1ed5e" style="font-size:6.75px; font-family:Arial;" text-anchor="middle"><textPath startOffset="22.20632615414155" xlink:href="#id68">August</textPath></text><path d="M 89.7882731507175 118.34994917583269 l -6.034024590620808 10.842832578448403 a33.40872560275545,33.40872560275545 0 0,0 -0.5000987661341528,-0.28396913118703027 l 6.219772123676168 -10.73736028146674" fill="#ff800b" stroke="none" /><path d="M 89.1626897886671 117.98757091392108 l -3.816290628061599 6.334209961859855 a28.395017917405976,28.395017917405976 0 0,0 -0.41648838746932465,-0.25584118450419324 l 3.9247582154632323 -6.267580310527284" fill="#ff3805" stroke="none" /><path d="M 88.8546689885994 117.79835938074946 l -2.5592034469346947 4.086879306716293 a25.822043628013777,25.822043628013777 0 0,0 -0.3746879334187657,-0.2391435668538527 l 2.629173182400384 -4.042221311038635" fill="#ff1202" stroke="none" /><path d="M 88.24862548938628 117.40417183066458 l -8.369697730106356 12.39579738812076 a35.95685906133667,35.95685906133667 0 0,0 -0.5099763296192463,-0.3507663697245591 l 8.581830944348493 -12.2498902290311" fill="#ffa40f" stroke="none" /><path d="M 87.95078237400918 117.19931262002967 l -7.001077666518283 9.993488971750072 a33.2018404481091,33.2018404481091 0 0,0 -0.4652568718571417,-0.3319484247339621 l 7.172061866224311 -9.87149628517189" fill="#ff7d0b" stroke="none" /><path d="M 87.65650970185807 116.9893568818739 l -2.386631434851051 3.2849163577571634 a25.060379918588872,25.060379918588872 0 0,0 -0.3468058595887011,-0.25655868396658776 l 2.4428222648583167 -3.2433477250508087" fill="#ff0601" stroke="none" /><path d="M 87.36589467227662 116.77436683061367 l -13.851597102192711 18.390836941353484 a44.02367532964547,44.02367532964547 0 0,0 -0.6013870342002531,-0.46111793336605394 l 14.166112864886452 -18.14967966616006" fill="#f1ff19" stroke="none" /><path d="M 87.07902340077011 116.55440617244103 l -6.499897510502199 8.327694322618386 a31.564050377483213,31.564050377483213 0 0,0 -0.42542704565897466,-0.3379849745966442 l 6.642282048878533 -8.214575434016611" fill="#ff6609" stroke="none" /><path d="M 86.79598089348748 116.32954008644616 l -2.326693668184771 2.877444906510644 a24.700431409386635,24.700431409386635 0 0,0 -0.3283156306758487,-0.27018141243188176 l 2.3758794274053088 -2.8369683752215815" fill="#ff0100" stroke="none" /><path d="M 85.70375840098266 115.38237550388516 l -4.316941385789161 4.644914047132194 a27.34123090839509,27.34123090839509 0 0,0 -0.34197912396579055,-0.3233626069703301 l 4.396256344145769 -4.569916803415933" fill="#ff2903" stroke="none" /><path d="M 83.95833913139862 113.55231037782056 l -4.025809660282898 3.4010831225694025 a26.2701527328393,26.2701527328393 0 0,0 -0.2888515880676353,-0.3479403455495912 l 4.08375724824407 -3.33128151990605" fill="#ff1902" stroke="none" /><path d="M 83.72743513129214 113.27417163493432 l -12.405544921739581 10.119691262237705 a37.009550151341195,37.009550151341195 0 0,0 -0.39843792248216925,-0.49711257092775524 l 12.57790075627661 -9.90465085773169" fill="#ffb210" stroke="none" /><line stroke="#e1ed5e" stroke-width="0.3" x1="26.63291911575756" x2="22.317208475507996" y1="142.92168965132927" y2="145.44649492493687" /><path d="M 25.769776987707644 143.4266507060508 a86.0,86.0 0 0,1 -11.730757126820373,-40.83630448921669" fill="none" id="id69" stroke="none" /><text fill="#e1ed5e" style="font-size:6.75px; font-family:Arial;" text-anchor="middle"><textPath startOffset="21.46611528233685" xlink:href="#id69">September</textPath></text><path d="M 81.69416730710424 110.29060199501025 l -4.339061271847016 2.4391981140453263 a25.97766412691786,25.97766412691786 0 0,0 -0.21576749767045464,-0.3916806821781659 l 4.380405178968987 -2.364146913469338" fill="#ff1402" stroke="none" /><line stroke="#e1ed5e" stroke-width="0.3" x1="15.007084014347285" x2="10.007500721073583" y1="101.09737516637583" y2="101.16192664675087" /><path d="M 14.007167355692545 101.11028546245083 a86.0,86.0 0 0,1 10.666146001902534,-42.60595125391555" fill="none" id="id70" stroke="none" /><text fill="#e1ed5e" style="font-size:6.75px; font-family:Arial;" text-anchor="middle"><textPath startOffset="22.20632615414155" xlink:href="#id70">October</textPath></text><line stroke="#e1ed5e" stroke-width="0.3" x1="26.266209847984243" x2="21.928928074336255" y1="57.711370442889674" y2="55.22380399835377" /><path d="M 25.398753493254645 57.213857153982495 a86.0,86.0 0 0,1 29.58750427330803,-30.492523968695096" fill="none" id="id71" stroke="none" /><text fill="#e1ed5e" style="font-size:6.75px; font-family:Arial;" text-anchor="middle"><textPath startOffset="21.46611528233685" xlink:href="#id71">November</textPath></text><line stroke="#e1ed5e" stroke-width="0.3" x1="56.762969772571076" x2="54.21961505331055" y1="26.818313649435495" y2="22.513508569990535" /><path d="M 56.25429882871897 25.957352633546506 a86.0,86.0 0 0,1 42.265352541879196,-11.944610805530505" fill="none" id="id72" stroke="none" /><text fill="#e1ed5e" style="font-size:6.75px; font-family:Arial;" text-anchor="middle"><textPath startOffset="22.20632615414155" xlink:href="#id72">December</textPath></text></svg>