<?xml version="1.0" encoding="utf-8" ?>
<svg baseProfile="full" height="200mm" version="1.1" viewBox="0,0,200,200" width="200mm" xmlns="http://www.w3.org/2000/svg" xmlns:ev="http://www.w3.org/2001/xml-events" xmlns:xlink="http://www.w3.org/1999/xlink"><defs /><rect fill="#1a1a1a" height="200" width="200" x="0" y="0" /><text alignment-baseline="middle" fill="#e1ed5e" style="dominant-baseline: central; font-size:9.0px; font-family:Arial;" text-anchor="middle" x="100.0" y="100.0">2025</text><line stroke="#e1ed5e" stroke-width="0.3" x1="100.0" x2="100.0" y1="15.0" y2="10.0" /><path d="M 100.0 14.0 a86.0,86.0 0 0,1 42.46469731375804,11.215312516191453" fill="none" id="id61" stroke="none" /><text fill="#e1ed5e" style="font-size:6.75px; font-family:Arial;" text-anchor="middle"><textPath startOffset="22.20632615414155" xlink:href="#id61">January</textPath></text><path d="M 100.0 79.0 l 0.0 -20.63813584432276 a41.63813584432276,41.63813584432276 0 0,0 0.716732061953354,0.0061691391376201155 l -0.35525158268082563 20.6350780817937" fill="#fff216" stroke="none" /><path d="M 100.36148047927253 79.00311137660856 l 0.10859395444788768 -6.307768461812001 a27.30870316426227,27.30870316426227 0 0,0 0.4699351405206675,0.012137038235936225 l -0.21715573016342296 6.304964631433705" fill="#ff2d04" stroke="none" /><path d="M 100.72285384407766 79.0124445844662 l 0.21713904064029615 -6.30448006281122 a27.30821830831451,27.30821830831451 0 0,0 0.469648256817204,0.020224041869899935 l -0.3256281298468317 6.299808294417126" fill="#ff2d04" stroke="none" /><path d="M 101.08401301168833 79.027996857942 l 0.8223921687563571 -15.910520409990298 a36.93176037341604,36.93176037341604 0 0,0 0.6345895593280882,0.03828017520758606 l -1.0961437769240572 15.894006965402408" fill="#ffb510" stroke="none" /><path d="M 101.44485096284872 79.0497635885617 l 0.5933362423194891 -8.60333340094765 a29.6237691008231,29.6237691008231 0 0,0 0.5084141434286372,0.0394627225516663 l -0.7413405751104676 8.59184541620752" fill="#ff4f07" stroke="none" /><path d="M 102.52436894288641 79.15227682838746 l 1.0026962346975699 -8.280855136132066 a29.341340511253662,29.341340511253662 0 0,0 0.5008780199581192,0.0650283422859901 l -1.1450889831635351 8.26236847068194" fill="#ff4b07" stroke="none" /><path d="M 103.59715602781102 79.31037775812273 l 1.4975819126677818 -8.61358356707683 a29.74280123599786,29.74280123599786 0 0,0 0.5036516776946433,0.09203912483818952 l -1.645628711465326 8.586528960887902" fill="#ff5107" stroke="none" /><path d="M 103.95276090670814 79.375362276772 l 1.8446501493472849 -9.624979085332635 a30.800150844072636,30.800150844072636 0 0,0 0.519838478696134,0.10427470843994273 l -2.0100550375105444 9.591800420815485" fill="#ff6008" stroke="none" /><path d="M 105.01212808612495 79.60689891045804 l 1.6410234775865662 -6.676915891550551 a27.875620981179125,27.875620981179125 0 0,0 0.46498010724248895,0.11853378255007334 l -1.7557124735140803 6.64767911283161" fill="#ff3605" stroke="none" /><path d="M 105.36241919743992 79.69619591428918 l 1.9512077749388093 -7.387885753464939 a28.641208522690103,28.641208522690103 0 0,0 0.4755833270021848,0.129994888533954 l -2.0780889911647047 7.353204324104691" fill="#ff4106" stroke="none" /><path d="M 105.71112130821622 79.79150937346287 l 2.236882034684437 -7.915084830286775 a29.225096297778514,29.225096297778514 0 0,0 0.48292353825257134,0.14097862345127501 l -2.3727957906604353 7.875407877916796" fill="#ff4906" stroke="none" /><path d="M 106.40334571778207 80.00007090966166 l 4.309952288663507 -13.461515894204805 a35.13464180304844,35.13464180304844 0 0,0 0.5743964793021986,0.18936948834156223 l -4.5410315902081235 13.385332681604007" fill="#ff9d0e" stroke="none" /><path d="M 109.08828744355905 81.06846463323043 l 4.241056254807051 -8.834415392224521 a30.79966598812488,30.79966598812488 0 0,0 0.47597031331562206,0.23355656562760038 l -4.392497835133105 8.76010366646209" fill="#ff6008" stroke="none" /><line stroke="#e1ed5e" stroke-width="0.3" x1="143.23703022742887" x2="145.7803849466894" y1="26.81831364943548" y2="22.513508569990506" /><path d="M 143.74570117128098 25.957352633546492 a86.0,86.0 0 0,1 28.547481713284135,27.462654790039103" fill="none" id="id62" stroke="none" /><text fill="#e1ed5e" style="font-size:6.75px; font-family:Arial;" text-anchor="middle"><textPath startOffset="19.985693538727396" xlink:href="#id62">February</textPath></text><path d="M 111.2981086023043 82.29822771554956 l 3.9669525242033736 -6.215384602724736 a28.373446825540363,28.373446825540363 0 0,0 0.4094328562045272,0.26630651879125855 l -4.073352406192181 6.14617915977395" fill="#ff3d05" stroke="none" /><path d="M 111.90073688211348 82.69761687909136 l 7.034697388475579 -10.2276884667535 a33.413403188505065,33.413403188505065 0 0,0 0.47107943831679516,0.3300212512445616 l -7.209707966376026 10.105082372745002" fill="#ff850c" stroke="none" /><path d="M 112.19680574252982 82.90503203632743 l 5.005941808406817 -7.016297270712596 a29.619041755332454,29.619041755332454 0 0,0 0.41248702316474645,0.29968936457951895 l -5.125974147925352 6.929088671316403" fill="#ff4f07" stroke="none" /><path d="M 112.48926042617603 83.11751280151076 l 11.659201429786672 -15.760446348803415 a40.60430174971428,40.60430174971428 0 0,0 0.5583165859135819,0.42051247739340725 l -11.928764169458635 15.557417281904161" fill="#ffe515" stroke="none" /><path d="M 112.77801427241765 83.33499621200491 l 5.961763750017072 -7.775293825710246 a30.797847778320783,30.797847778320783 0 0,0 0.41792304704651856,0.3261955672053361 l -6.09471935222302 7.671519869281687" fill="#ff6008" stroke="none" /><path d="M 113.06298171725822 83.55741782278167 l 15.499984755821183 -19.510076536087613 a45.91771686721489,45.91771686721489 0 0,0 0.6146340074786689,0.49699128911761786 l -15.833522161864343 19.240379149705866" fill="#d6ff1c" stroke="none" /><path d="M 113.34407831869373 83.78471172551755 l 4.761040168661079 -5.785460559915788 a28.492600174702066,28.492600174702066 0 0,0 0.3760242567074292,0.31490950111376237 l -4.8599219623276255 5.702649901408207" fill="#ff3f05" stroke="none" /><path d="M 113.6212207817346 84.01681056812373 l 5.590172155427766 -6.559528103150225 a29.618435685397756,29.618435685397756 0 0,0 0.3851894504792431,0.3340324957357248 l -5.702255404553773 6.462330613994829" fill="#ff4f07" stroke="none" /><path d="M 113.89432698308785 84.25364557470407 l 4.453471014681523 -5.047091025374225 a27.731012694760093,27.731012694760093 0 0,0 0.35520655798698003,0.31890795493408375 l -4.539688560264493 4.969684061670844" fill="#ff3404" stroke="none" /><path d="M 114.16331599549186 84.49514656593476 l 8.374347872487911 -9.16755909492733 a33.41667596615244,33.41667596615244 0 0,0 0.42135582598187554,0.39160431923332845 l -8.530911582264633 9.022050189619362" fill="#ff850c" stroke="none" /><path d="M 114.42810811169701 84.74124197986012 l 6.7318049897418595 -7.1193660722548895 a30.798090206294663,30.798090206294663 0 0,0 0.38206755064171594,0.36754868100560706 l -6.853355783995993 7.002434304486981" fill="#ff6008" stroke="none" /><path d="M 114.68862486808459 84.99185889309783 l 10.467872921592235 -10.695576700153216 a35.96568489750684,35.96568489750684 0 0,0 0.4387200425335263,0.4368360392461169 l -10.650428764293084 10.51380481025698" fill="#ffa80f" stroke="none" /><path d="M 114.94478906791727 85.2469230424477 l 44.8343672037518 -44.25923087265689 a84.0,84.0 0 0,0 1.0069429451875638,1.0377432177995427 l -45.58957441264248 43.480923459307235" fill="#4dd2ff" stroke="none" /><path d="M 115.19652480421416 85.50635884689758 l 4.38578895034868 -4.182933403429706 a27.060699346983697,27.060699346983697 0 0,0 0.31858519851937733,0.3398444770698882 l -4.457141470838521 4.106819509481763" fill="#ff2a04" stroke="none" /><path d="M 115.4437574822437 85.77008943001954 l 4.902855617922372 -4.517501460429938 a27.666769281682065,27.666769281682065 0 0,0 0.319691309990908,0.3530111292515795 l -4.979890568529315 4.43243754390881" fill="#ff3304" stroke="none" /><path d="M 115.9244219780498 86.31012108654704 l 9.366002181132352 -8.051748185245005 a33.35122041320501,33.35122041320501 0 0,0 0.37049932141202524,0.4385543350501721 l -9.503212116031493 7.889334900565727" fill="#ff840c" stroke="none" /><path d="M 116.15771136456269 86.58626213691792 l 7.5364642838999885 -6.256588822376888 a30.795059856621172,30.795059856621172 0 0,0 0.33508179113500886,0.4107706554145561 l -7.643044567111406 6.125933997354232" fill="#ff6008" stroke="none" /><path d="M 116.38621287248628 86.86637796730983 l 10.511361683513496 -8.424902842069658 a34.47099522455372,34.47099522455372 0 0,0 0.36710940094459005,0.4661916586562737 l -10.65482516505205 8.242718789460344" fill="#ff930d" stroke="none" /><path d="M 116.60985879189232 87.15038557335679 l 12.60470399787395 -9.751171780804532 a36.93624529093281,36.93624529093281 0 0,0 0.38470692966241876,0.5062292245963307 l -12.770686867760482 9.532757780327167" fill="#ffb510" stroke="none" /><path d="M 117.2510076193507 88.02491185347247 l 5.259821077440127 -3.6511966388940507 a27.402886432114396,27.402886432114396 0 0,0 0.26564558322079546,0.3898021144332272 l -5.321891126329655 3.5601165011904166" fill="#ff2f04" stroke="none" /><path d="M 117.45458315368197 88.32363383020206 l 4.4749907835258185 -2.9935765600850908 a26.383961657899498,26.383961657899498 0 0,0 0.24926984597689342,0.37965507684394706 l -4.525857264860637 2.91610341926347" fill="#ff2003" stroke="none" /><line stroke="#e1ed5e" stroke-width="0.3" x1="172.23445277983987" x2="176.4835382374775" y1="55.19839476539836" y2="52.563006222186495" /><path d="M 173.08426987136738 54.67131705675599 a86.0,86.0 0 0,1 12.851231095245387,41.99856678651699" fill="none" id="id63" stroke="none" /><text fill="#e1ed5e" style="font-size:6.75px; font-family:Arial;" text-anchor="middle"><textPath startOffset="22.20632615414155" xlink:href="#id63">March</textPath></text><path d="M 117.84615892207809 88.93136811851018 l 13.535785952479264 -8.39523129816374 a36.92788152583397,36.92788152583397 0 0,0 0.33038883530772445,0.5430723753508754 l -13.678290586073214 8.160991149605783" fill="#ffb510" stroke="none" /><path d="M 118.03404312379186 89.2402003453031 l 10.660703728850194 -6.360583453922107 a33.41400925843976,33.41400925843976 0 0,0 0.2904478155850996,0.4964694668776551 l -10.76861121890562 6.176134574690557" fill="#ff850c" stroke="none" /><path d="M 118.73160827565052 90.50648371742162 l 5.6264886985653115 -2.8516057611031833 a27.30785466635369,27.30785466635369 0 0,0 0.20889206761301288,0.42111366154108815 l -5.674740779131732 2.7543325110631454" fill="#ff2d04" stroke="none" /><path d="M 118.89224826269711 90.83032412892265 l 11.169770710552918 -5.421439287999346 a33.4159486822308,33.4159486822308 0 0,0 0.24670804943734526,0.5196300705118552 l -11.26143695383202 5.22836680184695" fill="#ff850c" stroke="none" /><path d="M 119.61058180528143 92.48833698450437 l 11.593569557552794 -4.4408161128392205 a33.414978970335284,33.414978970335284 0 0,0 0.20111904843643175,0.5388990597097121 l -11.668293194490852 4.240593916100175" fill="#ff850c" stroke="none" /><path d="M 119.85752413597 93.16781622104841 l 10.18291172406912 -3.5035346716592333 a31.768771813707573,31.768771813707573 0 0,0 0.1734615880812773,0.5186280697553532 l -10.241710605922167 3.3277334989815657" fill="#ff6e0a" stroke="none" /><path d="M 120.08093135843002 93.85539295169968 l 15.45322446849749 -4.728565139397017 a37.16049116677121,37.16049116677121 0 0,0 0.1818990167798456,0.6132730577365741 l -15.532329382389037 4.461862694913913" fill="#ffb811" stroke="none" /><path d="M 120.45610955862082 95.25157060432595 l 7.303268224596287 -1.6952907600922804 a28.497448734179653,28.497448734179653 0 0,0 0.10680519864293417,0.4787867631213967 l -7.331367810241259 1.5693258274209199" fill="#ff3f05" stroke="none" /><path d="M 120.53481517161879 95.60439243477599 l 4.793545615924481 -1.026088873822722 a25.902136059814293,25.902136059814293 0 0,0 0.08957292180806009,0.4367893779117984 l -4.810497833647538 0.9434238397475119" fill="#ff1902" stroke="none" /><path d="M 120.6074358757038 95.95851677861258 l 16.061914691927402 -3.150025996553725 a37.36788829842499,37.36788829842499 0 0,0 0.11835704948509419,0.63226809101717 l -16.113757465322355 2.8730798280739926" fill="#ffbb11" stroke="none" /><path d="M 120.67395015179393 96.31383870115 l 5.751444228863622 -1.025481389539462 a26.842150528531462,26.842150528531462 0 0,0 0.07718797634342746,0.4555678057397218 l -5.768244066727272 0.9263277954839025" fill="#ff2703" stroke="none" /><path d="M 120.73433829027371 96.67025291283417 l 7.400327896383886 -1.1884256884443354 a28.495145668427796,28.495145668427796 0 0,0 0.07360446276670807,0.48496144544823855 l -7.419688252589895 1.0608651306040147" fill="#ff3f05" stroke="none" /><path d="M 120.83666639777658 97.38593545837742 l 10.586752983198695 -1.3281613793677576 a31.669739986377856,31.669739986377856 0 0,0 0.06320322015701052,0.5414865927491792 l -10.608046556359294 1.1457310482937257" fill="#ff6c0a" stroke="none" /><path d="M 120.87857604477298 97.74499172005257 l 4.990930201820685 -0.5390496413936696 a26.019956055119657,26.019956055119657 0 0,0 0.04426226761480821,0.44571499442961154 l -4.999469595117722 0.4530591162596231" fill="#ff1a02" stroke="none" /><path d="M 120.91429891909075 98.10471618934814 l 5.020716194063504 -0.4549845135760302 a26.041289716821037,26.041289716821037 0 0,0 0.03661345337596307,0.446776869663384 l -5.027804131258962 0.3684937267048774" fill="#ff1b02" stroke="none" /><path d="M 120.94382443527127 98.46500227214037 l 5.947775024235178 -0.43591948434431305 a26.96372815743196,26.96372815743196 0 0,0 0.0299418192832816,0.46318669174946603 l -5.954397434522875 0.33347372834181177" fill="#ff2803" stroke="none" /><path d="M 120.96714384426684 98.82574320788733 l 6.051216905002921 -0.33889606538802003 a27.060699346983697,27.060699346983697 0 0,0 0.02204337735738425,0.4653008562480979 l -6.0561538905938015 0.23468410251692234" fill="#ff2a04" stroke="none" /><path d="M 120.98425023603335 99.18683210126433 l 3.2703231009206526 -0.12672941535913806 a24.272777647371196,24.272777647371196 0 0,0 0.01258521044927459,0.4176418651862101 l -3.2720200058255724 0.07041740274792889" fill="#ff0000" stroke="none" /><line stroke="#e1ed5e" stroke-width="0.3" x1="184.98032266829074" x2="189.97916517819016" y1="98.17113171792111" y2="98.06355123074" /><path d="M 185.9800911702706 98.14961562048488 a86.0,86.0 0 0,1 -9.607161424134198,41.387399972396054" fill="none" id="id64" stroke="none" /><text fill="#e1ed5e" style="font-size:6.75px; font-family:Arial;" text-anchor="middle"><textPath startOffset="21.466115282336823" xlink:href="#id64">April</textPath></text><path d="M 120.95626037817324 101.35467743843564 l 6.293385843104448 0.40682391128827117 a27.306521312497356,27.306521312497356 0 0,0 -0.03435867923722794,0.46879688009422704 l -6.2854506052028825 -0.5150939278792684" fill="#ff2d04" stroke="none" /><path d="M 120.89721153311464 102.0752229133903 l 17.23054382921081 1.7111000339873879 a38.31529682034548,38.31529682034548 0 0,0 -0.07082436380332745,0.6557456478718153 l -17.19853716390643 -2.0074420037439946" fill="#ffc712" stroke="none" /><path d="M 120.8583938346157 102.4346265915055 l 4.887982487223829 0.5705334857787062 a25.92116665576382,25.92116665576382 0 0,0 -0.055543494193823664,0.44273629845619356 l -4.877437483783158 -0.6545875385222947" fill="#ff1902" stroke="none" /><path d="M 120.76222939487914 103.15116336523771 l 6.240748846956752 0.9471824419313053 a27.31221836988352,27.31221836988352 0 0,0 -0.07454706864110068,0.46420466758886786 l -6.223520023954363 -1.0544663392133782" fill="#ff2d04" stroke="none" /><path d="M 120.5718875245553 104.21870165774334 l 7.846648334232011 1.6091215886651686 a29.00994147096059,29.00994147096059 0 0,0 -0.10452690990227984,0.48831492426334966 l -7.817787385605288 -1.7439503323446874" fill="#ff4606" stroke="none" /><path d="M 120.13307415673323 105.97154293290107 l 24.326822222947634 7.215423844092916 a46.37432995601664,46.37432995601664 0 0,0 -0.23357916915778157,0.7633502396079095 l -24.19901628128372 -7.633101056252882" fill="#d1ff1c" stroke="none" /><path d="M 119.79798401119884 107.00284435728193 l 5.981083028668854 2.1155989172461256 a27.344218862435593,27.344218862435593 0 0,0 -0.16077845863209778,0.4423932665551903 l -5.9437803090315295 -2.218239980807447" fill="#ff2e04" stroke="none" /><line stroke="#e1ed5e" stroke-width="0.3" x1="174.80103733775053" x2="179.2010983576182" y1="140.37084112569926" y2="142.7455964860345" /><path d="M 175.68104954172406 140.8457921977663 a86.0,86.0 0 0,1 -30.038265399797805,32.042727171017184" fill="none" id="id65" stroke="none" /><text fill="#e1ed5e" style="font-size:6.75px; font-family:Arial;" text-anchor="middle"><textPath startOffset="22.206326154141568" xlink:href="#id65">May</textPath></text><line stroke="#e1ed5e" stroke-width="0.3" x1="143.8653032363475" x2="146.44561519142675" y1="172.8068346515853" y2="177.08958963109032" /><path d="M 144.38136562736335 173.6633856474863 a86.0,86.0 0 0,1 -40.68145358897372,12.25698825130547" fill="none" id="id66" stroke="none" /><text fill="#e1ed5e" style="font-size:6.75px; font-family:Arial;" text-anchor="middle"><textPath startOffset="21.466115282336833" xlink:href="#id66">June</textPath></text><line stroke="#e1ed5e" stroke-width="0.3" x1="102.19456741930631" x2="102.32365962044197" y1="184.97166512339345" y2="189.96999836594603" /><path d="M 102.22038585953345 185.97133177190398 a86.0,86.0 0 0,1 -42.740103519485714,-10.115201625700543" fill="none" id="id67" stroke="none" /><text fill="#e1ed5e" style="font-size:6.75px; font-family:Arial;" text-anchor="middle"><textPath startOffset="22.20632615414155" xlink:href="#id67">July</textPath></text><line stroke="#e1ed5e" stroke-width="0.3" x1="58.666819895761336" x2="56.23545636021788" y1="174.27360380694188" y2="178.64263932499728" /><path d="M 58.180547188652646 175.14741091055294 a86.0,86.0 0 0,1 -31.652253787137756,-30.449443065178592" fill="none" id="id68" stroke="none" /><text fill="#e1ed5e" style="font-size:6.75px; font-family:Arial;" text-anchor="middle"><textPath startOffset="22.20632615414155" xlink:href="#id68">August</textPath></text><line stroke="#e1ed5e" stroke-width="0.3" x1="26.63291911575756" x2="22.317208475507996" y1="142.92168965132927" y2="145.44649492493687" /><path d="M 25.769776987707644 143.4266507060508 a86.0,86.0 0 0,1 -11.730757126820373,-40.83630448921669" fill="none" id="id69" stroke="none" /><text fill="#e1ed5e" style="font-size:6.75px; font-family:Arial;" text-anchor="middle"><textPath startOffset="21.46611528233685" xlink:href="#id69">September</textPath></text><line stroke="#e1ed5e" stroke-width="0.3" x1="15.007084014347285" x2="10.007500721073583" y1="101.09737516637583" y2="101.16192664675087" /><path d="M 14.007167355692545 101.11028546245083 a86.0,86.0 0 0,1 10.666146001902534,-42.60595125391555" fill="none" id="id70" stroke="none" /><text fill="#e1ed5e" style="font-size:6.75px; font-family:Arial;" text-anchor="middle"><textPath startOffset="22.20632615414155" xlink:href="#id70">October</textPath></text><line stroke="#e1ed5e" stroke-width="0.3" x1="26.266209847984243" x2="21.928928074336255" y1="57.711370442889674" y2="55.22380399835377" /><path d="M 25.398753493254645 57.213857153982495 a86.0,86.0 0 0,1 29.58750427330803,-30.492523968695096" fill="none" id="id71" stroke="none" /><text fill="#e1ed5e" style="font-size:6.75px; font-family:Arial;" text-anchor="middle"><textPath startOffset="21.46611528233685" xlink:href="#id71">November</textPath></text><line stroke="#e1ed5e" stroke-width="0.3" x1="56.762969772571076" x2="54.21961505331055" y1="26.818313649435495" y2="22.513508569990535" /><path d="M 56.25429882871897 25.957352633546506 a86.0,86.0 0 0,1 42.265352541879196,-11.944610805530505" fill="none" id="id72" stroke="none" /><text fill="#e1ed5e" style="font-size:6.75px; font-family:Arial;" text-anchor="middle"><textPath startOffset="22.20632615414155" xlink:href="#id72">December</textPath></text></svg>