<?xml version="1.0" encoding="utf-8" ?>
<svg baseProfile="full" height="200mm" version="1.1" viewBox="0,0,200,200" width="200mm" xmlns="http://www.w3.org/2000/svg" xmlns:ev="http://www.w3.org/2001/xml-events" xmlns:xlink="http://www.w3.org/1999/xlink"><defs /><rect fill="#1a1a1a" height="200" width="200" x="0" y="0" /><text alignment-baseline="middle" fill="#e1ed5e" style="dominant-baseline: central; font-size:9.0px; font-family:Arial;" text-anchor="middle" x="100.0" y="100.0">2022</text><line stroke="#e1ed5e" stroke-width="0.3" x1="100.0" x2="100.0" y1="15.0" y2="10.0" /><path d="M 100.0 14.0 a86.0,86.0 0 0,1 42.46469731375804,11.215312516191453" fill="none" id="id25" stroke="none" /><text fill="#e1ed5e" style="font-size:6.75px; font-family:Arial;" text-anchor="middle"><textPath startOffset="22.20632615414155" xlink:href="#id25">January</textPath></text><path d="M 100.36148047927253 79.00311137660856 l 0.5258863733226729 -30.54653914213336 a51.5510656121768,51.5510656121768 0 0,0 0.887103906645832,0.022911276697204865 l -1.0516169151633727 30.532961073293794" fill="#f3ff19" stroke="none" /><path d="M 101.08401301168833 79.027996857942 l 1.0945562383848106 -21.175979091628623 a42.20424825001065,42.20424825001065 0 0,0 0.7251854508951542,0.04374516679355975 l -1.4589037381195769 21.15400065545476" fill="#ff700a" stroke="none" /><path d="M 101.80526077348638 79.07773832637324 l 5.415782320459128 -62.76678502088029 a84.0,84.0 0 0,0 1.4394994916390231,0.13669782193928715 l -6.4954069391883955 62.66426165442583" fill="#4dd2ff" stroke="none" /><path d="M 105.01212808612495 79.60689891045804 l 4.038439172831257 -16.43140336407215 a37.920402107086566,37.920402107086566 0 0,0 0.6325323712191463,0.16124658534450384 l -4.320680432735428 16.359453782558777" fill="#ff2303" stroke="none" /><path d="M 106.0581310904928 79.89281104454417 l 8.81232750654993 -29.248481365751857 a51.54718936801601,51.54718936801601 0 0,0 0.8473735126423654,0.2632830751808841 l -9.314486391903014 29.092458155688455" fill="#f3ff19" stroke="none" /><line stroke="#e1ed5e" stroke-width="0.3" x1="143.23703022742887" x2="145.7803849466894" y1="26.81831364943548" y2="22.513508569990506" /><path d="M 143.74570117128098 25.957352633546492 a86.0,86.0 0 0,1 28.547481713284135,27.462654790039103" fill="none" id="id26" stroke="none" /><text fill="#e1ed5e" style="font-size:6.75px; font-family:Arial;" text-anchor="middle"><textPath startOffset="19.985693538727396" xlink:href="#id26">February</textPath></text><path d="M 113.89432698308785 84.25364557470407 l 10.259221146140327 -11.62671157021489 a36.505871161027414,36.505871161027414 0 0,0 0.4676037252644187,0.41981924148230665 l -10.457835859000735 11.448393319963287" fill="#ff0801" stroke="none" /><path d="M 117.2510076193507 88.02491185347247 l 12.401894358615973 -8.608991509676153 a36.09707648837836,36.09707648837836 0 0,0 0.34992769685324887,0.5134757163222724 l -12.548246521137955 8.394237770083475" fill="#ff0100" stroke="none" /><path d="M 117.45458315368197 88.32363383020206 l 16.521990096740858 -11.05250148483933 a40.87797640176632,40.87797640176632 0 0,0 0.3862060979937992,0.5882183833219382 l -16.70979283009258 10.766465037539719" fill="#ff5908" stroke="none" /><line stroke="#e1ed5e" stroke-width="0.3" x1="172.23445277983987" x2="176.4835382374775" y1="55.19839476539836" y2="52.563006222186495" /><path d="M 173.08426987136738 54.67131705675599 a86.0,86.0 0 0,1 12.851231095245387,41.99856678651699" fill="none" id="id27" stroke="none" /><text fill="#e1ed5e" style="font-size:6.75px; font-family:Arial;" text-anchor="middle"><textPath startOffset="22.20632615414155" xlink:href="#id27">March</textPath></text><path d="M 117.84615892207809 88.93136811851018 l 12.847744477787915 -7.968490853017623 a36.11824674494881,36.11824674494881 0 0,0 0.32314514080837614,0.5311656461951726 l -12.983005416882515 7.746157433615369" fill="#ff0100" stroke="none" /><path d="M 118.56541770881063 90.18545643968196 l 13.91147615562868 -7.35425352982755 a36.7357622570248,36.7357622570248 0 0,0 0.2907208167995312,0.5615800834792306 l -14.036006405588328 7.113700724087974" fill="#ff0d01" stroke="none" /><path d="M 118.73160827565052 90.50648371742162 l 13.847171665982312 -7.01799587863183 a36.52405969132033,36.52405969132033 0 0,0 0.27939164170012604,0.5632365009583855 l -13.965923320635847 6.778599789174495" fill="#ff0901" stroke="none" /><path d="M 118.89224826269711 90.83032412892265 l 19.596123930977466 -9.511313967397136 a42.78240497522327,42.78240497522327 0 0,0 0.3158600637691453,0.6652818486570019 l -19.75694218858837 9.172589703099595" fill="#ff7a0b" stroke="none" /><path d="M 119.04729006885535 91.15688171328212 l 27.098488088844615 -12.581061909310723 a50.87659912820003,50.87659912820003 0 0,0 0.3619450490732231,0.7974979379985021 l -27.311035454881186 12.112741962470158" fill="#feff18" stroke="none" /><path d="M 119.34039704204932 91.81776055985345 l 14.299410111936735 -6.049575773151839 a36.526445072342355,36.526445072342355 0 0,0 0.2399932035774174,0.5811625785528676 l -14.40142500240035 5.802538624145669" fill="#ff0901" stroke="none" /><path d="M 119.7369772167798 92.82701384747503 l 15.588313871890511 -5.66524236797628 a37.58585241874796,37.58585241874796 0 0,0 0.21575517686748738,0.6099689389089655 l -15.683522129567807 5.396075802640699" fill="#ff1d02" stroke="none" /><line stroke="#e1ed5e" stroke-width="0.3" x1="184.98032266829074" x2="189.97916517819016" y1="98.17113171792111" y2="98.06355123074" /><path d="M 185.9800911702706 98.14961562048488 a86.0,86.0 0 0,1 -9.607161424134198,41.387399972396054" fill="none" id="id28" stroke="none" /><text fill="#e1ed5e" style="font-size:6.75px; font-family:Arial;" text-anchor="middle"><textPath startOffset="21.466115282336823" xlink:href="#id28">April</textPath></text><path d="M 120.70491114924044 103.5080841355445 l 14.883170737074883 2.521692306380552 a36.095287452611856,36.095287452611856 0 0,0 -0.10906544779323164,0.6116969519656713 l -14.837558846942462 -2.7775080090794417" fill="#ff0100" stroke="none" /><path d="M 120.5718875245553 104.21870165774334 l 15.222478216958905 3.1216918725708713 a36.539266495335724,36.539266495335724 0 0,0 -0.13165612969872986,0.6150536073700461 l -15.166488048535731 -3.3832592993570865" fill="#ff0901" stroke="none" /><path d="M 119.67450827220406 107.3425965602758 l 19.90106304664012 7.427147608996967 a42.2418180011075,42.2418180011075 0 0,0 -0.26010041466253236,0.6790401072046365 l -19.770268352384086 -7.768611283034748" fill="#ff710a" stroke="none" /><line stroke="#e1ed5e" stroke-width="0.3" x1="174.80103733775053" x2="179.2010983576182" y1="140.37084112569926" y2="142.7455964860345" /><path d="M 175.68104954172406 140.8457921977663 a86.0,86.0 0 0,1 -30.038265399797805,32.042727171017184" fill="none" id="id29" stroke="none" /><text fill="#e1ed5e" style="font-size:6.75px; font-family:Arial;" text-anchor="middle"><textPath startOffset="22.206326154141568" xlink:href="#id29">May</textPath></text><path d="M 117.94076556474637 110.91462005526583 l 14.449360989494501 8.790554933263904 a37.913245964020504,37.913245964020504 0 0,0 -0.3439911419577047,0.554623249999897 l -14.295905207868834 -9.037974514629074" fill="#ff2303" stroke="none" /><path d="M 117.14729908036423 112.12312394758627 l 24.38807595707741 17.24234623103791 a50.867653949367444,50.867653949367444 0 0,0 -0.511632210883399,0.7106123922993074 l -24.08766395381841 -17.65959222878835" fill="#feff18" stroke="none" /><path d="M 114.29624159901734 115.38237550388516 l 10.578110468812444 11.381765356010499 a36.53837197745247,36.53837197745247 0 0,0 -0.46438609250139895,0.42420568501204814 l -10.380624826844182 -11.56216380760913" fill="#ff0901" stroke="none" /><path d="M 113.75828350139079 115.86535959552629 l 10.198816752198814 11.760761813503475 a36.566996549716734,36.566996549716734 0 0,0 -0.4790877699388129,0.4082889911290586 l -9.994863505682954 -11.93457519485548" fill="#ff0901" stroke="none" /><path d="M 111.1453310114006 117.79835938074945 l 8.243832422835801 13.164857282948242 a36.533004870152915,36.533004870152915 0 0,0 -0.5358535899514935,0.32916504108799816 l -8.015999632952 -13.304810790864618" fill="#ff0901" stroke="none" /><line stroke="#e1ed5e" stroke-width="0.3" x1="143.8653032363475" x2="146.44561519142675" y1="172.8068346515853" y2="177.08958963109032" /><path d="M 144.38136562736335 173.6633856474863 a86.0,86.0 0 0,1 -40.68145358897372,12.25698825130547" fill="none" id="id30" stroke="none" /><text fill="#e1ed5e" style="font-size:6.75px; font-family:Arial;" text-anchor="middle"><textPath startOffset="21.466115282336833" xlink:href="#id30">June</textPath></text><path d="M 110.5260780823613 118.17145234162733 l 15.316311205332816 26.440960910561955 a51.5567308921041,51.5567308921041 0 0,0 -0.7717581871164205,0.43822444029613633 l -14.858904251295197 -26.700688516652722" fill="#f3ff19" stroke="none" /><path d="M 105.53697534728816 120.25689768951611 l 8.056755506823755 29.47545578130615 a51.5567308921041,51.5567308921041 0 0,0 -0.8580747706755283,0.22662534585563612 l -7.548190293336729 -29.60977247646537" fill="#f3ff19" stroke="none" /><path d="M 104.48393922423573 120.51570834832081 l 6.519407865534631 29.82874291652659 a51.53287708188388,51.53287708188388 0 0,0 -0.8682272346990874,0.18194545864647538 l -6.004989169406166 -29.936544355899606" fill="#f4ff19" stroke="none" /><path d="M 103.41894727170886 120.7198165907248 l 2.5921842765722887 15.709391959441747 a36.921821976742535,36.921821976742535 0 0,0 -0.6279595552534915,0.09807436789007276 l -2.32138885771028 -15.751684634678925" fill="#ff1001" stroke="none" /><path d="M 102.34483914955558 120.86867818915974 l 1.684958816962597 14.995853050237617 a36.09021851794005,36.09021851794005 0 0,0 -0.6179460076396238,0.06405263032063374 l -1.4265802127173706 -15.02263504901401" fill="#ff0000" stroke="none" /><line stroke="#e1ed5e" stroke-width="0.3" x1="102.19456741930631" x2="102.32365962044197" y1="184.97166512339345" y2="189.96999836594603" /><path d="M 102.22038585953345 185.97133177190398 a86.0,86.0 0 0,1 -42.740103519485714,-10.115201625700543" fill="none" id="id31" stroke="none" /><text fill="#e1ed5e" style="font-size:6.75px; font-family:Arial;" text-anchor="middle"><textPath startOffset="22.20632615414155" xlink:href="#id31">July</textPath></text><path d="M 98.01472825383883 120.90594882070398 l -1.4687780545723252 15.467000372738529 a36.53658294168596,36.53658294168596 0 0,0 -0.6255887741545901,-0.06484483431929118 l 1.7347994253325085 -15.439426169963477" fill="#ff0901" stroke="none" /><path d="M 96.58105272829116 120.7198165907248 l -2.6986425731100323 16.35456025351748 a37.57571454940437,37.57571454940437 0 0,0 -0.6372680659258582,-0.11079722180895372 l 2.9797596105079402 -16.30568445318752" fill="#ff1c02" stroke="none" /><path d="M 96.22490169976321 120.6578951692458 l -3.046439845716371 16.67056854341373 a37.946641298328814,37.946641298328814 0 0,0 -0.6415374561494243,-0.12295218034304835 l 3.3329449164374902 -16.61565916472221" fill="#ff2303" stroke="none" /><path d="M 90.42595943632237 118.69057910512821 l -13.9304743898597 27.195271612221084 a51.555538201593095,51.555538201593095 0 0,0 -0.7863670433863362,-0.4113900710980384 l 14.396532335772532 -26.951452122178328" fill="#f3ff19" stroke="none" /><line stroke="#e1ed5e" stroke-width="0.3" x1="58.666819895761336" x2="56.23545636021788" y1="174.27360380694188" y2="178.64263932499728" /><path d="M 58.180547188652646 175.14741091055294 a86.0,86.0 0 0,1 -31.652253787137756,-30.449443065178592" fill="none" id="id32" stroke="none" /><text fill="#e1ed5e" style="font-size:6.75px; font-family:Arial;" text-anchor="middle"><textPath startOffset="22.20632615414155" xlink:href="#id32">August</textPath></text><line stroke="#e1ed5e" stroke-width="0.3" x1="26.63291911575756" x2="22.317208475507996" y1="142.92168965132927" y2="145.44649492493687" /><path d="M 25.769776987707644 143.4266507060508 a86.0,86.0 0 0,1 -11.730757126820373,-40.83630448921669" fill="none" id="id33" stroke="none" /><text fill="#e1ed5e" style="font-size:6.75px; font-family:Arial;" text-anchor="middle"><textPath startOffset="21.46611528233685" xlink:href="#id33">September</textPath></text><path d="M 79.1416061653843 102.43462659150553 l -15.433002069059958 1.8013657965234955 a36.53777563219696,36.53777563219696 0 0,0 -0.06753868372918262,-0.6253243310647699 l 15.461723054290193 -1.5354451435739433" fill="#ff0901" stroke="none" /><line stroke="#e1ed5e" stroke-width="0.3" x1="15.007084014347285" x2="10.007500721073583" y1="101.09737516637583" y2="101.16192664675087" /><path d="M 14.007167355692545 101.11028546245083 a86.0,86.0 0 0,1 10.666146001902534,-42.60595125391555" fill="none" id="id34" stroke="none" /><text fill="#e1ed5e" style="font-size:6.75px; font-family:Arial;" text-anchor="middle"><textPath startOffset="22.20632615414155" xlink:href="#id34">October</textPath></text><path d="M 80.38941819471856 92.48833698450439 l -28.222319499608272 -10.810314334458667 a51.22188303113775,51.22188303113775 0 0,0 0.32246968209152216,-0.8206501674732908 l 28.03205626763506 11.294513506827721" fill="#f8ff18" stroke="none" /><path d="M 81.26839172434947 90.50648371742162 l -27.246459245349815 -13.808996039308514 a51.545996677505,51.545996677505 0 0,0 0.40792659076959215,-0.78798433294082 l 27.004723221420107 14.275953094509669" fill="#f3ff19" stroke="none" /><path d="M 81.43458229118936 90.18545643968196 l -13.71429981568079 -7.250016942865958 a36.51272913146573,36.51272913146573 0 0,0 0.2985209460620204,-0.5531139755785551 l 13.587470770400298 7.485011901776986" fill="#ff0801" stroke="none" /><line stroke="#e1ed5e" stroke-width="0.3" x1="26.266209847984243" x2="21.928928074336255" y1="57.711370442889674" y2="55.22380399835377" /><path d="M 25.398753493254645 57.213857153982495 a86.0,86.0 0 0,1 29.58750427330803,-30.492523968695096" fill="none" id="id35" stroke="none" /><text fill="#e1ed5e" style="font-size:6.75px; font-family:Arial;" text-anchor="middle"><textPath startOffset="21.46611528233685" xlink:href="#id35">November</textPath></text><path d="M 87.80319425747018 82.90503203632743 l -12.962948504814564 -18.16878895035827 a43.31911570517826,43.31911570517826 0 0,0 0.6107352962416996,-0.4278591045388816 l 12.648282068989205 18.389232897661095" fill="#ff830c" stroke="none" /><path d="M 88.09926311788651 82.69761687909137 l -8.536952516124574 -12.411804796810202 a36.06427749932556,36.06427749932556 0 0,0 0.5145089637341811,-0.3473987490318493 l 8.322038857983854 12.556915458140717" fill="#ff0000" stroke="none" /><line stroke="#e1ed5e" stroke-width="0.3" x1="56.762969772571076" x2="54.21961505331055" y1="26.818313649435495" y2="22.513508569990535" /><path d="M 56.25429882871897 25.957352633546506 a86.0,86.0 0 0,1 42.265352541879196,-11.944610805530505" fill="none" id="id36" stroke="none" /><text fill="#e1ed5e" style="font-size:6.75px; font-family:Arial;" text-anchor="middle"><textPath startOffset="22.20632615414155" xlink:href="#id36">December</textPath></text><path d="M 91.56875222667455 80.76684994638697 l -12.265047911631363 -27.978718363073 a51.54897840378253,51.54897840378253 0 0,0 0.815741085375884,-0.34925776096792 l 11.781623068465171 28.185695652003705" fill="#f3ff19" stroke="none" /><path d="M 95.33964822691252 79.52364482259891 l -3.4610700065504383 -15.207027752118645 a36.595919294608755,36.595919294608755 0 0,0 0.6154340554848395,-0.1345100473484177 l 3.198793226912078 15.26435129756293" fill="#ff0a01" stroke="none" /><path d="M 96.40284397218896 79.31037775812273 l -5.159793416825197 -29.67738285881397 a51.12259154609606,51.12259154609606 0 0,0 0.8682826338563607,-0.14327407431898978 l 4.648181576829951 29.761803196072588" fill="#faff18" stroke="none" /></svg>