<?xml version="1.0" encoding="utf-8" ?>
<svg baseProfile="full" height="200mm" version="1.1" viewBox="0,0,200,200" width="200mm" xmlns="http://www.w3.org/2000/svg" xmlns:ev="http://www.w3.org/2001/xml-events" xmlns:xlink="http://www.w3.org/1999/xlink"><defs /><rect fill="#1a1a1a" height="200" width="200" x="0" y="0" /><text alignment-baseline="middle" fill="#e1ed5e" style="dominant-baseline: central; font-size:9.0px; font-family:Arial;" text-anchor="middle" x="100.0" y="100.0">2025</text><line stroke="#e1ed5e" stroke-width="0.3" x1="100.0" x2="100.0" y1="15.0" y2="10.0" /><path d="M 100.0 14.0 a86.0,86.0 0 0,1 42.46469731375804,11.215312516191453" fill="none" id="id61" stroke="none" /><text fill="#e1ed5e" style="font-size:6.75px; font-family:Arial;" text-anchor="middle"><textPath startOffset="22.20632615414155" xlink:href="#id61">January</textPath></text><path d="M 100.0 79.0 l 0.0 -52.17984316625157 a73.17984316625157,73.17984316625157 0 0,0 1.2596707038488133,0.010842383440261035 l -0.898190224576285 52.17211215941987" fill="#3bff9e" stroke="none" /><path d="M 100.36148047927253 79.00311137660856 l 0.2745604329110273 -15.948066799692043 a36.95043002801993,36.95043002801993 0 0,0 0.6358524395343884,0.0164221925657479 l -0.5490395076402835 15.940977814983935" fill="#ff0000" stroke="none" /><path d="M 100.72285384407766 79.0124445844662 l 0.5489973111596592 -15.9397526697036 a36.949204156288914,36.949204156288914 0 0,0 0.6354544674743788,0.027364006083426887 l -0.8232926110233696 15.927940937095979" fill="#ff0000" stroke="none" /><path d="M 101.08401301168833 79.027996857942 l 2.079271825253768 -40.2269112844858 a61.28061274128269,61.28061274128269 0 0,0 1.0529700355913152,0.06351802808330503 l -2.771403909684695 40.185159987022196" fill="#6cff28" stroke="none" /><path d="M 101.44485096284872 79.0497635885617 l 1.5001447951802613 -21.751993055705817 a42.8036610756538,42.8036610756538 0 0,0 0.7346123515654721,0.057020056950725796 l -1.8743473361080747 21.722947736566628" fill="#ff6d0a" stroke="none" /><path d="M 102.52436894288641 79.15227682838746 l 2.5351384768747285 -20.936664316253264 a42.08959079234122,42.08959079234122 0 0,0 0.718499922961243,0.09328191108623203 l -2.8951531283438174 20.889924082002896" fill="#ff6008" stroke="none" /><path d="M 103.59715602781102 79.31037775812273 l 3.7863685907037006 -21.777908771402387 a43.10461258561644,43.10461258561644 0 0,0 0.729914787543548,0.13338726192567532 l -4.1606784993501496 21.709506028125972" fill="#ff720a" stroke="none" /><path d="M 103.95276090670814 79.375362276772 l 4.663868685408511 -24.335041834181173 a45.777932363013704,45.777932363013704 0 0,0 0.7726303302187634,0.1549823757131147 l -5.0820654250944 24.25115550239085" fill="#ffa10e" stroke="none" /><path d="M 105.01212808612495 79.60689891045804 l 4.1490349873900465 -16.88139019354309 a38.38378054950187,38.38378054950187 0 0,0 0.640261768816911,0.16321698089439068 l -4.439005644891982 16.807470216479835" fill="#ff1b02" stroke="none" /><path d="M 105.36241919743992 79.69619591428918 l 4.933280624232597 -18.678950601637286 a40.31943201276463,40.31943201276463 0 0,0 0.6694986213405767,0.18299926366931768 l -5.254077134796884 18.591264797141676" fill="#ff4006" stroke="none" /><path d="M 105.71112130821622 79.79150937346287 l 5.6555570053265045 -20.011879377446437 a41.795688044831884,41.795688044831884 0 0,0 0.6906434575493653,0.20161776394923983 l -5.9991906805992965 19.911563284578495" fill="#ff5b08" stroke="none" /><path d="M 106.40334571778207 80.00007090966166 l 10.896945158850347 -34.03504044348241 a56.736919170298876,56.736919170298876 0 0,0 0.9275599506765281,0.3058019322805179 l -11.481187931769293 33.84242478694265" fill="#adff20" stroke="none" /><path d="M 109.08828744355905 81.06846463323043 l 10.722753833212984 -22.336242629132734 a45.776706491282695,45.776706491282695 0 0,0 0.7074217408595864,0.34712877594091 l -11.105646841083 22.14835869305699" fill="#ffa10e" stroke="none" /><line stroke="#e1ed5e" stroke-width="0.3" x1="143.23703022742887" x2="145.7803849466894" y1="26.81831364943548" y2="22.513508569990506" /><path d="M 143.74570117128098 25.957352633546492 a86.0,86.0 0 0,1 28.547481713284135,27.462654790039103" fill="none" id="id62" stroke="none" /><text fill="#e1ed5e" style="font-size:6.75px; font-family:Arial;" text-anchor="middle"><textPath startOffset="19.985693538727396" xlink:href="#id62">February</textPath></text><path d="M 111.2981086023043 82.29822771554956 l 10.029731470046459 -15.71449069986263 a39.64244434931507,39.64244434931507 0 0,0 0.5720460864930526,0.3720746871521924 l -10.298744582323792 15.539517088550909" fill="#ff3304" stroke="none" /><path d="M 111.90073688211348 82.69761687909136 l 17.785976854768617 -25.8588849387424 a52.38507452521793,52.38507452521793 0 0,0 0.7385518722622281,0.5174027842605252 l -18.228459866614497 25.54889731171794" fill="#f0ff19" stroke="none" /><path d="M 112.19680574252982 82.90503203632743 l 12.656630445326977 -17.739455440898904 a42.79170882627646,42.79170882627646 0 0,0 0.5959350317842605,0.4329721445194891 l -12.960110793465025 17.51896406156274" fill="#ff6d0a" stroke="none" /><path d="M 112.48926042617603 83.11751280151076 l 29.478209981710112 -39.84747580469619 a70.56597816780823,70.56597816780823 0 0,0 0.9702951242741239,0.7308061712757548 l -30.15975125974262 39.33415304391458" fill="#37ff78" stroke="none" /><path d="M 112.77801427241765 83.33499621200491 l 15.073255637849146 -19.658442771065026 a45.77210947229141,45.77210947229141 0 0,0 0.6211219562515105,0.48479553892752275 l -15.409410149260086 19.39606884291428" fill="#ffa10e" stroke="none" /><path d="M 113.06298171725822 83.55741782278167 l 39.188945151774654 -49.32774653165496 a84.0,84.0 0 0,0 1.1243864057420354,0.9091756109434814 l -40.032234956081176 48.64586482344735" fill="#4dd2ff" stroke="none" /><path d="M 113.34407831869373 83.78471172551755 l 12.037440357157951 -14.627504486747698 a39.94370232721046,39.94370232721046 0 0,0 0.5271474307588068,0.44147081331196913 l -12.287445324875875 14.41813251604191" fill="#ff3905" stroke="none" /><path d="M 113.6212207817346 84.01681056812373 l 14.133752609386374 -16.584596120930808 a42.79017648661271,42.79017648661271 0 0,0 0.5564886931187308,0.48258151094192137 l -14.41713510115187 16.338849616569217" fill="#ff6d0a" stroke="none" /><path d="M 113.89432698308785 84.25364557470407 l 11.259806643605057 -12.76066889647246 a38.01816430572852,38.01816430572852 0 0,0 0.486974689048157,0.4372106840288168 l -11.477792320249202 12.564959203674347" fill="#ff1402" stroke="none" /><path d="M 114.16331599549186 84.49514656593476 l 21.173044014353458 -23.17853702480795 a52.39334915940225,52.39334915940225 0 0,0 0.6606355142377908,0.6139887118247135 l -21.568887412386097 22.810643726908598" fill="#efff19" stroke="none" /><line stroke="#e1ed5e" stroke-width="0.3" x1="172.23445277983987" x2="176.4835382374775" y1="55.19839476539836" y2="52.563006222186495" /><path d="M 173.08426987136738 54.67131705675599 a86.0,86.0 0 0,1 12.851231095245387,41.99856678651699" fill="none" id="id63" stroke="none" /><text fill="#e1ed5e" style="font-size:6.75px; font-family:Arial;" text-anchor="middle"><textPath startOffset="22.20632615414155" xlink:href="#id63">March</textPath></text><line stroke="#e1ed5e" stroke-width="0.3" x1="184.98032266829074" x2="189.97916517819016" y1="98.17113171792111" y2="98.06355123074" /><path d="M 185.9800911702706 98.14961562048488 a86.0,86.0 0 0,1 -9.607161424134198,41.387399972396054" fill="none" id="id64" stroke="none" /><text fill="#e1ed5e" style="font-size:6.75px; font-family:Arial;" text-anchor="middle"><textPath startOffset="21.466115282336823" xlink:href="#id64">April</textPath></text><line stroke="#e1ed5e" stroke-width="0.3" x1="174.80103733775053" x2="179.2010983576182" y1="140.37084112569926" y2="142.7455964860345" /><path d="M 175.68104954172406 140.8457921977663 a86.0,86.0 0 0,1 -30.038265399797805,32.042727171017184" fill="none" id="id65" stroke="none" /><text fill="#e1ed5e" style="font-size:6.75px; font-family:Arial;" text-anchor="middle"><textPath startOffset="22.206326154141568" xlink:href="#id65">May</textPath></text><line stroke="#e1ed5e" stroke-width="0.3" x1="143.8653032363475" x2="146.44561519142675" y1="172.8068346515853" y2="177.08958963109032" /><path d="M 144.38136562736335 173.6633856474863 a86.0,86.0 0 0,1 -40.68145358897372,12.25698825130547" fill="none" id="id66" stroke="none" /><text fill="#e1ed5e" style="font-size:6.75px; font-family:Arial;" text-anchor="middle"><textPath startOffset="21.466115282336833" xlink:href="#id66">June</textPath></text><line stroke="#e1ed5e" stroke-width="0.3" x1="102.19456741930631" x2="102.32365962044197" y1="184.97166512339345" y2="189.96999836594603" /><path d="M 102.22038585953345 185.97133177190398 a86.0,86.0 0 0,1 -42.740103519485714,-10.115201625700543" fill="none" id="id67" stroke="none" /><text fill="#e1ed5e" style="font-size:6.75px; font-family:Arial;" text-anchor="middle"><textPath startOffset="22.20632615414155" xlink:href="#id67">July</textPath></text><line stroke="#e1ed5e" stroke-width="0.3" x1="58.666819895761336" x2="56.23545636021788" y1="174.27360380694188" y2="178.64263932499728" /><path d="M 58.180547188652646 175.14741091055294 a86.0,86.0 0 0,1 -31.652253787137756,-30.449443065178592" fill="none" id="id68" stroke="none" /><text fill="#e1ed5e" style="font-size:6.75px; font-family:Arial;" text-anchor="middle"><textPath startOffset="22.20632615414155" xlink:href="#id68">August</textPath></text><line stroke="#e1ed5e" stroke-width="0.3" x1="26.63291911575756" x2="22.317208475507996" y1="142.92168965132927" y2="145.44649492493687" /><path d="M 25.769776987707644 143.4266507060508 a86.0,86.0 0 0,1 -11.730757126820373,-40.83630448921669" fill="none" id="id69" stroke="none" /><text fill="#e1ed5e" style="font-size:6.75px; font-family:Arial;" text-anchor="middle"><textPath startOffset="21.46611528233685" xlink:href="#id69">September</textPath></text><line stroke="#e1ed5e" stroke-width="0.3" x1="15.007084014347285" x2="10.007500721073583" y1="101.09737516637583" y2="101.16192664675087" /><path d="M 14.007167355692545 101.11028546245083 a86.0,86.0 0 0,1 10.666146001902534,-42.60595125391555" fill="none" id="id70" stroke="none" /><text fill="#e1ed5e" style="font-size:6.75px; font-family:Arial;" text-anchor="middle"><textPath startOffset="22.20632615414155" xlink:href="#id70">October</textPath></text><line stroke="#e1ed5e" stroke-width="0.3" x1="26.266209847984243" x2="21.928928074336255" y1="57.711370442889674" y2="55.22380399835377" /><path d="M 25.398753493254645 57.213857153982495 a86.0,86.0 0 0,1 29.58750427330803,-30.492523968695096" fill="none" id="id71" stroke="none" /><text fill="#e1ed5e" style="font-size:6.75px; font-family:Arial;" text-anchor="middle"><textPath startOffset="21.46611528233685" xlink:href="#id71">November</textPath></text><line stroke="#e1ed5e" stroke-width="0.3" x1="56.762969772571076" x2="54.21961505331055" y1="26.818313649435495" y2="22.513508569990535" /><path d="M 56.25429882871897 25.957352633546506 a86.0,86.0 0 0,1 42.265352541879196,-11.944610805530505" fill="none" id="id72" stroke="none" /><text fill="#e1ed5e" style="font-size:6.75px; font-family:Arial;" text-anchor="middle"><textPath startOffset="22.20632615414155" xlink:href="#id72">December</textPath></text></svg>