<?xml version="1.0" encoding="utf-8" ?>
<svg baseProfile="full" height="200mm" version="1.1" viewBox="0,0,200,200" width="200mm" xmlns="http://www.w3.org/2000/svg" xmlns:ev="http://www.w3.org/2001/xml-events" xmlns:xlink="http://www.w3.org/1999/xlink"><defs /><rect fill="#1a1a1a" height="200" width="200" x="0" y="0" /><text alignment-baseline="middle" fill="#e1ed5e" style="dominant-baseline: central; font-size:9.0px; font-family:Arial;" text-anchor="middle" x="100.0" y="100.0">2025</text><line stroke="#e1ed5e" stroke-width="0.3" x1="100.0" x2="100.0" y1="15.0" y2="10.0" /><path d="M 100.0 14.0 a86.0,86.0 0 0,1 42.46469731375804,11.215312516191453" fill="none" id="id61" stroke="none" /><text fill="#e1ed5e" style="font-size:6.75px; font-family:Arial;" text-anchor="middle"><textPath startOffset="22.20632615414155" xlink:href="#id61">January</textPath></text><path d="M 100.0 79.0 l 0.0 -63.0 a84.0,84.0 0 0,0 1.4459219170901134,0.012445506434235476 l -1.084441437817585 62.990665870174325" fill="#4dd2ff" stroke="none" /><path d="M 100.36148047927253 79.00311137660856 l 0.33149404489935547 -19.255102112503636 a40.25795538640449,40.25795538640449 0 0,0 0.6927691808647565,0.017892184073567872 l -0.6628898609589797 19.24654313628771" fill="#ff0000" stroke="none" /><path d="M 100.72285384407766 79.0124445844662 l 0.6628389144992353 -19.245063941487995 a40.25647531451527,40.25647531451527 0 0,0 0.6923331007395123,0.02981331967920686 l -0.9940128476280792 19.230802895284594" fill="#ff0000" stroke="none" /><path d="M 101.08401301168833 79.027996857942 l 2.5104353911839787 -48.56847504980076 a69.6333121894492,69.6333121894492 0 0,0 1.1964924620453585,0.07217569278975852 l -3.346089902068949 48.5180660876307" fill="#34ff59" stroke="none" /><path d="M 101.44485096284872 79.0497635885617 l 1.8112189757879968 -26.262546595689777 a47.324928639391054,47.324928639391054 0 0,0 0.8122080271125546,0.06304297479221863 l -2.2630171922628928 26.227478358709096" fill="#ff8c0c" stroke="none" /><path d="M 102.52436894288641 79.15227682838746 l 3.0608318145809648 -25.278149030103908 a46.462786763928534,46.462786763928534 0 0,0 0.7931535584451893,0.1029740955457328 l -3.495500101534 25.22171661139404" fill="#ff7c0b" stroke="none" /><path d="M 103.59715602781102 79.31037775812273 l 4.571520471119676 -26.29383626598798 a47.68828628819114,47.68828628819114 0 0,0 0.8075327271582097,0.14757144426887034 l -5.023448319380786 26.211249340368372" fill="#ff930d" stroke="none" /><path d="M 103.95276090670814 79.375362276772 l 5.630981416417383 -29.381223524738072 a50.91595306057722,50.91595306057722 0 0,0 0.8593487646982712,0.17237727786502846 l -6.135896590582779 29.279942290795834" fill="#ffce13" stroke="none" /><path d="M 105.01212808612495 79.60689891045804 l 5.009390376524396 -20.381962030906866 a41.98852944285865,41.98852944285865 0 0,0 0.700390887667643,0.1785452321201216 l -5.359490152877064 20.29271380261788" fill="#ff2303" stroke="none" /><path d="M 105.36241919743992 79.69619591428918 l 5.956259361232961 -22.55226954503867 a44.325562955915,44.325562955915 0 0,0 0.7360198744797548,0.20118203500715026 l -6.343577124936426 22.446400969205225" fill="#ff5207" stroke="none" /><path d="M 105.71112130821622 79.79150937346287 l 6.828308973646255 -24.161598124437095 a46.107939528491386,46.107939528491386 0 0,0 0.761900288428723,0.22241958687388305 l -7.243199479798405 24.04048020864451" fill="#ff750a" stroke="none" /><path d="M 106.40334571778207 80.00007090966166 l 13.156565895000341 -41.092640717751415 a64.14742573210698,64.14742573210698 0 0,0 1.0487101506076713,0.34574324842735366 l -13.86195886785043 40.86008374506483" fill="#5aff2a" stroke="none" /><line stroke="#e1ed5e" stroke-width="0.3" x1="143.23703022742887" x2="145.7803849466894" y1="26.81831364943548" y2="22.513508569990506" /><path d="M 143.74570117128098 25.957352633546492 a86.0,86.0 0 0,1 28.547481713284135,27.462654790039103" fill="none" id="id62" stroke="none" /><text fill="#e1ed5e" style="font-size:6.75px; font-family:Arial;" text-anchor="middle"><textPath startOffset="19.985693538727396" xlink:href="#id62">February</textPath></text><line stroke="#e1ed5e" stroke-width="0.3" x1="172.23445277983987" x2="176.4835382374775" y1="55.19839476539836" y2="52.563006222186495" /><path d="M 173.08426987136738 54.67131705675599 a86.0,86.0 0 0,1 12.851231095245387,41.99856678651699" fill="none" id="id63" stroke="none" /><text fill="#e1ed5e" style="font-size:6.75px; font-family:Arial;" text-anchor="middle"><textPath startOffset="22.20632615414155" xlink:href="#id63">March</textPath></text><line stroke="#e1ed5e" stroke-width="0.3" x1="184.98032266829074" x2="189.97916517819016" y1="98.17113171792111" y2="98.06355123074" /><path d="M 185.9800911702706 98.14961562048488 a86.0,86.0 0 0,1 -9.607161424134198,41.387399972396054" fill="none" id="id64" stroke="none" /><text fill="#e1ed5e" style="font-size:6.75px; font-family:Arial;" text-anchor="middle"><textPath startOffset="21.466115282336823" xlink:href="#id64">April</textPath></text><line stroke="#e1ed5e" stroke-width="0.3" x1="174.80103733775053" x2="179.2010983576182" y1="140.37084112569926" y2="142.7455964860345" /><path d="M 175.68104954172406 140.8457921977663 a86.0,86.0 0 0,1 -30.038265399797805,32.042727171017184" fill="none" id="id65" stroke="none" /><text fill="#e1ed5e" style="font-size:6.75px; font-family:Arial;" text-anchor="middle"><textPath startOffset="22.206326154141568" xlink:href="#id65">May</textPath></text><line stroke="#e1ed5e" stroke-width="0.3" x1="143.8653032363475" x2="146.44561519142675" y1="172.8068346515853" y2="177.08958963109032" /><path d="M 144.38136562736335 173.6633856474863 a86.0,86.0 0 0,1 -40.68145358897372,12.25698825130547" fill="none" id="id66" stroke="none" /><text fill="#e1ed5e" style="font-size:6.75px; font-family:Arial;" text-anchor="middle"><textPath startOffset="21.466115282336833" xlink:href="#id66">June</textPath></text><line stroke="#e1ed5e" stroke-width="0.3" x1="102.19456741930631" x2="102.32365962044197" y1="184.97166512339345" y2="189.96999836594603" /><path d="M 102.22038585953345 185.97133177190398 a86.0,86.0 0 0,1 -42.740103519485714,-10.115201625700543" fill="none" id="id67" stroke="none" /><text fill="#e1ed5e" style="font-size:6.75px; font-family:Arial;" text-anchor="middle"><textPath startOffset="22.20632615414155" xlink:href="#id67">July</textPath></text><line stroke="#e1ed5e" stroke-width="0.3" x1="58.666819895761336" x2="56.23545636021788" y1="174.27360380694188" y2="178.64263932499728" /><path d="M 58.180547188652646 175.14741091055294 a86.0,86.0 0 0,1 -31.652253787137756,-30.449443065178592" fill="none" id="id68" stroke="none" /><text fill="#e1ed5e" style="font-size:6.75px; font-family:Arial;" text-anchor="middle"><textPath startOffset="22.20632615414155" xlink:href="#id68">August</textPath></text><line stroke="#e1ed5e" stroke-width="0.3" x1="26.63291911575756" x2="22.317208475507996" y1="142.92168965132927" y2="145.44649492493687" /><path d="M 25.769776987707644 143.4266507060508 a86.0,86.0 0 0,1 -11.730757126820373,-40.83630448921669" fill="none" id="id69" stroke="none" /><text fill="#e1ed5e" style="font-size:6.75px; font-family:Arial;" text-anchor="middle"><textPath startOffset="21.46611528233685" xlink:href="#id69">September</textPath></text><line stroke="#e1ed5e" stroke-width="0.3" x1="15.007084014347285" x2="10.007500721073583" y1="101.09737516637583" y2="101.16192664675087" /><path d="M 14.007167355692545 101.11028546245083 a86.0,86.0 0 0,1 10.666146001902534,-42.60595125391555" fill="none" id="id70" stroke="none" /><text fill="#e1ed5e" style="font-size:6.75px; font-family:Arial;" text-anchor="middle"><textPath startOffset="22.20632615414155" xlink:href="#id70">October</textPath></text><line stroke="#e1ed5e" stroke-width="0.3" x1="26.266209847984243" x2="21.928928074336255" y1="57.711370442889674" y2="55.22380399835377" /><path d="M 25.398753493254645 57.213857153982495 a86.0,86.0 0 0,1 29.58750427330803,-30.492523968695096" fill="none" id="id71" stroke="none" /><text fill="#e1ed5e" style="font-size:6.75px; font-family:Arial;" text-anchor="middle"><textPath startOffset="21.46611528233685" xlink:href="#id71">November</textPath></text><line stroke="#e1ed5e" stroke-width="0.3" x1="56.762969772571076" x2="54.21961505331055" y1="26.818313649435495" y2="22.513508569990535" /><path d="M 56.25429882871897 25.957352633546506 a86.0,86.0 0 0,1 42.265352541879196,-11.944610805530505" fill="none" id="id72" stroke="none" /><text fill="#e1ed5e" style="font-size:6.75px; font-family:Arial;" text-anchor="middle"><textPath startOffset="22.20632615414155" xlink:href="#id72">December</textPath></text></svg>