<?xml version="1.0" encoding="utf-8" ?>
<svg baseProfile="full" height="200mm" version="1.1" viewBox="0,0,200,200" width="200mm" xmlns="http://www.w3.org/2000/svg" xmlns:ev="http://www.w3.org/2001/xml-events" xmlns:xlink="http://www.w3.org/1999/xlink"><defs /><rect fill="#1a1a1a" height="200" width="200" x="0" y="0" /><text alignment-baseline="middle" fill="#e1ed5e" style="dominant-baseline: central; font-size:9.0px; font-family:Arial;" text-anchor="middle" x="100.0" y="100.0">2024</text><line stroke="#e1ed5e" stroke-width="0.3" x1="100.0" x2="100.0" y1="15.0" y2="10.0" /><path d="M 100.0 14.0 a86.0,86.0 0 0,1 42.35913384403234,11.155469271406648" fill="none" id="id49" stroke="none" /><text fill="#e1ed5e" style="font-size:6.75px; font-family:Arial;" text-anchor="middle"><textPath startOffset="22.145653131862478" xlink:href="#id49">January</textPath></text><path d="M 101.08105385017728 79.02784411241856 l 0.8219863070261286 -15.946314760899684 a36.96748621238251,36.96748621238251 0 0,0 0.6334742238567226,0.03810823625195518 l -1.0956048830153136 15.929854546823037" fill="#ff990e" stroke="none" /><path d="M 101.80034050326958 79.07731436759882 l 1.3688872158755379 -15.908544429213528 a36.9673303362224,36.9673303362224 0 0,0 0.6317900475314608,0.05983117437086508 l -1.6417768267920116 15.882701499337479" fill="#ff990e" stroke="none" /><path d="M 102.15924093988457 79.11130261209362 l 0.9814823823566832 -9.494951720258781 a30.545544292334604,30.545544292334604 0 0,0 0.5211129469526756,0.05839179264363856 l -1.1443312309101554 9.476704167108172" fill="#ff3a05" stroke="none" /><path d="M 102.87502721639298 79.19773525538626 l 1.5175578566196963 -10.980292679899438 a32.084665497183096,32.084665497183096 0 0,0 0.5449426037057443,0.08008779661555795 l -1.7058255659331227 10.952623809984999" fill="#ff5207" stroke="none" /><path d="M 103.94208987418118 79.37332000966035 l 3.0142185936938284 -15.771665369747176 a37.057115004441236,37.057115004441236 0 0,0 0.6238009709596898,0.1247776647570407 l -3.284516050184475 15.717598308327275" fill="#ff9a0e" stroke="none" /><path d="M 104.64783097203109 79.52079915486377 l 2.453385742119112 -10.810070259825896 a32.0849772495033,32.0849772495033 0 0,0 0.5360755649922863,0.1265123736800919 l -2.638593460851283 10.766361742499576" fill="#ff5207" stroke="none" /><path d="M 105.69591212413111 79.78721728523813 l 4.700272203638802 -16.67960788051638 a38.32922034703476,38.32922034703476 0 0,0 0.6317750407783508,0.18390050678247907 l -4.9859072567987575 16.596463679431384" fill="#ffac10" stroke="none" /><path d="M 106.04205211174951 79.88797359093562 l 3.1912622909522024 -10.622674264770215 a32.09167992438769,32.09167992438769 0 0,0 0.5262414566118265,0.1630309484452673 l -3.373144380435659 10.5663267285183" fill="#ff5207" stroke="none" /><path d="M 106.38641147887787 79.99465700312896 l 2.4841724371790583 -7.781634777762876 a29.168534293992334,29.168534293992334 0 0,0 0.4756933224683065,0.15636984356529487 l -2.6173884972951074 7.73784401279556" fill="#ff2503" stroke="none" /><path d="M 106.72888874123014 80.10723608172694 l 6.563349890324318 -19.403377719896174 a41.48337444670149,41.48337444670149 0 0,0 0.6726118835808114,0.23396932818149552 l -6.895467545950147 19.28784995914609" fill="#ffd814" stroke="none" /><line stroke="#e1ed5e" stroke-width="0.3" x1="143.13028292997686" x2="145.6673583964461" y1="26.7553504044142" y2="22.446841604673864" /><path d="M 143.63769802327073 25.89364864446614 a86.0,86.0 0 0,1 29.32050498858742,28.57503671076993" fill="none" id="id50" stroke="none" /><text fill="#e1ed5e" style="font-size:6.75px; font-family:Arial;" text-anchor="middle"><textPath startOffset="20.669276256404974" xlink:href="#id50">February</textPath></text><path d="M 113.03279911837588 83.53348406188908 l 5.884295887393945 -7.434615628941547 a30.481479190532625,30.481479190532625 0 0,0 0.4075072286273439,0.3282589774590321 l -6.011053886376548 7.332508357689107" fill="#ff3905" stroke="none" /><path d="M 115.41159269507618 85.73525988315684 l 7.106460656635914 -6.5776338904848535 a30.683338817864893,30.683338817864893 0 0,0 0.3544689782410329,0.3896235009122502 l -7.218327335718825 6.454672814014931" fill="#ff3c05" stroke="none" /><path d="M 116.1254893667686 86.54754324733833 l 6.228051188402843 -5.195661809681977 a29.110704238594444,29.110704238594444 0 0,0 0.31682590704449176,0.38647609142238454 l -6.316323914685963 5.087983436561097" fill="#ff2403" stroke="none" /><path d="M 116.35404254752997 86.82634096563983 l 6.882854457031001 -5.5443403388813675 a29.838178277791112,29.838178277791112 0 0,0 0.317895339487795,0.40165037662142006 l -6.977016227160355 5.425370018345269" fill="#ff2f04" stroke="none" /><path d="M 116.57777611688842 87.10902102172516 l 18.289011372603465 -14.221645863432785 a44.16771779982037,44.16771779982037 0 0,0 0.4602865573935085,0.6025298790250945 l -18.53044990735128 13.90559507116681" fill="#fffc17" stroke="none" /><path d="M 117.01052211995028 87.68569379921539 l 18.910241634230754 -13.689556626932253 a44.345260746176706,44.345260746176706 0 0,0 0.44109787722039645,0.6204594045110385 l -19.14245460998111 13.36291999571171" fill="#fffe18" stroke="none" /><path d="M 117.42321728460499 88.27688183743584 l 9.206003700356453 -6.1942101404911885 a32.09588858071045,32.09588858071045 0 0,0 0.3036508891481221,0.45976614798406357 l -9.3109790284253 6.035264114168066" fill="#ff5207" stroke="none" /><path d="M 117.81537515405839 88.88188828441811 l 5.5498851700461165 -3.4635388138412324 a27.541966563326547,27.541966563326547 0 0,0 0.2468704966245811,0.4032444031981651 l -5.6085236311261 3.367757294518513" fill="#ff0c01" stroke="none" /><line stroke="#e1ed5e" stroke-width="0.3" x1="172.87174338648825" x2="177.1583165268699" y1="56.24261187166439" y2="53.66864786411523" /><path d="M 173.72905801456457 55.72781907015455 a86.0,86.0 0 0,1 12.242430191666344,42.057860355516425" fill="none" id="id51" stroke="none" /><text fill="#e1ed5e" style="font-size:6.75px; font-family:Arial;" text-anchor="middle"><textPath startOffset="22.145653131862474" xlink:href="#id51">March</textPath></text><path d="M 118.00360718960297 89.18935116829356 l 6.964650720374536 -4.182072646916088 a29.12379783604302,29.12379783604302 0 0,0 0.2536908707180024,0.43082256060101964 l -7.035415301222306 4.0618989180215115" fill="#ff2403" stroke="none" /><path d="M 118.36410011445183 89.81374322990088 l 15.152846410936002 -8.405028472819145 a38.327817461593845,38.327817461593845 0 0,0 0.3142053340527479,0.5781024249727404 l -15.29489709460409 8.143671214371802" fill="#ffac10" stroke="none" /><path d="M 118.53625476483649 90.13048839642627 l 6.74459227427488 -3.5911154953807514 a28.64104936820671,28.64104936820671 0 0,0 0.22734437265572952,0.43596281104651485 l -6.805244715905554 3.474806441229738" fill="#ff1d02" stroke="none" /><path d="M 118.8641267826498 90.77261029715802 l 14.397229708898816 -7.042406505003483 a37.02734265786172,37.02734265786172 0 0,0 0.27439154953281175,0.5733728054327674 l -14.516000516391541 6.794221197505613" fill="#ff9a0e" stroke="none" /><path d="M 119.0197475246899 91.09779779509293 l 7.352377344055737 -3.4412838403136985 a29.11787454195914,29.11787454195914 0 0,0 0.20800635865216546,0.454531432825941 l -7.410368167562955 3.3145634252730733" fill="#ff2403" stroke="none" /><path d="M 119.16976305983485 91.42560881287824 l 25.366626938611557 -11.346169579172159 a48.7885106898881,48.7885106898881 0 0,0 0.33540037573679476,0.767461697143642 l -25.55766119636532 10.909045812252668" fill="#c7ff1e" stroke="none" /><path d="M 119.31412917781788 91.75594674310238 l 11.804610796755073 -5.038686403587178 a33.834998898969985,33.834998898969985 0 0,0 0.2234304713058897,0.5361517941270176 l -11.889367112597446 4.8353021000188825" fill="#ff6c09" stroke="none" /><path d="M 119.71291397450082 92.76114493625339 l 6.2914302416695 -2.3103003301302163 a27.702207255911542,27.702207255911542 0 0,0 0.16009215057070794,0.4478062378320426 l -6.330162562284151 2.201959135917257" fill="#ff0e01" stroke="none" /><path d="M 119.83427380445688 93.10060997987247 l 11.046315492028334 -3.8424819389028944 a32.69554416862337,32.69554416862337 0 0,0 0.17984819052860235,0.5316892183686176 l -11.110649104129301 3.6522910460601152" fill="#ff5b08" stroke="none" /><path d="M 119.94978838288452 93.4421083053983 l 21.488298340664674 -7.063630476414754 a43.61950134474117,43.61950134474117 0 0,0 0.2277255441707148,0.7133470236535382 l -21.606388600612647 6.693714419069829" fill="#fff517" stroke="none" /><path d="M 120.05942366710727 93.78553927170692 l 5.545727092304002 -1.7180804292730771 a26.805763459164158,26.805763459164158 0 0,0 0.13239963957603823,0.44071533949958264 l -5.574403051883668 1.622627486182771" fill="#ff0000" stroke="none" /><path d="M 120.16314734710363 94.1308016681162 l 16.642240674443116 -4.844313713715986 a38.33296137487722,38.33296137487722 0 0,0 0.17848832221344274,0.6333920881149645 l -16.72294748873114 4.557913701698009" fill="#ffad10" stroke="none" /><path d="M 120.26092885502905 94.47779374421319 l 13.941178558822424 -3.799730209874416 a35.44972004146801,35.44972004146801 0 0,0 0.15498367630162557,0.5884982629039083 l -14.00435171592878 3.5598514425977092" fill="#ff830c" stroke="none" /><path d="M 120.35273937422433 94.82641323984039 l 12.218079281310203 -3.105787974881686 a33.606640324420354,33.606640324420354 0 0,0 0.13732709198646953,0.5603413982898338 l -12.269593899812964 2.8955907519837574" fill="#ff6809" stroke="none" /><path d="M 120.43855184770803 95.1765574152323 l 21.058534789543717 -4.969756870914899 a42.6370139076174,42.6370139076174 0 0,0 0.16199860025917084,0.7137957234896434 l -21.140744251360555 4.6075268134862295" fill="#ffe815" stroke="none" /><path d="M 120.51834098615036 95.52812308129327 l 22.77813189514717 -4.96438782949953 a44.31283850487546,44.31283850487546 0 0,0 0.15560619767712663,0.744631985962725 l -22.859995803648662 4.5726393922514" fill="#fffe18" stroke="none" /><path d="M 120.592083275326 95.88100663000786 l 14.389752908121825 -2.878353590158571 a35.67480521665549,35.67480521665549 0 0,0 0.11496411148204418,0.6015408104835162 l -14.437043311886026 2.6309102146417405" fill="#ff870c" stroke="none" /><path d="M 120.65975698304385 96.23510406497455 l 61.97927094913153 -11.294687805076354 a84.0,84.0 0 0,0 0.24634073003106272,1.4208278683176294 l -62.16402649665483 10.229066903838131" fill="#4dd2ff" stroke="none" /><path d="M 120.7213421655516 96.59031103205396 l 8.006309855225366 -1.3174352399191178 a29.113977637956587,29.113977637956587 0 0,0 0.07691428748922599,0.4938449002678038 l -8.027745634852858 1.1798021577198727" fill="#ff2403" stroke="none" /><path d="M 120.77682067341334 96.94652285012252 l 8.482076495887101 -1.2465731485494487 a29.57318880561748,29.57318880561748 0 0,0 0.06950471573834416,0.5029014993472546 l -8.502225728180658 1.1007833410021084" fill="#ff2b04" stroke="none" /><line stroke="#e1ed5e" stroke-width="0.3" x1="184.99686870605535" x2="189.99668451229388" y1="99.2704041080226" y2="99.22748670261217" /><path d="M 185.99683186730306 99.26182062694052 a86.0,86.0 0 0,1 -10.086455211305974,41.156179273409016" fill="none" id="id52" stroke="none" /><text fill="#e1ed5e" style="font-size:6.75px; font-family:Arial;" text-anchor="middle"><textPath startOffset="21.40746469413373" xlink:href="#id52">April</textPath></text><line stroke="#e1ed5e" stroke-width="0.3" x1="174.33088141563837" x2="178.70328620479359" y1="141.23008692659167" y2="143.65538615756765" /><path d="M 175.20536237346943 141.71514677278685 a86.0,86.0 0 0,1 -30.301960400862466,31.631185727798858" fill="none" id="id53" stroke="none" /><text fill="#e1ed5e" style="font-size:6.75px; font-family:Arial;" text-anchor="middle"><textPath startOffset="22.145653131862474" xlink:href="#id53">May</textPath></text><line stroke="#e1ed5e" stroke-width="0.3" x1="143.1302829299769" x2="145.66735839644613" y1="173.24464959558577" y2="177.55315839532614" /><path d="M 143.63769802327073 174.10635135553383 a86.0,86.0 0 0,1 -40.68552437913181,11.842963189579606" fill="none" id="id54" stroke="none" /><text fill="#e1ed5e" style="font-size:6.75px; font-family:Arial;" text-anchor="middle"><textPath startOffset="21.407464694133747" xlink:href="#id54">June</textPath></text><line stroke="#e1ed5e" stroke-width="0.3" x1="101.45913802915013" x2="101.54496967792366" y1="184.9874750549273" y2="189.98673829345242" /><path d="M 101.47630435890484 185.9873277026323 a86.0,86.0 0 0,1 -42.54439059252881,-10.42667462771756" fill="none" id="id55" stroke="none" /><text fill="#e1ed5e" style="font-size:6.75px; font-family:Arial;" text-anchor="middle"><textPath startOffset="22.145653131862474" xlink:href="#id55">July</textPath></text><line stroke="#e1ed5e" stroke-width="0.3" x1="58.13341422392154" x2="55.67067388415222" y1="173.97424548756322" y2="178.32567169271397" /><path d="M 57.64086615596768 174.84453072859336 a86.0,86.0 0 0,1 -31.369924170532247,-30.572349798747897" fill="none" id="id56" stroke="none" /><text fill="#e1ed5e" style="font-size:6.75px; font-family:Arial;" text-anchor="middle"><textPath startOffset="22.145653131862474" xlink:href="#id56">August</textPath></text><line stroke="#e1ed5e" stroke-width="0.3" x1="26.387840678322732" x2="22.057713659400548" y1="142.50000000000003" y2="145.00000000000006" /><path d="M 25.521815274538298 143.00000000000003 a86.0,86.0 0 0,1 -11.493303480769221,-40.785679425670985" fill="none" id="id57" stroke="none" /><text fill="#e1ed5e" style="font-size:6.75px; font-family:Arial;" text-anchor="middle"><textPath startOffset="21.40746469413373" xlink:href="#id57">September</textPath></text><line stroke="#e1ed5e" stroke-width="0.3" x1="15.003131293944662" x2="10.003315487706104" y1="100.72959589197737" y2="100.7725132973878" /><path d="M 14.003168132696942 100.73817937305945 a86.0,86.0 0 0,1 10.791469493833604,-42.45332614584628" fill="none" id="id58" stroke="none" /><text fill="#e1ed5e" style="font-size:6.75px; font-family:Arial;" text-anchor="middle"><textPath startOffset="22.145653131862435" xlink:href="#id58">October</textPath></text><line stroke="#e1ed5e" stroke-width="0.3" x1="26.387840678322718" x2="22.05771365940052" y1="57.49999999999999" y2="54.99999999999999" /><path d="M 25.521815274538284 56.99999999999999 a86.0,86.0 0 0,1 29.574782752854787,-30.34633250058573" fill="none" id="id59" stroke="none" /><text fill="#e1ed5e" style="font-size:6.75px; font-family:Arial;" text-anchor="middle"><textPath startOffset="21.40746469413373" xlink:href="#id59">November</textPath></text><line stroke="#e1ed5e" stroke-width="0.3" x1="56.869717070023135" x2="54.33264160355391" y1="26.7553504044142" y2="22.446841604673864" /><path d="M 56.362301976729285 25.89364864446614 a86.0,86.0 0 0,1 42.16139366436587,-11.88097634709845" fill="none" id="id60" stroke="none" /><text fill="#e1ed5e" style="font-size:6.75px; font-family:Arial;" text-anchor="middle"><textPath startOffset="22.145653131862474" xlink:href="#id60">December</textPath></text></svg>