<?xml version="1.0" encoding="utf-8" ?>
<svg baseProfile="full" height="200mm" version="1.1" viewBox="0,0,200,200" width="200mm" xmlns="http://www.w3.org/2000/svg" xmlns:ev="http://www.w3.org/2001/xml-events" xmlns:xlink="http://www.w3.org/1999/xlink"><defs /><rect fill="#1a1a1a" height="200" width="200" x="0" y="0" /><text alignment-baseline="middle" fill="#e1ed5e" style="dominant-baseline: central; font-size:9.0px; font-family:Arial;" text-anchor="middle" x="100.0" y="100.0">2024</text><line stroke="#e1ed5e" stroke-width="0.3" x1="100.0" x2="100.0" y1="15.0" y2="10.0" /><path d="M 100.0 14.0 a86.0,86.0 0 0,1 42.35913384403234,11.155469271406648" fill="none" id="id49" stroke="none" /><text fill="#e1ed5e" style="font-size:6.75px; font-family:Arial;" text-anchor="middle"><textPath startOffset="22.145653131862478" xlink:href="#id49">January</textPath></text><path d="M 101.08105385017728 79.02784411241856 l 0.9161902312452199 -17.773845723969387 a38.79744353437577,38.79744353437577 0 0,0 0.6648323418412858,0.039994662760830316 l -1.221166925218968 17.755499083383864" fill="#ffcc13" stroke="none" /><path d="M 101.80034050326958 79.07731436759882 l 1.5257688408448984 -17.731746714988404 a38.79726979399355,38.79726979399355 0 0,0 0.6630646223111302,0.06279290911855256 l -1.8299330265410414 17.702942050364666" fill="#ffcc13" stroke="none" /><path d="M 102.15924093988457 79.11130261209362 l 1.0939653898953523 -10.58312278183677 a31.63951352692976,31.63951352692976 0 0,0 0.5397762755959471,0.060483057546095405 l -1.275477567092096 10.562783963783705" fill="#ff6909" stroke="none" /><path d="M 102.87502721639298 79.19773525538626 l 1.691477913561161 -12.23869157374842 a33.35502606105733,33.35502606105733 0 0,0 0.5665190665609827,0.0832587936289729 l -1.9013220857298256 12.207851706820566" fill="#ff820b" stroke="none" /><path d="M 103.94208987418118 79.37332000966035 l 3.3596637885261114 -17.57918060035467 a38.89734425415736,38.89734425415736 0 0,0 0.6547784713027079,0.1309740324011398 l -3.6609387453597764 17.518917171290667" fill="#ffcd13" stroke="none" /><path d="M 104.64783097203109 79.52079915486377 l 2.7345565627948902 -12.048960775221461 a33.35537354182179,33.35537354182179 0 0,0 0.5573013369438399,0.1315215980658779 l -2.940990053478615 12.000243033509355" fill="#ff820b" stroke="none" /><path d="M 105.69591212413111 79.78721728523813 l 5.238947948837825 -18.591178065262024 a40.315239513526926,40.315239513526926 0 0,0 0.66451030981166,0.19342926650915274 l -5.557318271031089 18.498505104450356" fill="#ffdf14" stroke="none" /><path d="M 106.04205211174951 79.88797359093562 l 3.5569976182324785 -11.840088220317654 a33.362844378257634,33.362844378257634 0 0,0 0.547086094080909,0.16948867041658855 l -3.7597243451850177 11.777282962094418" fill="#ff820b" stroke="none" /><path d="M 106.38641147887787 79.99465700312896 l 2.768871573915084 -8.67345076866079 a30.10469099032018,30.10469099032018 0 0,0 0.4909605787774062,0.16138849396033852 l -2.9173548903402327 8.62464135329843" fill="#ff5307" stroke="none" /><path d="M 106.72888874123014 80.10723608172694 l 7.315544069724244 -21.62710615514541 a43.830876147927526,43.830876147927526 0 0,0 0.7106743016466193,0.24720941299297705 l -7.685724143415882 21.49833830958384" fill="#f2ff19" stroke="none" /><line stroke="#e1ed5e" stroke-width="0.3" x1="143.13028292997686" x2="145.6673583964461" y1="26.7553504044142" y2="22.446841604673864" /><path d="M 143.63769802327073 25.89364864446614 a86.0,86.0 0 0,1 29.32050498858742,28.57503671076993" fill="none" id="id50" stroke="none" /><text fill="#e1ed5e" style="font-size:6.75px; font-family:Arial;" text-anchor="middle"><textPath startOffset="20.669276256404974" xlink:href="#id50">February</textPath></text><path d="M 113.03279911837588 83.53348406188908 l 6.558666931194253 -8.286661412819331 a31.568106229833703,31.568106229833703 0 0,0 0.4220343573985307,0.339961004075611 l -6.6999520589480435 8.172852114950311" fill="#ff6809" stroke="none" /><path d="M 115.41159269507618 85.73525988315684 l 7.920898166654443 -7.331465090911977 a31.793100024820056,31.793100024820056 0 0,0 0.3672894839707384,0.4037154825312363 l -8.045585351467059 7.1944120328230685" fill="#ff6c09" stroke="none" /><path d="M 116.1254893667686 86.54754324733833 l 6.941818385216105 -5.791111791273642 a30.04023330851328,30.04023330851328 0 0,0 0.32694242254640177,0.3988165954123032 l -7.040207627001134 5.671092914162844" fill="#ff5307" stroke="none" /><path d="M 116.35404254752997 86.82634096563983 l 7.671665528625376 -6.179750701151829 a30.851079672375278,30.851079672375278 0 0,0 0.3286867701743883,0.4152849967657035 l -7.776618729441324 6.047145760471448" fill="#ff5e08" stroke="none" /><path d="M 116.57777611688842 87.10902102172516 l 9.758353544638814 -7.588154739184885 a33.3614544551998,33.3614544551998 0 0,0 0.3476708733383252,0.4551123335848356 l -9.887176395331446 7.419521492359168" fill="#ff820b" stroke="none" /><path d="M 117.01052211995028 87.68569379921539 l 21.077454098293316 -15.258451320254066 a47.02074956564904,47.02074956564904 0 0,0 0.46771069714609503,0.6578936685512803 l -21.336279893969373 14.894380424993281" fill="#cbff1d" stroke="none" /><path d="M 117.42321728460499 88.27688183743584 l 10.261059809608026 -6.904098976453771 a33.36753536857781,33.36753536857781 0 0,0 0.3156816100564177,0.4779821928143495 l -10.378065858585169 6.726936905300363" fill="#ff820c" stroke="none" /><line stroke="#e1ed5e" stroke-width="0.3" x1="172.87174338648825" x2="177.1583165268699" y1="56.24261187166439" y2="53.66864786411523" /><path d="M 173.72905801456457 55.72781907015455 a86.0,86.0 0 0,1 12.242430191666344,42.057860355516425" fill="none" id="id51" stroke="none" /><text fill="#e1ed5e" style="font-size:6.75px; font-family:Arial;" text-anchor="middle"><textPath startOffset="22.145653131862474" xlink:href="#id51">March</textPath></text><path d="M 118.00360718960297 89.18935116829356 l 7.7628360709898105 -4.6613600162326865 a30.0548275006205,30.0548275006205 0 0,0 0.26180086130373026,0.4445950976288785 l -7.841710642423308 4.527413750310251" fill="#ff5307" stroke="none" /><path d="M 118.36410011445183 89.81374322990088 l 16.889441756622183 -9.36828863730701 a40.31367585008687,40.31367585008687 0 0,0 0.33048508436629354,0.6080553319231727 l -17.04777219060382 9.076978471909236" fill="#ffdf14" stroke="none" /><path d="M 118.53625476483649 90.13048839642627 l 7.517557777548481 -4.00267608841883 a29.51675353685778,29.51675353685778 0 0,0 0.2342954592690218,0.4492924361626276 l -7.585161305792448 3.8730374091517037" fill="#ff4b07" stroke="none" /><path d="M 118.8641267826498 90.77261029715802 l 9.849081234985372 -4.817679175785956 a31.964234301315464,31.964234301315464 0 0,0 0.23687132670066416,0.49496997027855094 l -9.930331819645948 4.647896703442301" fill="#ff6e0a" stroke="none" /><path d="M 119.0197475246899 91.09779779509293 l 8.194998190935099 -3.8356729430740106 a30.048225366095807,30.048225366095807 0 0,0 0.21465240992623244,0.4690542542810671 l -8.259635065716383 3.6944297065782594" fill="#ff5307" stroke="none" /><path d="M 119.16976305983485 91.42560881287824 l 16.25187358540082 -7.269256339263184 a38.80352444775379,38.80352444775379 0 0,0 0.26675781850389524,0.610394092927296 l -16.374265285921684 6.989200176560039" fill="#ffcc13" stroke="none" /><path d="M 119.31412917781788 91.75594674310238 l 13.157480852409218 -5.61614618371975 a35.30595681310499,35.30595681310499 0 0,0 0.23314398780422532,0.5594606976415033 l -13.251950684749927 5.389452976636969" fill="#ff9d0e" stroke="none" /><path d="M 119.94978838288452 93.4421083053983 l 11.013398936251633 -3.6203229842449467 a32.59317448498386,32.59317448498386 0 0,0 0.17016009278012645,0.5330240670687255 l -11.073923744809017 3.430729883484834" fill="#ff770b" stroke="none" /><path d="M 120.16314734710363 94.1308016681162 l 18.54952838219478 -5.399497368333605 a40.31940928270042,40.31940928270042 0 0,0 0.187737744682121,0.6662150254289687 l -18.63948461895148 5.080274419001623" fill="#ffe014" stroke="none" /><path d="M 120.26092885502905 94.47779374421319 l 15.538910439821237 -4.2351991388387304 a37.10573343261355,37.10573343261355 0 0,0 0.1622236500747394,0.6159896225788153 l -15.609323570700706 3.9678290118871167" fill="#ffb510" stroke="none" /><path d="M 120.35273937422433 94.82641323984039 l 13.618334984940573 -3.4617274990871914 a35.05142715313974,35.05142715313974 0 0,0 0.14323093634023593,0.584431097945026 l -13.6757534477971 3.2274405765340703" fill="#ff990e" stroke="none" /><path d="M 120.43855184770803 95.1765574152323 l 17.329227024545503 -4.089650392753902 a38.80526185157608,38.80526185157608 0 0,0 0.14743992429363859,0.6496475109295161 l -17.39687781039681 3.7915685478853596" fill="#ffcc13" stroke="none" /><path d="M 120.51834098615036 95.52812308129327 l 12.253287739408503 -2.6705470319027826 a33.540928270042194,33.540928270042194 0 0,0 0.11778023008136294,0.5636210378625804 l -12.297325680314232 2.459809542754798" fill="#ff840c" stroke="none" /><path d="M 120.592083275326 95.88100663000786 l 9.508271363276409 -1.9019205673254833 a30.69662447257384,30.69662447257384 0 0,0 0.0989216377372072,0.51759980894638 l -9.539519293295774 1.7384181933457887" fill="#ff5c08" stroke="none" /><path d="M 120.65975698304385 96.23510406497455 l 61.97927094913153 -11.294687805076354 a84.0,84.0 0 0,0 0.24634073003106272,1.4208278683176294 l -62.16402649665483 10.229066903838131" fill="#4dd2ff" stroke="none" /><path d="M 120.7213421655516 96.59031103205396 l 8.923874783532913 -1.4684201996977193 a30.043881856540082,30.043881856540082 0 0,0 0.07937093979881384,0.5096183703788156 l -8.947767215469993 1.3150136473874623" fill="#ff5307" stroke="none" /><path d="M 120.77682067341334 96.94652285012252 l 25.18383753801971 -3.7011568650140694 a46.45435591958302,46.45435591958302 0 0,0 0.10917986640605926,0.7899711254246504 l -25.24366192098098 3.268297431389333" fill="#d1ff1c" stroke="none" /><path d="M 120.82617615685814 97.30363454192243 l 7.443458343478707 -0.9637047057909413 a28.505584512285928,28.505584512285928 0 0,0 0.058664375836659094,0.4858251876162459 l -7.45890480557503 0.8357858412512824" fill="#ff3c05" stroke="none" /><path d="M 120.86939407059847 97.66154086499901 l 17.48526133473572 -1.959260003322161 a38.59468850831472,38.59468850831472 0 0,0 0.06812441742469347,0.659041941094313 l -17.51631814464208 1.6588135399449166" fill="#ffc912" stroke="none" /><path d="M 120.9064616781168 98.02013634271609 l 9.016916966508708 -0.8539114115815986 a30.05725986597171,30.05725986597171 0 0,0 0.044236238766179735,0.5140921484484413 l -9.030246827972627 0.6989982157574952" fill="#ff5307" stroke="none" /><path d="M 120.93736805541906 98.37931529534042 l 9.110795153824943 -0.7052331656016805 a30.138049143708116,30.138049143708116 0 0,0 0.03549980733466242,0.5161594075092601 l -9.121558922324672 0.5487303339380861" fill="#ff5407" stroke="none" /><path d="M 120.96210409425399 98.7389718711861 l 17.97898874284121 -1.0815713170018146 a39.011491685281705,39.011491685281705 0 0,0 0.03447577517175998,0.6688208280547884 l -17.994906107469543 0.7727786955702957" fill="#ffce13" stroke="none" /><path d="M 120.98066250479742 99.09900007780936 l 32.07349131286877 -1.3773737207139738 a53.103052866716304,53.103052866716304 0 0,0 0.031293661935644534,0.9110808228761065 l -32.09240966180126 0.8265866332737475" fill="#84ff25" stroke="none" /><line stroke="#e1ed5e" stroke-width="0.3" x1="184.99686870605535" x2="189.99668451229388" y1="99.2704041080226" y2="99.22748670261217" /><path d="M 185.99683186730306 99.26182062694052 a86.0,86.0 0 0,1 -10.086455211305974,41.156179273409016" fill="none" id="id52" stroke="none" /><text fill="#e1ed5e" style="font-size:6.75px; font-family:Arial;" text-anchor="middle"><textPath startOffset="21.40746469413373" xlink:href="#id52">April</textPath></text><path d="M 120.99922638620191 99.81974689727618 l 12.534733056491117 -0.10759560774734404 a33.53519483742864,33.53519483742864 0 0,0 0.0,0.5756974209423403 l -12.534733056491117 -0.10759560774734253" fill="#ff840c" stroke="none" /><path d="M 120.93736805541906 101.62068470465957 l 19.250010545467564 1.4900725617946002 a40.30759493670886,40.30759493670886 0 0,0 -0.05932198748859794,0.6894114158177783 l -19.221594935281228 -1.820305024988036" fill="#ffdf14" stroke="none" /><path d="M 120.77682067341334 103.0534771498775 l 17.605721246068846 2.587434736864003 a38.794837428642346,38.794837428642346 0 0,0 -0.10248950920378894,0.6580561701014523 l -17.55871024472679 -2.889279088896906" fill="#ffcc13" stroke="none" /><path d="M 120.592083275326 104.11899336999214 l 17.473541996639458 3.4951977744125355 a38.819682303301065,38.819682303301065 0 0,0 -0.13631677324363467,0.6523251071981849 l -17.410967512571457 -3.79463933289613" fill="#ffcc13" stroke="none" /><path d="M 120.51834098615036 104.47187691870673 l 17.056178626486783 3.7173147464801697 a38.456564904442786,38.456564904442786 0 0,0 -0.1461150562465363,0.6438098978594216 l -16.989852708682584 -4.0095589782786085" fill="#ffc712" stroke="none" /><path d="M 120.35273937422433 105.17358676015961 l 11.983986607624269 3.0462825326429996 a33.36510300322661,33.36510300322661 0 0,0 -0.14586987760618514,0.553891684787349 l -11.929927249213353 -3.251554721803152" fill="#ff820c" stroke="none" /><path d="M 120.16314734710363 105.8691983318838 l 25.283589208767793 7.359684331694944 a47.33296103251428,47.33296103251428 0 0,0 -0.2337880430198656,0.7782043597729896 l -25.1535248457443 -7.792626295058657" fill="#c7ff1e" stroke="none" /><path d="M 119.83427380445688 106.89939002012753 l 18.23712821879644 6.343819878107995 a40.308984859766696,40.308984859766696 0 0,0 -0.23294721658488346,0.6515948239838799 l -18.125540832167612 -6.655949658472797" fill="#ffdf14" stroke="none" /><path d="M 118.5362547648365 109.86951160357373 l 9.320728816887833 4.9627631028543355 a31.55959295110449,31.55959295110449 0 0,0 -0.2587205090847432,0.4760165964176823 l -9.234162958187751 -5.122034532746621" fill="#ff6809" stroke="none" /><line stroke="#e1ed5e" stroke-width="0.3" x1="174.33088141563837" x2="178.70328620479359" y1="141.23008692659167" y2="143.65538615756765" /><path d="M 175.20536237346943 141.71514677278685 a86.0,86.0 0 0,1 -30.301960400862466,31.631185727798858" fill="none" id="id53" stroke="none" /><text fill="#e1ed5e" style="font-size:6.75px; font-family:Arial;" text-anchor="middle"><textPath startOffset="22.145653131862474" xlink:href="#id53">May</textPath></text><path d="M 118.36410011445183 110.18625677009912 l 7.915387505276015 4.390532019596459 a30.051526433358156,30.051526433358156 0 0,0 -0.25410230594011946,0.4489744269834942 l -7.838851834314517 -4.525763216679076" fill="#ff5307" stroke="none" /><path d="M 118.00360718960297 110.81064883170644 l 8.275969410678584 4.969481843197431 a30.653363117398857,30.653363117398857 0 0,0 -0.2747592826607433,0.44879863926459956 l -8.189442163562438 -5.110817598586587" fill="#ff5b08" stroke="none" /><path d="M 117.81537515405839 111.11811171558189 l 10.852683775696807 6.772877337056426 a33.792678083891786,33.792678083891786 0 0,0 -0.31134692199117053,0.48948907471931524 l -10.734819162079745 -6.958180086454413" fill="#ff880c" stroke="none" /><path d="M 117.423217284605 111.72311816256416 l 7.52137529143807 5.060716964393749 a30.06542566393646,30.06542566393646 0 0,0 -0.29179249130125295,0.42573396513277917 l -7.433393063321496 -5.189085664596572" fill="#ff5307" stroke="none" /><path d="M 116.57777611688842 112.89097897827486 l 8.331131419443642 6.478338182157272 a31.553512037726485,31.553512037726485 0 0,0 -0.336170470190238,0.42474040726253576 l -8.218694518611843 -6.620398533334491" fill="#ff6809" stroke="none" /><path d="M 115.6541949942343 113.99807769240083 l 9.21340099027744 8.238679978155892 a33.359717051377515,33.359717051377515 0 0,0 -0.38538781218707285,0.4236087156014479 l -9.070615477248488 -8.395626269315011" fill="#ff820b" stroke="none" /><path d="M 114.91283532996324 114.78537596483092 l 10.093399790466068 10.007131934565136 a35.21335318937702,35.21335318937702 0 0,0 -0.4292810921808471,0.42561204506391404 l -9.920126778155256 -10.178923989857712" fill="#ff9b0e" stroke="none" /><path d="M 114.65682725009322 115.03919595460226 l 11.056100615160911 11.344533220458477 a36.840953090096804,36.840953090096804 0 0,0 -0.45670065410940713,0.4375088956500617 l -10.859727475186192 -11.532654246414118" fill="#ffb210" stroke="none" /><path d="M 114.39649973595853 115.28858382429668 l 22.09916903292583 23.468551689914836 a53.235790518739144,53.235790518739144 0 0,0 -0.6706954891345024,0.6207857318406352 l -21.69304377247736 -23.84445516788785" fill="#82ff25" stroke="none" /><path d="M 114.13192950727249 115.5334660781643 l 6.082330080477616 6.685546225848126 a30.03832216430876,30.03832216430876 0 0,0 -0.38439750957601176,0.3437306233755395 l -5.966667544078227 -6.788972379107053" fill="#ff5307" stroke="none" /><path d="M 113.59037401385872 116.0094264158162 l 12.50512300052403 14.73100345093278 a40.32305783072722,40.32305783072722 0 0,0 -0.531545587267594,0.4434342339725479 l -12.250403079094541 -14.943499868817199" fill="#ffe015" stroke="none" /><path d="M 113.03279911837588 116.46651593811092 l 3.234747857626179 4.086998247235274 a26.212211466865227,26.212211466865227 0 0,0 -0.3552254625042008,0.2762254682052696 l -3.1641124504867473 -4.1419247670613375" fill="#ff1a02" stroke="none" /><path d="M 112.7482090630111 116.68781488649013 l 7.501794208859028 9.820089430225723 a33.357632166790765,33.357632166790765 0 0,0 -0.45802731106229494,0.3437122331628273 l -7.332113908885967 -9.947420690652566" fill="#ff820b" stroke="none" /><path d="M 112.45986205192187 116.90419585922612 l 13.72254799776444 18.617271850619023 a44.128145941921076,44.128145941921076 0 0,0 -0.6136312662871373,0.44422171489801887 l -13.400935721103336 -18.85009433689012" fill="#eeff19" stroke="none" /><path d="M 112.16784306229584 117.11559508785304 l 10.308489530728007 14.500181492480776 a38.79101514023331,38.79101514023331 0 0,0 -0.5460387854193345,0.38117747973186406 l -10.058055654134915 -14.675003788017762" fill="#ffcc13" stroke="none" /><path d="M 111.5731344415666 117.5232005979908 l 7.745775270285542 11.728090996737498 a35.055075701166544,35.055075701166544 0 0,0 -0.504984002948622,0.3273245296676618 l -7.54330563507991 -11.859329368109053" fill="#ff990e" stroke="none" /><line stroke="#e1ed5e" stroke-width="0.3" x1="143.1302829299769" x2="145.66735839644613" y1="173.24464959558577" y2="177.55315839532614" /><path d="M 143.63769802327073 174.10635135553383 a86.0,86.0 0 0,1 -40.68552437913181,11.842963189579606" fill="none" id="id54" stroke="none" /><text fill="#e1ed5e" style="font-size:6.75px; font-family:Arial;" text-anchor="middle"><textPath startOffset="21.407464694133747" xlink:href="#id54">June</textPath></text><path d="M 109.71004243097381 118.62028667847754 l 6.596353884749653 12.649378335868866 a35.26599652519236,35.26599652519236 0 0,0 -0.5391881658753648,0.27531331936374637 l -6.378238497160705 -12.760749606905447" fill="#ff9c0e" stroke="none" /><path d="M 108.73861861582097 119.09545874513695 l 9.500346800947877 20.759972299689466 a43.830528667163065,43.830528667163065 0 0,0 -0.6868590252435993,0.3072233054973658 l -9.142574372848651 -20.91999935609668" fill="#f2ff19" stroke="none" /><path d="M 108.07796709384702 119.3841803445677 l 5.402219856845674 12.963361047343763 a35.0439563167039,35.0439563167039 0 0,0 -0.5572748987714445,0.2266388498898586 l -5.178890496883788 -13.054187153812913" fill="#ff990e" stroke="none" /><path d="M 106.38641147887787 120.00534299687104 l 1.0567405442008566 3.310224703709941 a24.474807644576817,24.474807644576817 0 0,0 -0.4013394890988192,0.12433599963330859 l -0.999760422230413 -3.3278772911498935" fill="#ff0000" stroke="none" /><path d="M 105.69591212413111 120.21278271476187 l 4.826092102726196 17.12609831541485 a38.793100024820056,38.793100024820056 0 0,0 -0.6425219859063408,0.1751222244271339 l -4.53138871588516 -17.206421033986125" fill="#ffcc13" stroke="none" /><path d="M 104.9986988182912 120.39639698878246 l 3.3839954455654495 13.807856209184358 a35.216480516257135,35.216480516257135 0 0,0 -0.58839669864765,0.13886001875969842 l -3.1464665931779203 -13.863912371590281" fill="#ff9b0e" stroke="none" /><path d="M 104.64783097203109 120.47920084513623 l 3.93852436071243 17.353865039813297 a38.7951849094068,38.7951849094068 0 0,0 -0.6507201037763438,0.14182141794894848 l -3.6400418403169503 -17.418917915895964" fill="#ffcc13" stroke="none" /><path d="M 103.94208987418118 120.62667999033965 l 2.321126782953587 12.145116143232254 a33.36492926284438,33.36492926284438 0 0,0 -0.5634943584312777,0.10268744309088161 l -2.112297690971252 -12.183171760254499" fill="#ff820b" stroke="none" /><line stroke="#e1ed5e" stroke-width="0.3" x1="101.45913802915013" x2="101.54496967792366" y1="184.9874750549273" y2="189.98673829345242" /><path d="M 101.47630435890484 185.9873277026323 a86.0,86.0 0 0,1 -42.54439059252881,-10.42667462771756" fill="none" id="id55" stroke="none" /><text fill="#e1ed5e" style="font-size:6.75px; font-family:Arial;" text-anchor="middle"><textPath startOffset="22.145653131862474" xlink:href="#id55">July</textPath></text><line stroke="#e1ed5e" stroke-width="0.3" x1="58.13341422392154" x2="55.67067388415222" y1="173.97424548756322" y2="178.32567169271397" /><path d="M 57.64086615596768 174.84453072859336 a86.0,86.0 0 0,1 -31.369924170532247,-30.572349798747897" fill="none" id="id56" stroke="none" /><text fill="#e1ed5e" style="font-size:6.75px; font-family:Arial;" text-anchor="middle"><textPath startOffset="22.145653131862474" xlink:href="#id56">August</textPath></text><line stroke="#e1ed5e" stroke-width="0.3" x1="26.387840678322732" x2="22.057713659400548" y1="142.50000000000003" y2="145.00000000000006" /><path d="M 25.521815274538298 143.00000000000003 a86.0,86.0 0 0,1 -11.493303480769221,-40.785679425670985" fill="none" id="id57" stroke="none" /><text fill="#e1ed5e" style="font-size:6.75px; font-family:Arial;" text-anchor="middle"><textPath startOffset="21.40746469413373" xlink:href="#id57">September</textPath></text><line stroke="#e1ed5e" stroke-width="0.3" x1="15.003131293944662" x2="10.003315487706104" y1="100.72959589197737" y2="100.7725132973878" /><path d="M 14.003168132696942 100.73817937305945 a86.0,86.0 0 0,1 10.791469493833604,-42.45332614584628" fill="none" id="id58" stroke="none" /><text fill="#e1ed5e" style="font-size:6.75px; font-family:Arial;" text-anchor="middle"><textPath startOffset="22.145653131862435" xlink:href="#id58">October</textPath></text><line stroke="#e1ed5e" stroke-width="0.3" x1="26.387840678322718" x2="22.05771365940052" y1="57.49999999999999" y2="54.99999999999999" /><path d="M 25.521815274538284 56.99999999999999 a86.0,86.0 0 0,1 29.574782752854787,-30.34633250058573" fill="none" id="id59" stroke="none" /><text fill="#e1ed5e" style="font-size:6.75px; font-family:Arial;" text-anchor="middle"><textPath startOffset="21.40746469413373" xlink:href="#id59">November</textPath></text><line stroke="#e1ed5e" stroke-width="0.3" x1="56.869717070023135" x2="54.33264160355391" y1="26.7553504044142" y2="22.446841604673864" /><path d="M 56.362301976729285 25.89364864446614 a86.0,86.0 0 0,1 42.16139366436587,-11.88097634709845" fill="none" id="id60" stroke="none" /><text fill="#e1ed5e" style="font-size:6.75px; font-family:Arial;" text-anchor="middle"><textPath startOffset="22.145653131862474" xlink:href="#id60">December</textPath></text></svg>