<?xml version="1.0" encoding="utf-8" ?>
<svg baseProfile="full" height="200mm" version="1.1" viewBox="0,0,200,200" width="200mm" xmlns="http://www.w3.org/2000/svg" xmlns:ev="http://www.w3.org/2001/xml-events" xmlns:xlink="http://www.w3.org/1999/xlink"><defs /><rect fill="#1a1a1a" height="200" width="200" x="0" y="0" /><text alignment-baseline="middle" fill="#e1ed5e" style="dominant-baseline: central; font-size:9.0px; font-family:Arial;" text-anchor="middle" x="100.0" y="100.0">2026</text><line stroke="#e1ed5e" stroke-width="0.3" x1="100.0" x2="100.0" y1="15.0" y2="10.0" /><path d="M 100.0 14.0 a86.0,86.0 0 0,1 42.46469731375804,11.215312516191453" fill="none" id="id73" stroke="none" /><text fill="#e1ed5e" style="font-size:6.75px; font-family:Arial;" text-anchor="middle"><textPath startOffset="22.20632615414155" xlink:href="#id73">January</textPath></text><path d="M 100.0 79.0 l 0.0 -13.433485782461723 a34.43348578246172,34.43348578246172 0 0,0 0.5927158544603836,0.005101692486414085 l -0.23123537518785522 13.431495466583868" fill="#ff3a05" stroke="none" /><path d="M 100.36148047927253 79.00311137660856 l 0.45595028040616076 -26.484244113980346 a47.48816862199244,47.48816862199244 0 0,0 0.8171885373029956,0.02110556897751096 l -0.9117654529040241 26.472471752860475" fill="#fcff18" stroke="none" /><path d="M 100.72285384407766 79.0124445844662 l 0.8628229725086287 -25.051461090901984 a46.066315370849075,46.066315370849075 0 0,0 0.7922510530583997,0.03411599688905405 l -1.29391485795636 25.032897367488737" fill="#ffee16" stroke="none" /><path d="M 103.2404852339499 79.25152402106235 l 4.714043954089385 -30.183512864169987 a51.54941340226686,51.54941340226686 0 0,0 0.8755319143458014,0.14447026771398103 l -5.23290507457406 30.097896333516385" fill="#c4ff1e" stroke="none" /><path d="M 105.01212808612495 79.60689891045804 l 7.926318287721564 -32.250215344030075 a54.20998210379798,54.20998210379798 0 0,0 0.9042511845478237,0.23051376093373585 l -8.480278360954413 32.10899858692747" fill="#a1ff22" stroke="none" /><path d="M 105.36241919743992 79.69619591428918 l 3.1324065325840387 -11.86027541165567 a33.26695168025452,33.26695168025452 0 0,0 0.55239315571417,0.15098991622902866 l -3.3360975775219197 11.804598954600348" fill="#ff2703" stroke="none" /><path d="M 105.71112130821622 79.79150937346287 l 8.306377609313703 -29.391663212757457 a51.54285146152317,51.54285146152317 0 0,0 0.8517082696941377,0.24863699930225444 l -8.811076096731268 29.2443278845365" fill="#c4ff1e" stroke="none" /><path d="M 106.0581310904928 79.89281104454417 l 11.310444528193702 -37.53983561951826 a60.20670113342614,60.20670113342614 0 0,0 0.9897254234329944,0.30751250679712777 l -11.954955324337414 37.33958297783861" fill="#56ff2a" stroke="none" /><path d="M 106.40334571778207 80.00007090966166 l 10.110967107025942 -31.580151078474774 a54.15927619805131,54.15927619805131 0 0,0 0.8854195168432566,0.2919088937939438 l -10.653069446111616 31.401428460421595" fill="#a1ff22" stroke="none" /><path d="M 106.74666289553966 80.11325718540242 l 3.853990213841282 -11.360181082014318 a32.99612248956055,32.99612248956055 0 0,0 0.536293828658074,0.18710238641343846 l -4.048966046562629 11.292157842428672" fill="#ff2303" stroke="none" /><path d="M 108.09893153111575 80.62456947434976 l 5.990743050435715 -14.331918392542377 a36.53360509047524,36.53360509047524 0 0,0 0.5781290646685401,0.24752469416637168 l -6.236555872894571 14.226674170413215" fill="#ff5d08" stroke="none" /><path d="M 108.76106565485865 80.91482961587045 l 6.4770364514536825 -14.109624231803089 a36.52525352952874,36.52525352952874 0 0,0 0.5691361329841936,0.2672170457184496 l -6.718950795737474 13.996042203444636" fill="#ff5c08" stroke="none" /><line stroke="#e1ed5e" stroke-width="0.3" x1="143.23703022742887" x2="145.7803849466894" y1="26.81831364943548" y2="22.513508569990506" /><path d="M 143.74570117128098 25.957352633546492 a86.0,86.0 0 0,1 28.547481713284135,27.462654790039103" fill="none" id="id74" stroke="none" /><text fill="#e1ed5e" style="font-size:6.75px; font-family:Arial;" text-anchor="middle"><textPath startOffset="19.985693538727396" xlink:href="#id74">February</textPath></text><path d="M 110.68208982089419 81.91981866633111 l 19.941033851372975 -33.75158925442105 a60.20222708291907,60.20222708291907 0 0,0 0.8876615810976974,0.5348061704981415 l -20.519057498688312 33.4033364744643" fill="#56ff2a" stroke="none" /><path d="M 116.38621287248628 86.86637796730983 l 12.11173078834455 -9.707605752083582 a36.52197255915689,36.52197255915689 0 0,0 0.3889519110245076,0.4939294283161416 l -12.277036779963023 9.497683929814402" fill="#ff5c08" stroke="none" /><path d="M 116.60985879189232 87.15038557335679 l 16.78490800962354 -12.98503490081543 a42.22131636508252,42.22131636508252 0 0,0 0.43975322497394875,0.5786636967720957 l -17.0059371748216 12.6941864281623" fill="#ffb510" stroke="none" /><path d="M 117.04232023915458 87.72973835380427 l 14.830880337655902 -10.67805202770237 a39.275004971167235,39.275004971167235 0 0,0 0.39029513783916026,0.5520447936583645 l -15.012488095298945 10.421180733712212" fill="#ff880c" stroke="none" /><path d="M 117.2510076193507 88.02491185347247 l 15.019348706799978 -10.425943146973903 a39.28335653211374,39.28335653211374 0 0,0 0.38081572839765276,0.5588000912307813 l -15.196588900866365 10.165865032472716" fill="#ff880c" stroke="none" /><line stroke="#e1ed5e" stroke-width="0.3" x1="172.23445277983987" x2="176.4835382374775" y1="55.19839476539836" y2="52.563006222186495" /><path d="M 173.08426987136738 54.67131705675599 a86.0,86.0 0 0,1 12.851231095245387,41.99856678651699" fill="none" id="id75" stroke="none" /><text fill="#e1ed5e" style="font-size:6.75px; font-family:Arial;" text-anchor="middle"><textPath startOffset="22.20632615414155" xlink:href="#id75">March</textPath></text><path d="M 117.84615892207809 88.93136811851018 l 40.99856292092212 -25.42832901036066 a69.24398488765164,69.24398488765164 0 0,0 0.6195167059093906,1.018322573565174 l -41.43019542511773 24.718838663588404" fill="#38ff7d" stroke="none" /><path d="M 118.03404312379186 89.2402003453031 l 16.295596816926313 -9.722576118969432 a39.975641280572674,39.975641280572674 0 0,0 0.34748412250538846,0.5939630039949603 l -16.46054061390203 9.440633702620577" fill="#ff930d" stroke="none" /><path d="M 118.21658344932153 89.55222093294921 l 10.89745279832009 -6.250029241059644 a33.562537283754224,33.562537283754224 0 0,0 0.28311176279308964,0.503624235549488 l -11.003422202405613 6.061521495575362" fill="#ff2c04" stroke="none" /><path d="M 118.73160827565052 90.50648371742162 l 10.766032163203045 -5.456418911610048 a33.06979518791012,33.06979518791012 0 0,0 0.25296816526758703,0.5099683848527743 l -10.85836034142404 5.270290938258324" fill="#ff2403" stroke="none" /><path d="M 118.89224826269711 90.83032412892265 l 10.20013966437385 -4.950812272920816 a32.338138794989064,32.338138794989064 0 0,0 0.2387506403129085,0.502869737503455 l -10.283848498528515 4.774500119776821" fill="#ff1802" stroke="none" /><path d="M 119.34039704204932 91.81776055985345 l 24.401160822205487 -10.323269994443336 a47.49502883276993,47.49502883276993 0 0,0 0.3120611409350958,0.7556808052420003 l -24.57524365002678 9.901714618748034" fill="#fcff18" stroke="none" /><path d="M 119.47837535516314 92.15188598940014 l 16.64622854223802 -6.707001845066929 a38.94660966394909,38.94660966394909 0 0,0 0.2451901432292271,0.6239821703510062 l -16.759212235348947 6.419470669820139" fill="#ff830c" stroke="none" /><path d="M 119.61058180528143 92.48833698450437 l 18.56913696577986 -7.112746616112937 a40.88476834360708,40.88476834360708 0 0,0 0.24607843422885436,0.659367861233108 l -18.688819988510343 6.792055617850496" fill="#ffa10e" stroke="none" /><path d="M 119.7369772167798 92.82701384747503 l 52.10033841817711 -18.93476401734544 a76.43438059256314,76.43438059256314 0 0,0 0.43875852860209386,1.2404294442170012 l -52.41855002758901 18.035136946701826" fill="#42ffd7" stroke="none" /><path d="M 119.85752413597 93.16781622104841 l 28.65388329218725 -9.858660893088757 a51.30244581427719,51.30244581427719 0 0,0 0.2801179653901024,0.8375170624287985 l -28.819338551349123 9.363970727737644" fill="#c7ff1e" stroke="none" /><path d="M 119.97218684219823 93.5106431181261 l 29.053367670242586 -9.440011397958164 a51.548518592165436,51.548518592165436 0 0,0 0.26693422460812666,0.8462544383625559 l -29.21155737861892 8.93850679316919" fill="#c4ff1e" stroke="none" /><path d="M 120.08093135843002 93.85539295169968 l 44.632341342432184 -13.657145393294938 a67.67508450984292,67.67508450984292 0 0,0 0.3312666476228112,1.1168664543122226 l -44.8608138871667 12.886849552236184" fill="#35ff68" stroke="none" /><path d="M 120.18372546131832 94.20196356495316 l 16.25998813226874 -4.67089209100676 a37.917578047325506,37.917578047325506 0 0,0 0.17480586586016944,0.6288697064577697 l -16.337980768695274 4.390311081130038" fill="#ff730a" stroke="none" /><path d="M 120.28053869075195 94.5502522615342 l 33.96959985316148 -9.128246187108102 a56.17468681646451,56.17468681646451 0 0,0 0.24289845804628218,0.9359868433692762 l -34.121694643078065 8.542162918189975" fill="#88ff25" stroke="none" /><path d="M 120.37134235888165 94.90015583598534 l 18.608966335418483 -4.658643828773147 a40.183237224100225,40.183237224100225 0 0,0 0.16220097599724664,0.6724277619182052 l -18.686400111676548 4.337630835195536" fill="#ff960d" stroke="none" /><path d="M 120.45610955862082 95.25157060432595 l 40.103922994864554 -9.30923088209655 a62.17021276595745,62.17021276595745 0 0,0 0.23300689075992523,1.0445242032168243 l -40.258224272626514 8.617528509329762" fill="#3fff2d" stroke="none" /><path d="M 120.6074358757038 95.95851677861258 l 24.740279590230084 -4.852007084211486 a46.211572877311596,46.211572877311596 0 0,0 0.14636806271053152,0.7819040437259641 l -24.820133376850475 4.42542496302296" fill="#fff016" stroke="none" /><path d="M 120.67395015179393 96.31383870115 l 10.78976647342085 -1.9238132677079083 a31.959932392125673,31.959932392125673 0 0,0 0.09190480109999975,0.5424273385246947 l -10.821283136041073 1.7378001408673756" fill="#ff1101" stroke="none" /><path d="M 120.73433829027371 96.67025291283417 l 9.825884115771137 -1.5779480664046808 a30.951779677868366,30.951779677868366 0 0,0 0.0799500778614097,0.5267711204721366 l -9.851590087071846 1.4085778335404622" fill="#ff0000" stroke="none" /><path d="M 120.83666639777658 97.38593545837742 l 10.529906406171218 -1.3210296905225591 a31.612447802744086,31.612447802744086 0 0,0 0.06308888229073695,0.5405070157359054 l -10.551085641465543 1.139578936461801" fill="#ff0b01" stroke="none" /><path d="M 120.87857604477298 97.74499172005257 l 10.232595872524168 -1.1051801793578102 a31.292105786438654,31.292105786438654 0 0,0 0.05323066486415966,0.5360255308174916 l -10.250103663070558 0.9288791178358836" fill="#ff0600" stroke="none" /><path d="M 120.94382443527127 98.46500227214037 l 42.50460611678224 -3.115212983878527 a63.61861205010937,63.61861205010937 0 0,0 0.07064516352990097,1.0928494115180754 l -42.551931871316555 2.3831045081074165" fill="#2fff30" stroke="none" /><path d="M 120.98425023603335 99.18683210126433 l 11.371361805178264 -0.440655552658324 a32.37989659972162,32.37989659972162 0 0,0 0.01678867655582802,0.5571344411795803 l -11.377262176189737 0.24485096405374465" fill="#ff1802" stroke="none" /><line stroke="#e1ed5e" stroke-width="0.3" x1="184.98032266829074" x2="189.97916517819016" y1="98.17113171792111" y2="98.06355123074" /><path d="M 185.9800911702706 98.14961562048488 a86.0,86.0 0 0,1 -9.607161424134198,41.387399972396054" fill="none" id="id76" stroke="none" /><text fill="#e1ed5e" style="font-size:6.75px; font-family:Arial;" text-anchor="middle"><textPath startOffset="21.466115282336823" xlink:href="#id76">April</textPath></text><path d="M 120.99513854157772 99.54816195383933 l 32.925265343738026 -0.7085872537956673 a53.93288924239411,53.93288924239411 0 0,0 0.011985924295966134,0.92832304567459 l -32.932584275151704 0.14172795006061462" fill="#a4ff21" stroke="none" /><path d="M 120.99980553446 99.90962569577887 l 53.849173240794926 -0.23174412527459057 a74.84967190296283,74.84967190296283 0 0,0 -0.005544944640916639,1.2884498548802397 l -53.845183998864506 -0.6952152078093337" fill="#40ffc4" stroke="none" /><path d="M 120.99824983174949 100.27111621757518 l 9.950353792811104 0.12847272060564308 a30.951183137800758,30.951183137800758 0 0,0 -0.011463636298603265,0.5326701333022126 l -9.946668093827492 -0.29973266969797047" fill="#ff0000" stroke="none" /><path d="M 120.9904718944345 100.63252640178507 l 62.97141568330351 1.8975792053552112 a84.0,84.0 0 0,0 -0.05599146859518722,1.4448910119439753 l -62.92942208185712 -2.9812474643131925" fill="#4dd2ff" stroke="none" /><line stroke="#e1ed5e" stroke-width="0.3" x1="174.80103733775053" x2="179.2010983576182" y1="140.37084112569926" y2="142.7455964860345" /><path d="M 175.68104954172406 140.8457921977663 a86.0,86.0 0 0,1 -30.038265399797805,32.042727171017184" fill="none" id="id77" stroke="none" /><text fill="#e1ed5e" style="font-size:6.75px; font-family:Arial;" text-anchor="middle"><textPath startOffset="22.206326154141568" xlink:href="#id77">May</textPath></text><line stroke="#e1ed5e" stroke-width="0.3" x1="143.8653032363475" x2="146.44561519142675" y1="172.8068346515853" y2="177.08958963109032" /><path d="M 144.38136562736335 173.6633856474863 a86.0,86.0 0 0,1 -40.68145358897372,12.25698825130547" fill="none" id="id78" stroke="none" /><text fill="#e1ed5e" style="font-size:6.75px; font-family:Arial;" text-anchor="middle"><textPath startOffset="21.466115282336833" xlink:href="#id78">June</textPath></text><line stroke="#e1ed5e" stroke-width="0.3" x1="102.19456741930631" x2="102.32365962044197" y1="184.97166512339345" y2="189.96999836594603" /><path d="M 102.22038585953345 185.97133177190398 a86.0,86.0 0 0,1 -42.740103519485714,-10.115201625700543" fill="none" id="id79" stroke="none" /><text fill="#e1ed5e" style="font-size:6.75px; font-family:Arial;" text-anchor="middle"><textPath startOffset="22.20632615414155" xlink:href="#id79">July</textPath></text><line stroke="#e1ed5e" stroke-width="0.3" x1="58.666819895761336" x2="56.23545636021788" y1="174.27360380694188" y2="178.64263932499728" /><path d="M 58.180547188652646 175.14741091055294 a86.0,86.0 0 0,1 -31.652253787137756,-30.449443065178592" fill="none" id="id80" stroke="none" /><text fill="#e1ed5e" style="font-size:6.75px; font-family:Arial;" text-anchor="middle"><textPath startOffset="22.20632615414155" xlink:href="#id80">August</textPath></text><line stroke="#e1ed5e" stroke-width="0.3" x1="26.63291911575756" x2="22.317208475507996" y1="142.92168965132927" y2="145.44649492493687" /><path d="M 25.769776987707644 143.4266507060508 a86.0,86.0 0 0,1 -11.730757126820373,-40.83630448921669" fill="none" id="id81" stroke="none" /><text fill="#e1ed5e" style="font-size:6.75px; font-family:Arial;" text-anchor="middle"><textPath startOffset="21.46611528233685" xlink:href="#id81">September</textPath></text><line stroke="#e1ed5e" stroke-width="0.3" x1="15.007084014347285" x2="10.007500721073583" y1="101.09737516637583" y2="101.16192664675087" /><path d="M 14.007167355692545 101.11028546245083 a86.0,86.0 0 0,1 10.666146001902534,-42.60595125391555" fill="none" id="id82" stroke="none" /><text fill="#e1ed5e" style="font-size:6.75px; font-family:Arial;" text-anchor="middle"><textPath startOffset="22.20632615414155" xlink:href="#id82">October</textPath></text><line stroke="#e1ed5e" stroke-width="0.3" x1="26.266209847984243" x2="21.928928074336255" y1="57.711370442889674" y2="55.22380399835377" /><path d="M 25.398753493254645 57.213857153982495 a86.0,86.0 0 0,1 29.58750427330803,-30.492523968695096" fill="none" id="id83" stroke="none" /><text fill="#e1ed5e" style="font-size:6.75px; font-family:Arial;" text-anchor="middle"><textPath startOffset="21.46611528233685" xlink:href="#id83">November</textPath></text><line stroke="#e1ed5e" stroke-width="0.3" x1="56.762969772571076" x2="54.21961505331055" y1="26.818313649435495" y2="22.513508569990535" /><path d="M 56.25429882871897 25.957352633546506 a86.0,86.0 0 0,1 42.265352541879196,-11.944610805530505" fill="none" id="id84" stroke="none" /><text fill="#e1ed5e" style="font-size:6.75px; font-family:Arial;" text-anchor="middle"><textPath startOffset="22.20632615414155" xlink:href="#id84">December</textPath></text></svg>