<?xml version="1.0" encoding="utf-8" ?>
<svg baseProfile="full" height="200mm" version="1.1" viewBox="0,0,200,200" width="200mm" xmlns="http://www.w3.org/2000/svg" xmlns:ev="http://www.w3.org/2001/xml-events" xmlns:xlink="http://www.w3.org/1999/xlink"><defs /><rect fill="#1a1a1a" height="200" width="200" x="0" y="0" /><text alignment-baseline="middle" fill="#e1ed5e" style="dominant-baseline: central; font-size:9.0px; font-family:Arial;" text-anchor="middle" x="100.0" y="100.0">2026</text><line stroke="#e1ed5e" stroke-width="0.3" x1="100.0" x2="100.0" y1="15.0" y2="10.0" /><path d="M 100.0 14.0 a86.0,86.0 0 0,1 42.46469731375804,11.215312516191453" fill="none" id="id73" stroke="none" /><text fill="#e1ed5e" style="font-size:6.75px; font-family:Arial;" text-anchor="middle"><textPath startOffset="22.20632615414155" xlink:href="#id73">January</textPath></text><path d="M 100.0 79.0 l 0.0 -4.50104221857719 a25.50104221857719,25.50104221857719 0 0,0 0.43895852205334585,0.0037782545834644395 l -0.07747804278081748 4.500375340602284" fill="#ff1202" stroke="none" /><path d="M 100.36148047927253 79.00311137660856 l 0.1527713279273786 -8.87384725115517 a29.87516220220627,29.87516220220627 0 0,0 0.5140994232909706,0.013277671362567228 l -0.305497386413217 8.869902787650242" fill="#ff5207" stroke="none" /><path d="M 100.72285384407766 79.0124445844662 l 0.28909865163142506 -8.393777001231205 a29.398754096696308,29.398754096696308 0 0,0 0.5056014075406461,0.021772260169512878 l -0.4335408915614027 8.387557014537498" fill="#ff4b07" stroke="none" /><path d="M 103.2404852339499 79.25152402106235 l 1.5794940495106993 -10.113329325435934 a31.235928462878302,31.235928462878302 0 0,0 0.530521114373529,0.08754052955194921 l -1.7533443700231033 10.084642532944361" fill="#ff6609" stroke="none" /><path d="M 105.01212808612495 79.60689891045804 l 2.655803104916629 -10.805801500248016 a32.127382270545354,32.127382270545354 0 0,0 0.5359017351995408,0.13661328465224454 l -2.8414137288011947 10.758485219426904" fill="#ff720a" stroke="none" /><path d="M 105.36241919743992 79.69619591428918 l 1.0495484401610051 -3.9739201884227864 a25.11018169819761,25.11018169819761 0 0,0 0.4169511123875072,0.11396848943502413 l -1.1177974417722232 3.9552651581614686" fill="#ff0c01" stroke="none" /><path d="M 105.71112130821622 79.79150937346287 l 2.783146303826578 -9.848011092365953 a31.233729809989434,31.233729809989434 0 0,0 0.5161147514785589,0.150668048754935 l -2.952251273028564 9.798644714692314" fill="#ff6509" stroke="none" /><path d="M 106.0581310904928 79.89281104454417 l 3.7896930965408764 -12.578148943478132 a34.13665119466486,34.13665119466486 0 0,0 0.5611653009081163,0.17435679060486645 l -4.005643770159711 12.511052017990746" fill="#ff8e0d" stroke="none" /><path d="M 106.40334571778207 80.00007090966166 l 3.387794542410214 -10.58128884602971 a32.11039268004048,32.11039268004048 0 0,0 0.524954732933297,0.17306932190606025 l -3.569432097585928 10.521405799864413" fill="#ff720a" stroke="none" /><path d="M 106.74666289553966 80.11325718540242 l 1.291323260648441 -3.8063578946564505 a25.019437297148098,25.019437297148098 0 0,0 0.40664686655843685,0.141871107021707 l -1.3566521312701516 3.783565934462536" fill="#ff0a01" stroke="none" /><path d="M 108.09893153111575 80.62456947434976 l 2.007266604313756 -4.802072284340097 a26.20471108178164,26.20471108178164 0 0,0 0.4146786245184837,0.1775437458245037 l -2.0896289866225546 4.7668090105528025" fill="#ff1c02" stroke="none" /><path d="M 108.76106565485865 80.91482961587045 l 2.170204739957968 -4.7275900971674245 a26.20191279628672,26.20191279628672 0 0,0 0.40827794155109015,0.19169196796774474 l -2.2512608928086557 4.689533146559676" fill="#ff1c02" stroke="none" /><line stroke="#e1ed5e" stroke-width="0.3" x1="143.23703022742887" x2="145.7803849466894" y1="26.81831364943548" y2="22.513508569990506" /><path d="M 143.74570117128098 25.957352633546492 a86.0,86.0 0 0,1 28.547481713284135,27.462654790039103" fill="none" id="id74" stroke="none" /><text fill="#e1ed5e" style="font-size:6.75px; font-family:Arial;" text-anchor="middle"><textPath startOffset="19.985693538727396" xlink:href="#id74">February</textPath></text><path d="M 110.68208982089419 81.91981866633111 l 6.6814702230368335 -11.308853907193855 a34.13515211314972,34.13515211314972 0 0,0 0.5033113318886822,0.30323944587400087 l -6.8751436211431525 11.19216785186124" fill="#ff8e0d" stroke="none" /><path d="M 116.38621287248628 86.86637796730983 l 4.058173172710941 -3.252643732163452 a26.200813469842288,26.200813469842288 0 0,0 0.27903357226899667,0.35434430047870924 l -4.113560825573901 3.1823070377317046" fill="#ff1c02" stroke="none" /><path d="M 116.60985879189232 87.15038557335679 l 5.623974358530591 -4.35078364951067 a28.110443442589144,28.110443442589144 0 0,0 0.29278239580302595,0.3852673133101107 l -5.69803269455773 4.253331560319526" fill="#ff3805" stroke="none" /><path d="M 117.04232023915458 87.72973835380427 l 4.969255159789405 -3.577802795727124 a27.123248295488796,27.123248295488796 0 0,0 0.2695371251997312,0.3812411486547216 l -5.030104904793019 3.4917351467406093" fill="#ff2a04" stroke="none" /><path d="M 117.2510076193507 88.02491185347247 l 5.032403630716541 -3.493330847476838 a27.126046580983715,27.126046580983715 0 0,0 0.2629618774770756,0.38586410740621374 l -5.09178997386235 3.4061887168002176" fill="#ff2a04" stroke="none" /><line stroke="#e1ed5e" stroke-width="0.3" x1="172.23445277983987" x2="176.4835382374775" y1="55.19839476539836" y2="52.563006222186495" /><path d="M 173.08426987136738 54.67131705675599 a86.0,86.0 0 0,1 12.851231095245387,41.99856678651699" fill="none" id="id75" stroke="none" /><text fill="#e1ed5e" style="font-size:6.75px; font-family:Arial;" text-anchor="middle"><textPath startOffset="22.20632615414155" xlink:href="#id75">March</textPath></text><path d="M 117.84615892207809 88.93136811851018 l 13.737034869161631 -8.520050884553836 a37.16469591647022,37.16469591647022 0 0,0 0.332507582104821,0.5465550379983422 l -13.881658249552675 8.282328073348413" fill="#ffb711" stroke="none" /><path d="M 118.03404312379186 89.2402003453031 l 5.460025077456579 -3.2576597238778873 a27.358004460758963,27.358004460758963 0 0,0 0.23780662095757996,0.40648860136527454 l -5.5152913728844855 3.163191710158717" fill="#ff2d04" stroke="none" /><path d="M 118.21658344932153 89.55222093294921 l 3.651315519626981 -2.0941433918870924 a25.20922101696421,25.20922101696421 0 0,0 0.2126486129583529,0.3782781544830375 l -3.6868217738777664 2.030981727469261" fill="#ff0d01" stroke="none" /><path d="M 118.73160827565052 90.50648371742162 l 3.6072815409089367 -1.8282352236129153 a25.044122172763988,25.044122172763988 0 0,0 0.1915755934012415,0.3862047061957364 l -3.6382171472635862 1.765870928918229" fill="#ff0b01" stroke="none" /><path d="M 118.89224826269711 90.83032412892265 l 3.417672822095853 -1.6588259679970514 a24.798972375655552,24.798972375655552 0 0,0 0.18308940323762052,0.3856329768376689 l -3.4457204191752298 1.5997505755188421" fill="#ff0701" stroke="none" /><path d="M 119.34039704204932 91.81776055985345 l 8.17588649897777 -3.4589290398047123 a29.87746079386281,29.87746079386281 0 0,0 0.19630674478385543,0.4753723534054289 l -8.234214930647822 3.31768211594598" fill="#ff5207" stroke="none" /><path d="M 119.47837535516314 92.15188598940014 l 5.577508225491096 -2.247257260966054 a27.013215712277873,27.013215712277873 0 0,0 0.1700629216952443,0.43279158606479634 l -5.615364697068041 2.1509166700054734" fill="#ff2803" stroke="none" /><path d="M 119.61058180528143 92.48833698450437 l 6.221800566062843 -2.3832066618899255 a27.66261782463443,27.66261782463443 0 0,0 0.16649656966985452,0.44612802982874467 l -6.261901724234323 2.2757554950318477" fill="#ff3204" stroke="none" /><path d="M 119.7369772167798 92.82701384747503 l 17.45681103325666 -6.344308068731967 a39.5739197888278,39.5739197888278 0 0,0 0.22716733861061447,0.6422326569350135 l -17.563431452677083 6.042877785370338" fill="#ffd714" stroke="none" /><path d="M 119.85752413597 93.16781622104841 l 9.600809537662967 -3.3032564754236633 a31.15317916324284,31.15317916324284 0 0,0 0.1701003728795394,0.5085784641257031 l -9.656247204314276 3.137504908375646" fill="#ff6409" stroke="none" /><path d="M 119.97218684219823 93.5106431181261 l 9.734661322702754 -3.1629831999028015 a31.23562864657527,31.23562864657527 0 0,0 0.16174777744608518,0.5127846560701428 l -9.787664583917046 2.9949483774062395" fill="#ff6509" stroke="none" /><path d="M 120.08093135843002 93.85539295169968 l 14.954573663859664 -4.5759819153359516 a36.63901799849616,36.63901799849616 0 0,0 0.17934642789826694,0.6046669969877972 l -15.031125988869633 4.3178855316016245" fill="#ffb010" stroke="none" /><path d="M 120.18372546131832 94.20196356495316 l 5.448093982609924 -1.5650355269283673 a26.668426963796783,26.668426963796783 0 0,0 0.12294554944191652,0.4423005555756028 l -5.474226302618203 1.4710236679338127" fill="#ff2303" stroke="none" /><path d="M 120.28053869075195 94.5502522615342 l 11.38190083819289 -3.058522719648913 a32.78567893322504,32.78567893322504 0 0,0 0.1417647575837798,0.5462774404544378 l -11.432861927646972 2.8621488536456243" fill="#ff7b0b" stroke="none" /><path d="M 120.37134235888165 94.90015583598534 l 6.235145849423082 -1.5609316073418604 a27.427561843061234,27.427561843061234 0 0,0 0.11071226729092852,0.45897382339174647 l -6.26109091697483 1.4533725522907077" fill="#ff2e04" stroke="none" /><path d="M 120.45610955862082 95.25157060432595 l 13.4372755853228 -3.1191637004227073 a34.79454810227384,34.79454810227384 0 0,0 0.13040601130364537,0.5845845786250519 l -13.488975983628483 2.8874009522476918" fill="#ff970d" stroke="none" /><path d="M 120.6074358757038 95.95851677861258 l 8.289512099712267 -1.6257201656016815 a29.447424276554365,29.447424276554365 0 0,0 0.09327019564163092,0.49825311465337613 l -8.316268019263758 1.4827889734857427" fill="#ff4c07" stroke="none" /><path d="M 120.67395015179393 96.31383870115 l 3.615233991527422 -0.6445955189022743 a24.672250018242792,24.672250018242792 0 0,0 0.07094815479568217,0.4187400257488838 l -3.6257940078433273 0.5822697048375526" fill="#ff0500" stroke="none" /><path d="M 120.73433829027371 96.67025291283417 l 3.2922742433444703 -0.5287094489564549 a24.334456983499,24.334456983499 0 0,0 0.06285718465284251,0.41415031073139225 l -3.300887321436613 0.47196002583298047" fill="#ff0000" stroke="none" /><path d="M 120.83666639777658 97.38593545837742 l 3.5281649200627423 -0.4426260246464767 a24.555821353900626,24.555821353900626 0 0,0 0.04900599069756708,0.4198534008425863 l -3.5352612637638985 0.38182888547903765" fill="#ff0300" stroke="none" /><path d="M 120.87857604477298 97.74499172005257 l 3.4285476438290368 -0.37030319062225064 a24.44848711741695,24.44848711741695 0 0,0 0.04158905869310176,0.41879614539963195 l -3.434413828204367 0.31123151451818376" fill="#ff0200" stroke="none" /><path d="M 120.94382443527127 98.46500227214037 l 14.241651773317477 -1.0437875460889912 a35.27985075810694,35.27985075810694 0 0,0 0.0391764413872132,0.6060422083567981 l -14.257508805709104 0.7984862734791577" fill="#ff9e0e" stroke="none" /><path d="M 120.98425023603335 99.18683210126433 l 3.810104123134304 -0.14764665541650013 a24.812963803130145,24.812963803130145 0 0,0 0.012865291969023826,0.42693640728256427 l -3.812081109558973 0.08204010070893678" fill="#ff0701" stroke="none" /><line stroke="#e1ed5e" stroke-width="0.3" x1="184.98032266829074" x2="189.97916517819016" y1="98.17113171792111" y2="98.06355123074" /><path d="M 185.9800911702706 98.14961562048488 a86.0,86.0 0 0,1 -9.607161424134198,41.387399972396054" fill="none" id="id76" stroke="none" /><text fill="#e1ed5e" style="font-size:6.75px; font-family:Arial;" text-anchor="middle"><textPath startOffset="21.466115282336823" xlink:href="#id76">April</textPath></text><path d="M 120.99513854157772 99.54816195383933 l 11.031984681407359 -0.23742021963085047 a32.034539155374645,32.034539155374645 0 0,0 0.007119284105971235,0.5513963997338258 l -11.034436972631045 0.047487561836561894" fill="#ff710a" stroke="none" /><path d="M 120.99980553446 99.90962569577887 l 18.042778033735235 -0.07764850528445819 a39.04294511616692,39.04294511616692 0 0,0 -0.0028923435972859983,0.6720787905956228 l -18.041441392848448 -0.23293976351484935" fill="#ffd013" stroke="none" /><path d="M 120.99824983174949 100.27111621757518 l 3.333979224490987 0.04304624642819275 a24.334257105963648,24.334257105963648 0 0,0 -0.009012872684623674,0.4187927782512871 l -3.3327442891213557 -0.10042884046959467" fill="#ff0000" stroke="none" /><path d="M 120.9904718944345 100.63252640178507 l 21.09928913046292 0.6358054978960779 a42.10886663092137,42.10886663092137 0 0,0 -0.028068300994573345,0.7243181299781651 l -21.085218696617144 -0.9989008748882492" fill="#fff817" stroke="none" /><path d="M 120.95626037817324 101.35467743843564 l 62.86878113451971 4.064032315306923 a84.0,84.0 0 0,0 -0.10569376534264929,1.4421074540129188 l -62.789510810512716 -5.145612905816612" fill="#4dd2ff" stroke="none" /><path d="M 120.92983693683757 101.71520430193887 l 5.18413427511835 0.4248408354707072 a26.201513041216018,26.201513041216018 0 0,0 -0.04070642576767372,0.4491920163345291 l -5.176053253073601 -0.5140142403538068" fill="#ff1c02" stroke="none" /><path d="M 120.81339534386255 102.79330883721812 l 10.142892592507774 1.3612498607518506 a31.23382974875711,31.23382974875711 0 0,0 -0.0761004066419555,0.5322460668088441 l -10.117958134849218 -1.535641399541104" fill="#ff6509" stroke="none" /><path d="M 120.70491114924044 103.5080841355445 l 25.920372067311334 4.391752535488735 a47.2897922859962,47.2897922859962 0 0,0 -0.14289074102796423,0.8014071598241401 l -25.84093488394418 -4.837278446046093" fill="#c6ff1e" stroke="none" /><path d="M 120.5718875245553 104.21870165774334 l 3.4966458717056685 0.7170613643448345 a24.569413026304517,24.569413026304517 0 0,0 -0.08852705974340577,0.4135689509454765 l -3.4837847732378195 -0.77714413470648" fill="#ff0400" stroke="none" /><path d="M 120.49622156327973 104.57218783832717 l 8.709364391802884 1.9428385777748607 a29.92343262699362,29.92343262699362 0 0,0 -0.11647259277836616,0.5017608813182391 l -8.674631233093965 -2.0924681164416645" fill="#ff5307" stroke="none" /><path d="M 120.41448212921028 104.9243191809786 l 3.557814180774048 0.8582050968451902 a24.659857611051006,24.659857611051006 0 0,0 -0.10308840425452896,0.4117869308866584 l -3.5425144622244584 -0.9193198671292445" fill="#ff0500" stroke="none" /><line stroke="#e1ed5e" stroke-width="0.3" x1="174.80103733775053" x2="179.2010983576182" y1="140.37084112569926" y2="142.7455964860345" /><path d="M 175.68104954172406 140.8457921977663 a86.0,86.0 0 0,1 -30.038265399797805,32.042727171017184" fill="none" id="id77" stroke="none" /><text fill="#e1ed5e" style="font-size:6.75px; font-family:Arial;" text-anchor="middle"><textPath startOffset="22.206326154141568" xlink:href="#id77">May</textPath></text><line stroke="#e1ed5e" stroke-width="0.3" x1="143.8653032363475" x2="146.44561519142675" y1="172.8068346515853" y2="177.08958963109032" /><path d="M 144.38136562736335 173.6633856474863 a86.0,86.0 0 0,1 -40.68145358897372,12.25698825130547" fill="none" id="id78" stroke="none" /><text fill="#e1ed5e" style="font-size:6.75px; font-family:Arial;" text-anchor="middle"><textPath startOffset="21.466115282336833" xlink:href="#id78">June</textPath></text><line stroke="#e1ed5e" stroke-width="0.3" x1="102.19456741930631" x2="102.32365962044197" y1="184.97166512339345" y2="189.96999836594603" /><path d="M 102.22038585953345 185.97133177190398 a86.0,86.0 0 0,1 -42.740103519485714,-10.115201625700543" fill="none" id="id79" stroke="none" /><text fill="#e1ed5e" style="font-size:6.75px; font-family:Arial;" text-anchor="middle"><textPath startOffset="22.20632615414155" xlink:href="#id79">July</textPath></text><line stroke="#e1ed5e" stroke-width="0.3" x1="58.666819895761336" x2="56.23545636021788" y1="174.27360380694188" y2="178.64263932499728" /><path d="M 58.180547188652646 175.14741091055294 a86.0,86.0 0 0,1 -31.652253787137756,-30.449443065178592" fill="none" id="id80" stroke="none" /><text fill="#e1ed5e" style="font-size:6.75px; font-family:Arial;" text-anchor="middle"><textPath startOffset="22.20632615414155" xlink:href="#id80">August</textPath></text><line stroke="#e1ed5e" stroke-width="0.3" x1="26.63291911575756" x2="22.317208475507996" y1="142.92168965132927" y2="145.44649492493687" /><path d="M 25.769776987707644 143.4266507060508 a86.0,86.0 0 0,1 -11.730757126820373,-40.83630448921669" fill="none" id="id81" stroke="none" /><text fill="#e1ed5e" style="font-size:6.75px; font-family:Arial;" text-anchor="middle"><textPath startOffset="21.46611528233685" xlink:href="#id81">September</textPath></text><line stroke="#e1ed5e" stroke-width="0.3" x1="15.007084014347285" x2="10.007500721073583" y1="101.09737516637583" y2="101.16192664675087" /><path d="M 14.007167355692545 101.11028546245083 a86.0,86.0 0 0,1 10.666146001902534,-42.60595125391555" fill="none" id="id82" stroke="none" /><text fill="#e1ed5e" style="font-size:6.75px; font-family:Arial;" text-anchor="middle"><textPath startOffset="22.20632615414155" xlink:href="#id82">October</textPath></text><line stroke="#e1ed5e" stroke-width="0.3" x1="26.266209847984243" x2="21.928928074336255" y1="57.711370442889674" y2="55.22380399835377" /><path d="M 25.398753493254645 57.213857153982495 a86.0,86.0 0 0,1 29.58750427330803,-30.492523968695096" fill="none" id="id83" stroke="none" /><text fill="#e1ed5e" style="font-size:6.75px; font-family:Arial;" text-anchor="middle"><textPath startOffset="21.46611528233685" xlink:href="#id83">November</textPath></text><line stroke="#e1ed5e" stroke-width="0.3" x1="56.762969772571076" x2="54.21961505331055" y1="26.818313649435495" y2="22.513508569990535" /><path d="M 56.25429882871897 25.957352633546506 a86.0,86.0 0 0,1 42.265352541879196,-11.944610805530505" fill="none" id="id84" stroke="none" /><text fill="#e1ed5e" style="font-size:6.75px; font-family:Arial;" text-anchor="middle"><textPath startOffset="22.20632615414155" xlink:href="#id84">December</textPath></text></svg>