<?xml version="1.0" encoding="utf-8" ?>
<svg baseProfile="full" height="200mm" version="1.1" viewBox="0,0,200,200" width="200mm" xmlns="http://www.w3.org/2000/svg" xmlns:ev="http://www.w3.org/2001/xml-events" xmlns:xlink="http://www.w3.org/1999/xlink"><defs /><rect fill="#1a1a1a" height="200" width="200" x="0" y="0" /><text alignment-baseline="middle" fill="#e1ed5e" style="dominant-baseline: central; font-size:9.0px; font-family:Arial;" text-anchor="middle" x="100.0" y="100.0">2026</text><line stroke="#e1ed5e" stroke-width="0.3" x1="100.0" x2="100.0" y1="15.0" y2="10.0" /><path d="M 100.0 14.0 a86.0,86.0 0 0,1 42.46469731375804,11.215312516191453" fill="none" id="id73" stroke="none" /><text fill="#e1ed5e" style="font-size:6.75px; font-family:Arial;" text-anchor="middle"><textPath startOffset="22.20632615414155" xlink:href="#id73">January</textPath></text><path d="M 100.0 79.0 l 0.0 -4.104301613430501 a25.1043016134305,25.1043016134305 0 0,0 0.4321292847154745,0.0037194731816302066 l -0.07064880544294613 4.10369351685743" fill="#ff1001" stroke="none" /><path d="M 100.36148047927253 79.00311137660856 l 0.1393054268876565 -8.09166940046274 a29.092868446252254,29.092868446252254 0 0,0 0.5006375124883445,0.012929989923040893 l -0.27856957457086884 8.088072618397339" fill="#ff4b06" stroke="none" /><path d="M 100.72285384407766 79.0124445844662 l 0.2636162925631291 -7.653914541556806 a28.658452935101153,28.658452935101153 0 0,0 0.4928696670024119,0.021224004640008873 l -0.3953267919548725 7.648242810392603" fill="#ff4406" stroke="none" /><path d="M 103.2404852339499 79.25152402106235 l 1.4402708663905557 -9.221898363055505 a30.33369110197564,30.33369110197564 0 0,0 0.5151972231466566,0.08501195619934862 l -1.5987972956760874 9.195740143916533" fill="#ff5c08" stroke="none" /><path d="M 105.01212808612495 79.60689891045804 l 2.421709559504794 -9.85333315666989 a31.146568458692187,31.146568458692187 0 0,0 0.5195412418592016,0.13244263061821218 l -2.5909596900490204 9.81018752988281" fill="#ff6809" stroke="none" /><path d="M 105.36241919743992 79.69619591428918 l 0.957036869938083 -3.62364231414462 a24.747893167004666,24.747893167004666 0 0,0 0.41093536117145857,0.11232415738135934 l -1.0192701203332524 3.606631615936967" fill="#ff0b01" stroke="none" /><path d="M 105.71112130821622 79.79150937346287 l 2.5378281985587345 -8.979966383931371 a30.331686247508397,30.331686247508397 0 0,0 0.5012091352775814,0.14631669064696098 l -2.692027551559743 8.934951364365707" fill="#ff5c08" stroke="none" /><path d="M 106.0581310904928 79.89281104454417 l 3.455653765330797 -11.46945851554472 a32.97873205250231,32.97873205250231 0 0,0 0.5421305092370321,0.16844258817604252 l -3.6525696472785474 11.408275792486156" fill="#ff820b" stroke="none" /><path d="M 106.40334571778207 80.00007090966166 l 3.0891802234151458 -9.648609982747958 a31.13107640144535,31.13107640144535 0 0,0 0.5089444424142807,0.1677909808419418 l -3.254807488071844 9.594005277646781" fill="#ff6809" stroke="none" /><path d="M 106.74666289553966 80.11325718540242 l 1.1775006509081551 -3.4708496587420905 a24.665147355356837,24.665147355356837 0 0,0 0.4008885078483067,0.13986212873607978 l -1.2370711628197355 3.4500666768338033" fill="#ff0901" stroke="none" /><path d="M 108.09893153111575 80.62456947434976 l 1.830337766810446 -4.37879763559675 a25.745946172695213,25.745946172695213 0 0,0 0.4074188611544233,0.17443549402360256 l -1.9054403857551845 4.346642613610356" fill="#ff1a02" stroke="none" /><path d="M 108.76106565485865 80.91482961587045 l 1.9789138566444344 -4.310880618572799 a25.74339453973691,25.74339453973691 0 0,0 0.40113331469108926,0.18833746985798736 l -2.0528253826351217 4.276178166074809" fill="#ff1a02" stroke="none" /><line stroke="#e1ed5e" stroke-width="0.3" x1="143.23703022742887" x2="145.7803849466894" y1="26.81831364943548" y2="22.513508569990506" /><path d="M 143.74570117128098 25.957352633546492 a86.0,86.0 0 0,1 28.547481713284135,27.462654790039103" fill="none" id="id74" stroke="none" /><text fill="#e1ed5e" style="font-size:6.75px; font-family:Arial;" text-anchor="middle"><textPath startOffset="19.985693538727396" xlink:href="#id74">February</textPath></text><path d="M 110.68208982089419 81.91981866633111 l 6.092537613469986 -10.312044429571612 a32.97736510627465,32.97736510627465 0 0,0 0.48624015205206955,0.2929542510331767 l -6.269139831739692 10.205643569079822" fill="#ff820b" stroke="none" /><path d="M 116.38621287248628 86.86637796730983 l 3.700468889537087 -2.9659421684013947 a25.74239211250329,25.74239211250329 0 0,0 0.2741514738910232,0.34814453132353557 l -3.750974444022074 2.9018052431248207" fill="#ff1a02" stroke="none" /><path d="M 116.60985879189232 87.15038557335679 l 5.128253838264462 -3.9672874603736514 a27.48369934704812,27.48369934704812 0 0,0 0.28625458565934503,0.37667748034233073 l -5.195784364147921 3.878425204150287" fill="#ff3304" stroke="none" /><path d="M 117.04232023915458 87.72973835380427 l 4.531244316192748 -3.262440358020196 a26.583519691258196,26.583519691258196 0 0,0 0.2641735752743126,0.37365478765558907 l -4.586730511270943 3.1839590700328135" fill="#ff2603" stroke="none" /><path d="M 117.2510076193507 88.02491185347247 l 4.588826617918824 -3.185414119061065 a26.5860713242165,26.5860713242165 0 0,0 0.2577273178855495,0.37818303711637696 l -4.642978401473107 3.105953058674282" fill="#ff2603" stroke="none" /><line stroke="#e1ed5e" stroke-width="0.3" x1="172.23445277983987" x2="176.4835382374775" y1="55.19839476539836" y2="52.563006222186495" /><path d="M 173.08426987136738 54.67131705675599 a86.0,86.0 0 0,1 12.851231095245387,41.99856678651699" fill="none" id="id75" stroke="none" /><text fill="#e1ed5e" style="font-size:6.75px; font-family:Arial;" text-anchor="middle"><textPath startOffset="22.20632615414155" xlink:href="#id75">March</textPath></text><path d="M 117.84615892207809 88.93136811851018 l 12.526195409709693 -7.7690581189523185 a35.73987230263177,35.73987230263177 0 0,0 0.31975987509201265,0.5256011594531582 l -12.658071083087929 7.55228918629208" fill="#ffa70f" stroke="none" /><path d="M 118.03404312379186 89.2402003453031 l 4.97875572956964 -2.9705160297176794 a26.797583470510123,26.797583470510123 0 0,0 0.23293521952930923,0.3981617972363862 l -5.029150623569276 2.8843748201273978" fill="#ff2904" stroke="none" /><path d="M 118.21658344932153 89.55222093294921 l 3.329473364301401 -1.9095568725400556 a24.838202747778894,24.838202747778894 0 0,0 0.2095189438475393,0.3727108223527639 l -3.3618499494413734 1.8519625402524977" fill="#ff0c01" stroke="none" /><path d="M 118.73160827565052 90.50648371742162 l 3.2893207238413087 -1.667086957557334 a24.68765640323901,24.68765640323901 0 0,0 0.18884880022985837,0.3807076575534027 l -3.317529537024575 1.6102197115049814" fill="#ff0a01" stroke="none" /><path d="M 118.89224826269711 90.83032412892265 l 3.1164249071051047 -1.512610139214127 a24.46411513014196,24.46411513014196 0 0,0 0.18061717123049661,0.38042582573289835 l -3.1420002721773574 1.4587418978406883" fill="#ff0601" stroke="none" /><path d="M 119.34039704204932 91.81776055985345 l 7.455229815548471 -3.154044629978987 a29.094964430468004,29.094964430468004 0 0,0 0.19116543391533636,0.46292226133218994 l -7.508416936350005 3.025247798193494" fill="#ff4b06" stroke="none" /><path d="M 119.47837535516314 92.15188598940014 l 5.0858834236932 -2.049174647575727 a26.48318583814778,26.48318583814778 0 0,0 0.16672609464213056,0.4242997251797472 l -5.120403068217031 1.9613259175001956" fill="#ff2503" stroke="none" /><path d="M 119.61058180528143 92.48833698450437 l 5.673385154295814 -2.173140902158679 a27.075346943971116,27.075346943971116 0 0,0 0.16296188659259486,0.43665683651555076 l -5.7099516293900345 2.075160928613795" fill="#ff2d04" stroke="none" /><path d="M 119.7369772167798 92.82701384747503 l 15.91809501218033 -5.785094335513217 a37.93673714998221,37.93673714998221 0 0,0 0.21776937083611433,0.6156633364925508 l -16.015317463826253 5.510233372594052" fill="#ffc512" stroke="none" /><path d="M 119.85752413597 93.16781622104841 l 8.754554203698428 -3.012093693700505 a30.25823567020867,30.25823567020867 0 0,0 0.165213866077985,0.4939684307553807 l -8.805105363548183 2.8609521600228103" fill="#ff5b08" stroke="none" /><path d="M 119.97218684219823 93.5106431181261 l 8.876607734996572 -2.884184688833753 a30.333417712730103,30.333417712730103 0 0,0 0.15707584927751242,0.49797336705626727 l -8.92493906804229 2.730961155351067" fill="#ff5c08" stroke="none" /><path d="M 120.08093135843002 93.85539295169968 l 13.636415264762066 -4.172635813240386 a35.260529825464836,35.260529825464836 0 0,0 0.1725987871797487,0.5819173069168391 l -13.706219949053516 3.9372891195770165" fill="#ffa10e" stroke="none" /><path d="M 120.18372546131832 94.20196356495316 l 4.9678762911082535 -1.4270867781992558 a26.168788205785436,26.168788205785436 0 0,0 0.12064213793175985,0.4340139588237388 l -4.991705199606376 1.341361515956565" fill="#ff2003" stroke="none" /><path d="M 120.28053869075195 94.5502522615342 l 10.378652699878003 -2.788931790321441 a31.746840112132986,31.746840112132986 0 0,0 0.13727283493850886,0.5289682301316413 l -10.425121866686816 2.609867134640949" fill="#ff700a" stroke="none" /><path d="M 120.37134235888165 94.90015583598534 l 5.685554128805998 -1.4233445951753398 a26.861009775473658,26.861009775473658 0 0,0 0.10842536099207892,0.4494931203639287 l -5.709212290058896 1.325266243152005" fill="#ff2a04" stroke="none" /><path d="M 120.45610955862082 95.25157060432595 l 12.252858157456727 -2.844227622518405 a33.57863918694906,33.57863918694906 0 0,0 0.12584892289743943,0.5641560448552705 l -12.300001467356203 2.6328934081131705" fill="#ff8a0c" stroke="none" /><path d="M 120.6074358757038 95.95851677861258 l 7.558839982655285 -1.4824224201066676 a28.702833122625925,28.702833122625925 0 0,0 0.09091181747083697,0.48565456416203223 l -7.583237524035981 1.3520897784820727" fill="#ff4506" stroke="none" /><path d="M 120.67395015179393 96.31383870115 l 3.29657221234534 -0.5877781855325435 a24.348562609030235,24.348562609030235 0 0,0 0.07001735098179226,0.4132463689495227 l -3.3062014248473552 0.5309460282671828" fill="#ff0500" stroke="none" /><path d="M 120.73433829027371 96.67025291283417 l 3.0020794812908416 -0.4821067963841216 a24.04054405906365,24.04054405906365 0 0,0 0.0620979920817645,0.40914818025174304 l -3.009933366811906 0.43035950374029647" fill="#ff0000" stroke="none" /><path d="M 120.83666639777658 97.38593545837742 l 3.217177771427312 -0.40361112357598034 a24.242396452015125,24.242396452015125 0 0,0 0.0483804894119525,0.4144944878146383 l -3.2236486138428533 0.3481728974364893" fill="#ff0300" stroke="none" /><path d="M 120.87857604477298 97.74499172005257 l 3.1263411767639524 -0.33766312532162707 a24.144523102114498,24.144523102114498 0 0,0 0.041071988773302974,0.4135893218715546 l -3.131690291219484 0.28379827274563746" fill="#ff0200" stroke="none" /><path d="M 120.94382443527127 98.46500227214037 l 12.98633327852218 -0.9517837650600657 a34.021165245717626,34.021165245717626 0 0,0 0.03777873651767876,0.5844203326639187 l -13.000792606044275 0.7281043681431117" fill="#ff900d" stroke="none" /><path d="M 120.98425023603335 99.18683210126433 l 3.4742656790412316 -0.13463246435291495 a24.476873294933476,24.476873294933476 0 0,0 0.01269103215265226,0.4211535723407281 l -3.476068405649529 0.0748087445871878" fill="#ff0701" stroke="none" /><line stroke="#e1ed5e" stroke-width="0.3" x1="184.98032266829074" x2="189.97916517819016" y1="98.17113171792111" y2="98.06355123074" /><path d="M 185.9800911702706 98.14961562048488 a86.0,86.0 0 0,1 -9.607161424134198,41.387399972396054" fill="none" id="id76" stroke="none" /><text fill="#e1ed5e" style="font-size:6.75px; font-family:Arial;" text-anchor="middle"><textPath startOffset="21.466115282336823" xlink:href="#id76">April</textPath></text><path d="M 120.99513854157772 99.54816195383933 l 10.05957961033159 -0.21649301276715227 a31.061908922325628,31.061908922325628 0 0,0 0.006903128945269596,0.5346549443261391 l -10.061815746394576 0.04330181038055044" fill="#ff6709" stroke="none" /><path d="M 120.99980553446 99.90962569577887 l 16.45241244105384 -0.07080424267164719 a37.4525647961442,37.4525647961442 0 0,0 -0.00277452650325836,0.6447022471794512 l -16.45119361726108 -0.2124074827114888" fill="#ffbe11" stroke="none" /><path d="M 120.99824983174949 100.27111621757518 l 3.0401084117241695 0.0392519710075518 a24.04036179956663,24.04036179956663 0 0,0 -0.008904020338417648,0.41373483745017436 l -3.0389823287007443 -0.09157662424784101" fill="#ff0000" stroke="none" /><path d="M 120.9904718944345 100.63252640178507 l 19.239509921275474 0.5797629535827257 a40.24824322095927,40.24824322095927 0 0,0 -0.026828074360926164,0.6923133913868939 l -19.226679714063344 -0.9108535919836256" fill="#ffe315" stroke="none" /><path d="M 120.95626037817324 101.35467743843564 l 57.32726495651135 3.705811582905028 a78.44691764474442,78.44691764474442 0 0,0 -0.09870654887378275,1.3467724366645655 l -57.25498184897323 -4.6920571560663635" fill="#46fff6" stroke="none" /><path d="M 120.92983693683757 101.71520430193887 l 4.727183091460642 0.3873935950382558 a25.743030020742864,25.743030020742864 0 0,0 -0.03999413083229074,0.4413319010771576 l -4.719814364351276 -0.4687068846639839" fill="#ff1a02" stroke="none" /><path d="M 120.81339534386255 102.79330883721812 l 9.248855800655276 1.241263629278276 a30.33177737725691,30.33177737725691 0 0,0 -0.07390257970764441,0.5168744703492175 l -9.226119169931032 -1.400283571607903" fill="#ff5c08" stroke="none" /><path d="M 120.70491114924044 103.5080841355445 l 23.63564253130108 4.004645178132045 a44.972500513508905,44.972500513508905 0 0,0 -0.1358888168802287,0.7621366507332633 l -23.563207272081662 -4.410900579598527" fill="#e0ff1b" stroke="none" /><path d="M 120.5718875245553 104.21870165774334 l 3.188436943249382 0.6538565895832662 a24.254790097812595,24.254790097812595 0 0,0 -0.08739342896608805,0.4082730053589666 l -3.1767094755588507 -0.7086434143584018" fill="#ff0300" stroke="none" /><path d="M 120.49622156327973 104.57218783832717 l 7.941684745301107 1.7715886948327741 a29.13688411478298,29.13688411478298 0 0,0 -0.1134110675280679,0.4885719106675144 l -7.910013111842486 -1.9080292628488533" fill="#ff4b07" stroke="none" /><path d="M 120.41448212921028 104.9243191809786 l 8.88325062202517 2.142790649824377 a30.138035531922895,30.138035531922895 0 0,0 -0.12598945376553655,0.5032652398236882 l -8.845049853964573 -2.295383729045461" fill="#ff5a08" stroke="none" /><path d="M 120.32669344350535 105.2749913415812 l 3.1358800035731202 0.8137939361884341 a24.239753689308312,24.239753689308312 0 0,0 -0.10828466298073881,0.40296751383471363 l -3.1214072642506046 -0.867652383198696" fill="#ff0300" stroke="none" /><path d="M 120.13307415673323 105.97154293290107 l 60.399222470199675 17.914628798703227 a84.0,84.0 0 0,0 -0.4230929099754692,1.3826921097917715 l -60.08190278771807 -18.951647881047055" fill="#4dd2ff" stroke="none" /><path d="M 120.02730092923936 106.31721596034902 l 3.08856171403474 0.9742257043702504 a24.23856900257767,24.23856900257767 0 0,0 -0.12893504675549158,0.39682127076430085 l -3.0713344162630016 -1.0272458751123463" fill="#ff0300" stroke="none" /><path d="M 119.9155931802556 106.66101706037122 l 5.4986375401068495 1.8390874995258015 a26.798039119252678,26.798039119252678 0 0,0 -0.15008071967457634,0.436204822601968 l -5.466165989489043 -1.93346502521707" fill="#ff2904" stroke="none" /><path d="M 119.67450827220406 107.3425965602758 l 2.9492893923020684 1.1006853054502832 a24.14798603255791,24.14798603255791 0 0,0 -0.14868917763361128,0.3881805234778077 l -2.9299059350749506 -1.1512893957612347" fill="#ff0200" stroke="none" /><path d="M 119.41010516605496 108.01547362559984 l 4.384191334399141 1.8104677800466562 a25.7433034099884,25.7433034099884 0 0,0 -0.1726628107697883,0.40812388089001234 l -4.3523775424370434 -1.885666186602832" fill="#ff1a02" stroke="none" /><path d="M 119.26925614724726 108.34839909993367 l 12.231309752976674 5.299211062039243 a34.329912833672296,34.329912833672296 0 0,0 -0.23958832315109357,0.5402084192356209 l -12.138280345094309 -5.508967817767551" fill="#ff940d" stroke="none" /><path d="M 119.12269723197855 108.67885076344098 l 2.863583262565558 1.299639453734243 a24.14470536161152,24.14470536161152 0 0,0 -0.1750208107124139,0.37697925569226876 l -2.840787835013313 -1.3487387767053425" fill="#ff0200" stroke="none" /><line stroke="#e1ed5e" stroke-width="0.3" x1="174.80103733775053" x2="179.2010983576182" y1="140.37084112569926" y2="142.7455964860345" /><path d="M 175.68104954172406 140.8457921977663 a86.0,86.0 0 0,1 -30.038265399797805,32.042727171017184" fill="none" id="id77" stroke="none" /><text fill="#e1ed5e" style="font-size:6.75px; font-family:Arial;" text-anchor="middle"><textPath startOffset="22.206326154141568" xlink:href="#id77">May</textPath></text><path d="M 118.48025628344425 109.97397251340804 l 8.216969889491143 4.43477788209611 a30.33733629191607,30.33733629191607 0 0,0 -0.25197843446252516,0.45741405063337337 l -8.139415045577108 -4.575562451127289" fill="#ff5c08" stroke="none" /><path d="M 118.30583269289576 110.29060199501025 l 4.840577539011935 2.7211248849274976 a26.55299122550707,26.55299122550707 0 0,0 -0.22740487943289656,0.3964995753055864 l -4.793020663426659 -2.804044306091399" fill="#ff2603" stroke="none" /><path d="M 118.12598468904814 110.60418214915192 l 8.059212343546928 4.714853131333695 a30.337062902670535,30.337062902670535 0 0,0 -0.2675716297485921,0.44846544215002804 l -7.9768598381001095 -4.852880667369827" fill="#ff5c08" stroke="none" /><path d="M 117.94076556474637 110.91462005526583 l 31.39111053359214 19.097403806460964 a57.74387911855836,57.74387911855836 0 0,0 -0.5239167054678148,0.844720547924824 l -31.057729188456364 -19.634920685751062" fill="#50ff2b" stroke="none" /><path d="M 117.55443506779139 111.5257021239791 l 2.712230072905147 1.7807668427541072 a24.244583565979383,24.244583565979383 0 0,0 -0.23205171463676774,0.3468858281918737 l -2.681175252857658 -1.8271895851517876" fill="#ff0300" stroke="none" /><path d="M 117.14729908036423 112.12312394758627 l 2.8917566786292714 2.0444691888198165 a24.54148428662765,24.54148428662765 0 0,0 -0.24684082887773207,0.34284032200217485 l -2.8561360573759367 -2.0939431162731226" fill="#ff0801" stroke="none" /><path d="M 116.71984013943494 112.70617746262583 l 11.736504413029165 8.919110865845852 a35.7409658596139,35.7409658596139 0 0,0 -0.3764599044851597,0.48662517385288384 l -11.581237691325937 -9.119814033811988" fill="#ffa70f" stroke="none" /><path d="M 116.498646956653 112.99209946851258 l 4.562101816857828 3.592493417540398 a26.806787575109716,26.806787575109716 0 0,0 -0.28859688124203825,0.3600689831485162 l -4.499587023560935 -3.6704902342671644" fill="#ff2904" stroke="none" /><path d="M 116.27256486870786 113.27417163493432 l 2.352255859099784 1.9188276866552645 a24.035623052644063,24.035623052644063 0 0,0 -0.26428197656697505,0.318344665730938 l -2.3188778826392658 -1.959033609499973" fill="#ff0000" stroke="none" /><path d="M 115.32070863581623 114.36230785411682 l 2.610443341351882 2.4471446977705447 a24.578118445529,24.578118445529 0 0,0 -0.292003787218634,0.3061648034829809 l -2.5679330027542835 -2.491716617836033" fill="#ff0801" stroke="none" /><path d="M 115.07121518719521 114.62390073753431 l 8.11635303692458 7.87545925716819 a32.309201790193285,32.309201790193285 0 0,0 -0.3907249853139075,0.39580234725829283 l -7.979587426555137 -8.014002098407147" fill="#ff780b" stroke="none" /><path d="M 113.75828350139079 115.86535959552629 l 2.943000809900695 3.393720309243495 a25.492058693344056,25.492058693344056 0 0,0 -0.333987877126817,0.28463171459972747 l -2.884147456196831 -3.443876414066169" fill="#ff1602" stroke="none" /><path d="M 113.48314897796784 116.09983520530334 l 25.972539779753816 31.013052737198596 a61.452221974709325,61.452221974709325 0 0,0 -0.8168167057354153,0.6721845402220427 l -25.43485294547371 -31.455532396277817" fill="#30ff36" stroke="none" /><path d="M 112.34349029814194 116.9893568818739 l 20.83346306016296 28.674801896812337 a56.444004385799964,56.444004385799964 0 0,0 -0.790948952262792,0.5643210764423218 l -20.336786780051284 -29.02916723509888" fill="#5dff2a" stroke="none" /><path d="M 111.45004920935366 117.60387380957326 l 3.537162580311934 5.438209266112902 a27.48734453698855,27.48734453698855 0 0,0 -0.3988520997060144,0.25456628106633217 l -3.4430286785589894 -5.4982899760030435" fill="#ff3304" stroke="none" /><line stroke="#e1ed5e" stroke-width="0.3" x1="143.8653032363475" x2="146.44561519142675" y1="172.8068346515853" y2="177.08958963109032" /><path d="M 144.38136562736335 173.6633856474863 a86.0,86.0 0 0,1 -40.68145358897372,12.25698825130547" fill="none" id="id78" stroke="none" /><text fill="#e1ed5e" style="font-size:6.75px; font-family:Arial;" text-anchor="middle"><textPath startOffset="21.466115282336833" xlink:href="#id78">June</textPath></text><path d="M 110.8373102113329 117.98757091392108 l 3.851598252325056 6.392812916177508 a28.463435273287992,28.463435273287992 0 0,0 -0.4218445503786317,0.24923319597507837 l -3.740985830918042 -6.458164684446336" fill="#ff4206" stroke="none" /><path d="M 110.5260780823613 118.17145234162733 l 1.57639485232802 2.7213729279347416 a24.144978750857053,24.144978750857053 0 0,0 -0.3614287544282553,0.2052286794754262 l -1.5293173309785655 -2.7481047732047963" fill="#ff0200" stroke="none" /><path d="M 110.21172684928248 118.3499491758327 l 2.306849187179485 4.1452896229817195 a25.743941318227975,25.743941318227975 0 0,0 -0.3890733193808432,0.2121537955079642 l -2.235153055929993 -4.184384070249454" fill="#ff1a02" stroke="none" /><path d="M 109.2508944713604 118.85261126421891 l 10.117745148548055 20.619186257776327 a43.967795036177066,43.967795036177066 0 0,0 -0.6823117818215407,0.3275511192930368 l -9.761320698726282 -20.790291653568925" fill="#ecff1a" stroke="none" /><path d="M 107.93186726928326 119.44442032107085 l 1.457636449236134 3.573294261241685 a24.859162589936382,24.859162589936382 0 0,0 -0.397603275295625,0.1582145488365523 l -1.3959120978986426 -3.597855654484306" fill="#ff0c01" stroke="none" /><path d="M 107.59598834532513 119.57807347666477 l 4.069992881641194 10.490092409806518 a32.25197230812849,32.25197230812849 0 0,0 -0.5193024893615817,0.19635576652889095 l -3.8888201715193373 -10.55859642644204" fill="#ff780b" stroke="none" /><path d="M 104.48393922423573 120.51570834832081 l 1.0129112349533864 4.634449853093876 a25.743850188479463,25.743850188479463 0 0,0 -0.43373304820795,0.09089297735941228 l -0.9329867253160584 -4.651198811179829" fill="#ff1a02" stroke="none" /><line stroke="#e1ed5e" stroke-width="0.3" x1="102.19456741930631" x2="102.32365962044197" y1="184.97166512339345" y2="189.96999836594603" /><path d="M 102.22038585953345 185.97133177190398 a86.0,86.0 0 0,1 -42.740103519485714,-10.115201625700543" fill="none" id="id79" stroke="none" /><text fill="#e1ed5e" style="font-size:6.75px; font-family:Arial;" text-anchor="middle"><textPath startOffset="22.20632615414155" xlink:href="#id79">July</textPath></text><line stroke="#e1ed5e" stroke-width="0.3" x1="58.666819895761336" x2="56.23545636021788" y1="174.27360380694188" y2="178.64263932499728" /><path d="M 58.180547188652646 175.14741091055294 a86.0,86.0 0 0,1 -31.652253787137756,-30.449443065178592" fill="none" id="id80" stroke="none" /><text fill="#e1ed5e" style="font-size:6.75px; font-family:Arial;" text-anchor="middle"><textPath startOffset="22.20632615414155" xlink:href="#id80">August</textPath></text><line stroke="#e1ed5e" stroke-width="0.3" x1="26.63291911575756" x2="22.317208475507996" y1="142.92168965132927" y2="145.44649492493687" /><path d="M 25.769776987707644 143.4266507060508 a86.0,86.0 0 0,1 -11.730757126820373,-40.83630448921669" fill="none" id="id81" stroke="none" /><text fill="#e1ed5e" style="font-size:6.75px; font-family:Arial;" text-anchor="middle"><textPath startOffset="21.46611528233685" xlink:href="#id81">September</textPath></text><line stroke="#e1ed5e" stroke-width="0.3" x1="15.007084014347285" x2="10.007500721073583" y1="101.09737516637583" y2="101.16192664675087" /><path d="M 14.007167355692545 101.11028546245083 a86.0,86.0 0 0,1 10.666146001902534,-42.60595125391555" fill="none" id="id82" stroke="none" /><text fill="#e1ed5e" style="font-size:6.75px; font-family:Arial;" text-anchor="middle"><textPath startOffset="22.20632615414155" xlink:href="#id82">October</textPath></text><line stroke="#e1ed5e" stroke-width="0.3" x1="26.266209847984243" x2="21.928928074336255" y1="57.711370442889674" y2="55.22380399835377" /><path d="M 25.398753493254645 57.213857153982495 a86.0,86.0 0 0,1 29.58750427330803,-30.492523968695096" fill="none" id="id83" stroke="none" /><text fill="#e1ed5e" style="font-size:6.75px; font-family:Arial;" text-anchor="middle"><textPath startOffset="21.46611528233685" xlink:href="#id83">November</textPath></text><line stroke="#e1ed5e" stroke-width="0.3" x1="56.762969772571076" x2="54.21961505331055" y1="26.818313649435495" y2="22.513508569990535" /><path d="M 56.25429882871897 25.957352633546506 a86.0,86.0 0 0,1 42.265352541879196,-11.944610805530505" fill="none" id="id84" stroke="none" /><text fill="#e1ed5e" style="font-size:6.75px; font-family:Arial;" text-anchor="middle"><textPath startOffset="22.20632615414155" xlink:href="#id84">December</textPath></text></svg>